<svg id="Capa_1" enable-background="new 0 0 512.001 512.001" height="512" viewBox="0 0 512.001 512.001" width="512" xmlns="http://www.w3.org/2000/svg"><g><g><path d="m476.273 480.629c1.035 13.511-7.858 23.917-21.27 23.857l-57.971.016c-13.468.044-22.132-4.853-21.342-23.632.313-5.08 1.172-19.625 12.217-32.516 2.919-3.406 16.354-18.161 38.063-18.024 22.538.142 35.92 16.22 38.398 19.198 1.193 1.432 10.58 13.807 11.905 31.101z" fill="#f7f06d"/><path d="m416.432 504.497h-19.4c-13.47.05-22.13-4.85-21.34-23.63.31-5.08 1.17-19.62 12.21-32.51 2.92-3.41 16.36-18.16 38.07-18.03 3.46.02 6.7.42 9.72 1.08-15.67 3.45-25.36 14.11-27.79 16.95-11.04 12.89-11.9 27.43-12.21 32.51-.78 18.5 7.61 23.53 20.74 23.63z" fill="#ed5"/><path d="m136.244 480.629c1.035 13.511-7.858 23.917-21.27 23.857l-57.971.016c-13.468.044-22.132-4.853-21.342-23.632.313-5.08 1.172-19.625 12.217-32.516 2.919-3.406 16.354-18.161 38.063-18.024 22.538.142 35.92 16.22 38.398 19.198 1.193 1.432 10.58 13.807 11.905 31.101z" fill="#aad7e5"/><path d="m76.403 504.496h-19.4c-13.47.05-22.13-4.85-21.34-23.63.31-5.08 1.17-19.62 12.21-32.51 2.92-3.41 16.36-18.16 38.07-18.03 3.46.02 6.7.42 9.72 1.08-15.67 3.45-25.36 14.11-27.79 16.95-11.04 12.89-11.9 27.43-12.21 32.51-.78 18.501 7.61 23.53 20.74 23.63z" fill="#98cfde"/><ellipse cx="425.998" cy="37.497" fill="#f0c585" rx="30" ry="29.997"/><path d="m453.342 49.83c-4.69 10.41-15.17 17.66-27.34 17.66-16.57 0-30-13.43-30-29.99 0-12.17 7.25-22.65 17.66-27.34-1.71 3.76-2.66 7.94-2.66 12.34 0 16.56 13.43 29.99 30 29.99 4.4 0 8.58-.95 12.34-2.66z" fill="#ebaa61"/><g><ellipse cx="255.984" cy="258" fill="#98cfde" rx="94.2" ry="93.82"/><path d="m350.784 294.674c4.45-11.378 6.897-23.747 6.897-36.674 0-55.867-45.621-101.318-101.697-101.318s-101.697 45.451-101.697 101.318c0 12.929 2.448 25.299 6.899 36.678.118.39.273.764.45 1.125 15.069 37.197 51.68 63.515 94.349 63.515 42.667 0 79.275-26.316 94.346-63.509.179-.363.334-.741.453-1.135zm-94.83 47.385c-7.39-6.559-21.365-20.894-30.473-42.056h60.527c-8.814 20.955-22.377 35.181-30.054 42.056zm-35.68-57.056c-2.183-8.24-3.504-17.253-3.504-27.003 0-11.244 1.758-21.506 4.569-30.734h68.704c2.732 9.214 4.434 19.469 4.434 30.734 0 9.766-1.277 18.775-3.396 27.003zm-50.987-27.003c0-10.821 2.016-21.181 5.685-30.734h30.698c-2.433 9.352-3.899 19.604-3.899 30.734 0 9.67 1.111 18.673 2.996 27.003h-31.131c-2.818-8.499-4.349-17.576-4.349-27.003zm86.667-84.059c7.213 6.459 19.624 19.404 28.409 38.324h-57.198c9.073-19.12 21.842-32.157 28.789-38.324zm49.647 53.325h31.396c3.669 9.553 5.685 19.913 5.685 30.734 0 9.427-1.531 18.504-4.35 27.003h-31.834c1.875-8.337 2.98-17.341 2.98-27.003 0-11.12-1.459-21.372-3.877-30.734zm23.878-15h-28.803c-6.452-16.094-15.436-28.807-23.397-37.946 21.898 5.526 40.498 19.372 52.2 37.946zm-95.221-37.839c-8.064 9.118-17.12 21.783-23.619 37.839h-28.15c11.626-18.453 30.058-32.241 51.769-37.839zm-53.99 125.576h28.93c6.552 17.836 16.381 31.757 25.06 41.57-23.151-5.969-42.574-21.251-53.99-41.57zm97.011 41.678c8.566-9.834 18.316-23.808 24.822-41.678h29.6c-11.487 20.445-31.081 35.787-54.422 41.678z" fill="#c5d8fc"/><path d="m253.194 351.78c-50.73-1.47-91.41-42.9-91.41-93.78s40.67-92.3 91.4-93.78c-6.7 2.74-13.04 6.17-18.93 10.21-14.04 9.6-25.55 22.62-33.31 37.84-2.45 4.79-4.52 9.81-6.17 15-3.11 9.69-4.79 20.02-4.79 30.73 0 9.35 1.28 18.4 3.68 27 .91 3.3 1.99 6.53 3.22 9.68.12.39.27.76.45 1.12.57 1.42 1.18 2.82 1.81 4.2 7.73 16.82 19.94 31.19 35.11 41.57 5.89 4.04 12.24 7.47 18.94 10.21z" fill="#88bcd3"/><path d="m234.254 341.57c-23.15-5.97-42.57-21.25-53.99-41.57h18.88c-.63-1.38-1.24-2.78-1.81-4.2-.18-.36-.33-.73-.45-1.12-1.23-3.15-2.31-6.38-3.22-9.68h-20.03c-2.82-8.5-4.35-17.57-4.35-27 0-10.82 2.02-21.18 5.69-30.73h19.8c1.65-5.19 3.72-10.21 6.17-15h-18.45c11.62-18.46 30.05-32.24 51.76-37.84 5.89-4.04 12.23-7.47 18.93-10.21 6.57-2.69 13.48-4.71 20.65-5.97-5.8-1.03-11.76-1.57-17.85-1.57-56.08 0-101.7 45.45-101.7 101.32 0 12.93 2.45 25.3 6.9 36.68.12.39.27.76.45 1.12 15.07 37.2 51.68 63.52 94.35 63.52 6.09 0 12.05-.54 17.85-1.57-7.17-1.26-14.08-3.28-20.64-5.97-6.7-2.74-13.05-6.17-18.94-10.21z" fill="#aac7fa"/></g><ellipse cx="85.968" cy="37.497" fill="#f0c585" rx="30" ry="29.997"/><path d="m113.313 49.83c-4.69 10.41-15.17 17.66-27.34 17.66-16.57 0-30-13.43-30-29.99 0-12.17 7.25-22.65 17.66-27.34-1.71 3.76-2.66 7.94-2.66 12.34 0 16.56 13.43 29.99 30 29.99 4.4 0 8.58-.95 12.34-2.66z" fill="#ebaa61"/><ellipse cx="425.998" cy="372.552" fill="#f0c585" rx="30" ry="29.997"/><path d="m453.342 384.885c-4.69 10.41-15.17 17.66-27.34 17.66-16.57 0-30-13.43-30-29.99 0-12.17 7.25-22.65 17.66-27.34-1.71 3.76-2.66 7.94-2.66 12.34 0 16.56 13.43 29.99 30 29.99 4.4 0 8.58-.95 12.34-2.66z" fill="#ebaa61"/><ellipse cx="85.968" cy="372.552" fill="#f0c585" rx="30" ry="29.997"/><path d="m113.313 384.885c-4.69 10.41-15.17 17.66-27.34 17.66-16.57 0-30-13.43-30-29.99 0-12.17 7.25-22.65 17.66-27.34-1.71 3.76-2.66 7.94-2.66 12.34 0 16.56 13.43 29.99 30 29.99 4.4 0 8.58-.95 12.34-2.66z" fill="#ebaa61"/><path d="m136.244 145.572c1.035 13.511-7.858 23.917-21.27 23.857l-57.971.016c-13.468.044-22.132-4.853-21.342-23.632.313-5.08 1.172-19.625 12.217-32.516 2.919-3.407 16.354-18.161 38.063-18.024 22.538.142 35.92 16.22 38.398 19.198 1.193 1.433 10.58 13.807 11.905 31.101z" fill="#bf4a55"/><path d="m76.403 169.44h-19.4c-13.47.05-22.13-4.85-21.34-23.63.31-5.08 1.17-19.62 12.21-32.51 2.92-3.41 16.36-18.16 38.07-18.03 3.46.02 6.7.42 9.72 1.08-15.67 3.45-25.36 14.11-27.79 16.95-11.04 12.89-11.9 27.43-12.21 32.51-.78 18.5 7.61 23.53 20.74 23.63z" fill="#ba333e"/><path d="m476.273 145.573c1.035 13.511-7.858 23.917-21.27 23.857l-57.971.016c-13.468.044-22.132-4.853-21.342-23.632.313-5.08 1.172-19.625 12.217-32.516 2.919-3.406 16.354-18.161 38.063-18.024 22.538.142 35.92 16.22 38.398 19.198 1.193 1.433 10.58 13.807 11.905 31.101z" fill="#aef2ab"/><path d="m416.432 169.441h-19.4c-13.47.05-22.13-4.85-21.34-23.63.31-5.08 1.17-19.62 12.21-32.51 2.92-3.41 16.36-18.16 38.07-18.03 3.46.02 6.7.42 9.72 1.08-15.67 3.45-25.36 14.11-27.79 16.95-11.04 12.89-11.9 27.43-12.21 32.51-.78 18.5 7.61 23.53 20.74 23.63z" fill="#96d094"/><g fill="#5f6c75"><path d="m72.632 320.506c-3.228 0-6.208-2.1-7.182-5.35-5.533-18.469-8.338-37.699-8.338-57.156 0-20.941 3.241-41.57 9.634-61.313 1.276-3.94 5.504-6.1 9.446-4.825 3.94 1.276 6.101 5.505 4.825 9.446-5.908 18.248-8.904 37.322-8.904 56.692 0 17.999 2.593 35.78 7.707 52.852 1.188 3.968-1.064 8.148-5.032 9.337-.718.214-1.443.317-2.156.317z"/><path d="m255.983 456.87c-35.515 0-70.374-9.478-100.808-27.408-3.569-2.103-4.757-6.7-2.655-10.269 2.103-3.569 6.703-4.755 10.269-2.655 28.128 16.572 60.354 25.332 93.193 25.332s65.065-8.76 93.193-25.332c3.568-2.102 8.166-.915 10.269 2.655 2.103 3.568.914 8.166-2.655 10.269-30.433 17.931-65.291 27.408-100.806 27.408z"/><path d="m439.333 320.505c-.713 0-1.438-.103-2.155-.317-3.968-1.188-6.221-5.369-5.032-9.337 5.114-17.071 7.707-34.853 7.707-52.851 0-19.37-2.996-38.444-8.904-56.692-1.276-3.941.884-8.17 4.825-9.446 3.94-1.275 8.17.884 9.446 4.825 6.393 19.743 9.634 40.372 9.634 61.313 0 19.457-2.805 38.687-8.338 57.155-.975 3.25-3.955 5.35-7.183 5.35z"/><path d="m352.976 100.501c-1.294 0-2.604-.335-3.8-1.039-28.128-16.572-60.354-25.332-93.193-25.332s-65.065 8.76-93.193 25.332c-3.569 2.104-8.167.914-10.269-2.654-2.103-3.569-.914-8.167 2.655-10.27 30.434-17.931 65.292-27.408 100.807-27.408s70.374 9.478 100.807 27.408c3.569 2.103 4.757 6.7 2.655 10.27-1.399 2.373-3.901 3.693-6.469 3.693z"/></g></g><g><path d="m425.998 74.994c20.678 0 37.5-16.821 37.5-37.497s-16.823-37.497-37.5-37.497-37.5 16.821-37.5 37.497 16.822 37.497 37.5 37.497zm0-59.994c12.407 0 22.5 10.092 22.5 22.497s-10.093 22.497-22.5 22.497-22.5-10.092-22.5-22.497 10.093-22.497 22.5-22.497z"/><path d="m85.968 74.994c20.678 0 37.5-16.821 37.5-37.497s-16.822-37.497-37.5-37.497-37.5 16.821-37.5 37.497 16.823 37.497 37.5 37.497zm0-59.994c12.407 0 22.5 10.092 22.5 22.497s-10.093 22.497-22.5 22.497-22.5-10.092-22.5-22.497 10.094-22.497 22.5-22.497z"/><path d="m85.968 410.05c20.678 0 37.5-16.821 37.5-37.497 0-20.677-16.822-37.498-37.5-37.498s-37.5 16.821-37.5 37.498c0 20.676 16.823 37.497 37.5 37.497zm0-59.995c12.407 0 22.5 10.093 22.5 22.498s-10.093 22.497-22.5 22.497-22.5-10.092-22.5-22.497 10.094-22.498 22.5-22.498z"/><path d="m388.498 372.553c0 20.676 16.822 37.497 37.5 37.497s37.5-16.821 37.5-37.497c0-20.677-16.822-37.498-37.5-37.498s-37.5 16.821-37.5 37.498zm60 0c0 12.405-10.093 22.497-22.5 22.497s-22.5-10.092-22.5-22.497 10.093-22.498 22.5-22.498 22.5 10.092 22.5 22.498z"/><path d="m470.133 444.728c-6.756-8.117-21.471-21.757-44.116-21.899-8.887-.073-17.47 2.027-25.522 6.191-3.68 1.902-5.12 6.427-3.218 10.106s6.426 5.119 10.106 3.218c5.874-3.036 12.105-4.595 18.54-4.516 16.578.104 27.591 10.379 32.682 16.495.089.108 8.99 11.203 10.191 26.877.754 8.891-4.733 15.949-13.794 15.784l-57.994.016c-11.959.737-14.386-5.888-13.829-15.728.201-3.254.618-10.023 3.862-17.519 1.646-3.802-.103-8.217-3.904-9.862s-8.216.104-9.862 3.903c-4.289 9.908-4.835 18.771-5.072 22.611-.976 20.458 8.454 31.726 28.83 31.594l57.936-.016c17.49.385 30.443-14.58 28.781-31.931-1.581-20.65-13.127-34.736-13.617-35.324z"/><path d="m134.802 451.732c-2.062-3.592-6.647-4.836-10.238-2.771-3.593 2.062-4.834 6.646-2.772 10.238 2.784 4.851 6.254 12.605 6.974 22.001.775 8.893-4.778 15.945-13.794 15.783l-57.994.017c-11.973.774-14.376-5.908-13.828-15.727.288-4.679 1.054-17.106 10.423-28.042 3.105-3.625 14.564-15.404 32.075-15.404 4.428.001 8.794.745 12.958 2.215 3.903 1.379 8.189-.672 9.567-4.578s-.672-8.19-4.578-9.568c-5.774-2.037-11.826-3.07-17.961-3.068-23.243 0-38.118 14.42-43.451 20.645-12.641 14.754-13.667 31.407-14.007 36.936-.976 20.458 8.455 31.725 28.83 31.593l57.936-.017c17.477.32 30.455-14.547 28.782-31.93-.935-12.19-5.368-22.13-8.922-28.323z"/><path d="m130.103 109.672c-6.757-8.117-21.473-21.756-44.115-21.899-.116-.001-.231-.001-.347-.001-8.9 0-17.493 2.147-25.546 6.386-3.666 1.929-5.073 6.464-3.145 10.129 1.929 3.666 6.464 5.075 10.13 3.145 5.877-3.092 12.121-4.659 18.564-4.659.083 0 .166 0 .249.001 16.575.104 27.59 10.38 32.682 16.497.09.107 8.99 11.202 10.191 26.876.783 8.893-4.795 15.945-13.794 15.783l-57.994.016c-11.982.755-14.373-5.898-13.828-15.726.191-3.108.59-9.577 3.552-16.785 1.575-3.831-.255-8.213-4.086-9.788-3.832-1.57-8.214.257-9.788 4.087-3.907 9.506-4.427 17.956-4.653 21.619-.976 20.458 8.455 31.725 28.83 31.593l57.937-.016c17.487.358 30.447-14.566 28.781-31.93-1.583-20.656-13.13-34.739-13.62-35.328z"/><path d="m396.844 176.944c.241 0 13.801-.004 14.038-.004 4.142-.001 7.499-3.36 7.498-7.502s-3.358-7.498-7.5-7.498c0 0-.001 0-.002 0l-13.871.004c-5.52.034-9.136-.927-11.022-2.888-2.65-2.755-2.986-8.551-2.806-12.841.289-4.678 1.055-17.106 10.423-28.039 3.106-3.625 14.565-15.405 32.074-15.405.082 0 .164 0 .246.001 16.578.104 27.591 10.38 32.683 16.498.089.108 8.989 11.199 10.19 26.875.359 4.691-.917 8.859-3.594 11.736-2.48 2.666-6.007 4.034-10.201 4.047l-9.123.003c-4.142.001-7.499 3.36-7.498 7.502s3.359 7.498 7.5 7.498c.19 0 9.055-.003 9.236-.003 8.289 0 15.766-3.132 21.067-8.829 5.563-5.979 8.251-14.184 7.568-23.101-1.583-20.662-13.13-34.739-13.619-35.326-6.756-8.117-21.471-21.757-44.116-21.9-.119-.001-.236-.001-.354-.001-23.242 0-38.118 14.421-43.451 20.646-12.639 14.751-13.666 31.403-14.007 36.934-.003.049-.005.098-.007.146-.454 10.769 1.829 18.605 6.978 23.958 4.848 5.039 11.944 7.489 21.67 7.489z"/><path d="m256.033 156.682c-.003 0-.005 0-.008 0-.014 0-.028 0-.042 0-56.076 0-101.697 45.451-101.697 101.318-.319 54.723 45.206 101.516 101.697 101.318 56.491.198 102.016-46.595 101.697-101.318 0-55.851-45.594-101.291-101.647-101.318zm73.445 55.584h-28.803c-6.452-16.094-15.436-28.807-23.397-37.946 21.898 5.526 40.498 19.372 52.2 37.946zm-73.525 129.793c-7.39-6.559-21.365-20.894-30.473-42.056h60.527c-8.814 20.955-22.377 35.181-30.054 42.056zm-35.68-57.056c-2.183-8.24-3.504-17.253-3.504-27.003 0-11.244 1.758-21.506 4.569-30.734h68.704c2.732 9.214 4.434 19.469 4.434 30.734 0 9.766-1.277 18.775-3.396 27.003zm-50.987-27.003c0-10.821 2.016-21.181 5.685-30.734h30.698c-2.433 9.352-3.899 19.604-3.899 30.734 0 9.67 1.111 18.673 2.996 27.003h-31.131c-2.818-8.499-4.349-17.576-4.349-27.003zm86.667-84.059c7.213 6.459 19.624 19.404 28.409 38.324h-57.198c9.072-19.12 21.842-32.157 28.789-38.324zm49.646 53.325h31.396c3.669 9.553 5.685 19.913 5.685 30.734 0 9.427-1.531 18.504-4.35 27.003h-31.834c1.875-8.337 2.98-17.341 2.98-27.003.001-11.12-1.458-21.372-3.877-30.734zm-71.342-52.839c-8.064 9.118-17.12 21.783-23.619 37.839h-28.15c11.625-18.453 30.057-32.241 51.769-37.839zm-53.99 125.576h28.93c6.552 17.836 16.381 31.757 25.06 41.57-23.151-5.969-42.574-21.251-53.99-41.57zm97.01 41.678c8.566-9.834 18.316-23.808 24.822-41.678h29.6c-11.487 20.445-31.081 35.787-54.422 41.678z"/><path d="m76.192 191.861c-3.942-1.274-8.17.885-9.446 4.825-6.393 19.743-9.634 40.372-9.634 61.313 0 19.457 2.805 38.688 8.338 57.156.974 3.25 3.954 5.35 7.182 5.35.712 0 1.438-.103 2.155-.317 3.968-1.188 6.221-5.369 5.032-9.337-5.114-17.071-7.707-34.853-7.707-52.852 0-19.37 2.996-38.444 8.904-56.692 1.277-3.941-.883-8.169-4.824-9.446z"/><path d="m349.176 416.538c-28.128 16.572-60.354 25.332-93.193 25.332s-65.065-8.76-93.193-25.332c-3.566-2.1-8.166-.914-10.269 2.655-2.103 3.568-.914 8.166 2.655 10.269 30.434 17.931 65.292 27.408 100.808 27.408s70.374-9.478 100.808-27.408c3.569-2.103 4.757-6.7 2.655-10.269-2.105-3.57-6.702-4.756-10.271-2.655z"/><path d="m437.178 320.188c.718.215 1.442.317 2.155.317 3.227 0 6.208-2.1 7.182-5.35 5.533-18.469 8.338-37.698 8.338-57.155 0-20.941-3.241-41.57-9.634-61.313-1.276-3.941-5.505-6.101-9.446-4.825-3.94 1.276-6.101 5.505-4.825 9.446 5.908 18.248 8.904 37.322 8.904 56.692 0 17.998-2.593 35.779-7.707 52.851-1.188 3.967 1.065 8.148 5.033 9.337z"/><path d="m162.79 99.462c28.128-16.572 60.354-25.332 93.193-25.332s65.065 8.76 93.193 25.332c3.508 2.083 8.154.946 10.269-2.654 2.103-3.569.914-8.167-2.655-10.27-30.434-17.931-65.292-27.408-100.807-27.408s-70.374 9.478-100.807 27.408c-3.569 2.103-4.757 6.7-2.655 10.27 2.103 3.568 6.7 4.757 10.269 2.654z"/></g></g></svg>