<svg id="Capa_1" enable-background="new 0 0 512 512" height="512" viewBox="0 0 512 512" width="512" xmlns="http://www.w3.org/2000/svg"><g><g><g><path d="m435.801 287.096c-15.172 84.965-89.435 149.461-178.761 149.461-38.538 0-74.265-12.015-103.66-32.489l-46.812 46.812c41.668 32.049 93.839 51.12 150.471 51.12 125.545 0 229.209-93.652 244.96-214.904z" fill="#ff7d97"/><path d="m289.175 76.199c74.534 13.309 133.317 72.092 146.626 146.626h66.199c-14.385-110.733-102.092-198.439-212.825-212.825z" fill="#ffda8f"/><path d="m107.933 358.621c-20.474-29.395-32.489-65.122-32.489-103.661 0-89.327 64.496-163.59 149.461-178.761v-66.199c-121.253 15.752-214.905 119.416-214.905 244.961 0 56.633 19.07 108.804 51.121 150.472z" fill="#a0e5a5"/></g><g><g><path id="XMLID_1165_" d="m338.639 216.508h-41.134c-26.355 0-47.72 21.365-47.72 47.72v32.618h136.575v-32.618c-.001-26.355-21.366-47.72-47.721-47.72z" fill="#ff7d97"/><path id="XMLID_1164_" d="m318.072 144.076c-17.061 0-30.892 13.831-30.892 30.892v10.648c0 17.061 13.831 30.892 30.892 30.892 17.061 0 30.892-13.831 30.892-30.892v-10.648c-.001-17.062-13.831-30.892-30.892-30.892z" fill="#ffd0c7"/></g><g><path id="XMLID_1169_" d="m175.44 216.508h41.134c26.355 0 47.72 21.365 47.72 47.72v32.618h-136.574v-32.618c0-26.355 21.365-47.72 47.72-47.72z" fill="#ffda8f"/><path id="XMLID_1168_" d="m196.007 144.076c17.061 0 30.892 13.831 30.892 30.892v10.648c0 17.061-13.831 30.892-30.892 30.892-17.061 0-30.892-13.831-30.892-30.892v-10.648c0-17.062 13.831-30.892 30.892-30.892z" fill="#f2b394"/></g><g><path id="XMLID_1117_" d="m277.606 251.542h-41.134c-26.355 0-47.72 21.365-47.72 47.72v32.618h136.575v-32.618c0-26.355-21.365-47.72-47.721-47.72z" fill="#a0e5a5"/><path id="XMLID_1108_" d="m257.039 179.11c-17.061 0-30.892 13.831-30.892 30.892v10.648c0 17.061 13.831 30.892 30.892 30.892 17.061 0 30.892-13.831 30.892-30.892v-10.648c0-17.061-13.831-30.892-30.892-30.892z" fill="#cc9081"/></g></g></g><g><path d="m502 277.096h-66.199c-4.845 0-8.993 3.473-9.844 8.242-6.987 39.126-27.65 74.894-58.186 100.714-30.889 26.12-70.214 40.505-110.731 40.505-35.247 0-69.115-10.614-97.945-30.695-3.974-2.767-9.361-2.289-12.787 1.135l-46.812 46.812c-2.035 2.035-3.094 4.848-2.908 7.72.187 2.871 1.601 5.523 3.882 7.278 45.243 34.798 99.384 53.193 156.57 53.193 62.816 0 123.29-22.904 170.28-64.494 46.578-41.225 76.622-97.735 84.597-159.122.371-2.853-.505-5.727-2.404-7.888s-4.636-3.4-7.513-3.4zm-87.936 155.433c-43.33 38.351-99.096 59.471-157.024 59.471-48.905 0-95.391-14.585-135.156-42.295l32.779-32.779c30.623 19.411 65.84 29.631 102.377 29.631 45.239 0 89.151-16.063 123.646-45.232 31.931-27.001 54.194-63.761 63.298-104.229h46.354c-9.379 52.211-36.186 99.953-76.274 135.433z"/><path d="m287.417 86.044c70.31 12.555 125.984 68.229 138.54 138.539.852 4.77 5 8.242 9.844 8.242h66.199c2.877 0 5.614-1.239 7.513-3.4s2.774-5.035 2.404-7.888c-14.991-115.397-106.056-206.462-221.454-221.454-2.85-.368-5.727.505-7.888 2.404-2.161 1.898-3.4 4.636-3.4 7.513v66.199c0 4.845 3.472 8.992 8.242 9.845zm11.758-64.385c97.278 17.427 173.74 93.889 191.166 191.166h-46.356c-16.152-71.869-72.94-128.656-144.809-144.81v-46.356z"/><path d="m116.139 352.905c-20.081-28.829-30.695-62.698-30.695-97.944 0-40.518 14.385-79.843 40.504-110.732 25.82-30.534 61.588-51.198 100.714-58.185 4.77-.853 8.242-5 8.242-9.845v-66.199c0-2.877-1.239-5.614-3.4-7.513s-5.035-2.773-7.888-2.404c-58.979 7.662-113.899 35.955-154.643 79.667-3.766 4.04-3.543 10.368.497 14.134 4.041 3.766 10.369 3.543 14.133-.497 34.963-37.51 81.237-62.707 131.302-71.722v46.352c-40.468 9.104-77.228 31.368-104.228 63.298-29.169 34.495-45.233 78.407-45.233 123.646 0 36.536 10.22 71.754 29.631 102.377l-32.779 32.779c-27.711-39.766-42.296-86.251-42.296-135.156 0-30.823 5.826-60.802 17.315-89.104 2.078-5.117-.387-10.95-5.504-13.027s-10.95.387-13.027 5.504c-12.464 30.703-18.784 63.213-18.784 96.627 0 57.186 18.395 111.326 53.195 156.568 1.754 2.281 4.406 3.695 7.278 3.882.217.015.433.021.648.021 2.643 0 5.189-1.048 7.071-2.929l46.812-46.812c3.425-3.424 3.903-8.811 1.135-12.786z"/><path d="m236.886 174.443c-.283-22.306-18.506-40.367-40.878-40.367-22.548 0-40.892 18.344-40.892 40.892v10.648c0 8.313 2.5 16.051 6.779 22.513-25.311 6.112-44.174 28.937-44.174 56.099v32.618c0 5.522 4.477 10 10 10h51.032v25.034c0 5.522 4.477 10 10 10h136.575c5.523 0 10-4.478 10-10v-25.034h51.032c5.523 0 10-4.478 10-10v-32.618c0-27.161-18.863-49.986-44.174-56.099 4.279-6.462 6.778-14.199 6.778-22.513v-10.648c0-22.548-18.344-40.892-40.892-40.892-22.372 0-40.596 18.061-40.879 40.367-5.953-3.387-12.828-5.333-20.153-5.333-7.326 0-14.201 1.946-20.154 5.333zm-61.771.525c0-11.52 9.372-20.892 20.892-20.892s20.892 9.372 20.892 20.892v10.648c0 11.52-9.372 20.892-20.892 20.892s-20.892-9.372-20.892-20.892zm-37.395 89.259c0-20.799 16.921-37.72 37.72-37.72h41.133c.877 6.085 3.098 11.74 6.353 16.655-21.338 5.153-38.081 22.186-42.814 43.683h-42.392zm177.607 57.653h-116.575v-22.617c0-20.799 16.921-37.721 37.72-37.721h41.134c20.799 0 37.72 16.922 37.72 37.721v22.617zm61.032-57.653v22.618h-42.392c-4.733-21.497-21.476-38.529-42.814-43.683 3.255-4.916 5.476-10.57 6.352-16.655h41.133c20.799.001 37.721 16.922 37.721 37.72zm-79.179-89.259c0-11.52 9.372-20.892 20.892-20.892s20.892 9.372 20.892 20.892v10.648c0 11.52-9.372 20.892-20.892 20.892s-20.892-9.372-20.892-20.892zm-19.249 35.034v10.648c0 11.52-9.372 20.892-20.892 20.892s-20.892-9.372-20.892-20.892v-10.648c0-11.52 9.372-20.892 20.892-20.892s20.892 9.372 20.892 20.892z"/><circle cx="48.72" cy="122.127" r="10"/></g></g></svg>