<svg id="Capa_1" enable-background="new 0 0 512 512" height="512" viewBox="0 0 512 512" width="512" xmlns="http://www.w3.org/2000/svg"><g><path d="m273.107 10h174.894v164.391h-174.894z" fill="#ffe6b4"/><path d="m10 453.136v-311.405h128v114.396h64v-192.127h148.816v192.127-19.229-62.507h151.184v278.745z" fill="#fff"/><g><path id="XMLID_1104_" d="m280.697 388.948h-49.394c-31.647 0-57.303 25.655-57.303 57.303v55.749h164v-55.75c0-31.647-25.656-57.302-57.303-57.302z" fill="#ff7d97"/><path id="XMLID_1103_" d="m256 301.971c-20.487 0-37.095 16.608-37.095 37.095v12.786c0 20.487 16.608 37.095 37.095 37.095 20.487 0 37.095-16.608 37.095-37.095v-12.786c0-20.487-16.608-37.095-37.095-37.095z" fill="#cc9081"/><path id="XMLID_1096_" d="m116.697 388.948h-49.394c-31.648 0-57.303 25.655-57.303 57.302v55.75h164v-55.75c0-31.647-25.656-57.302-57.303-57.302z" fill="#a0e5a5"/><path id="XMLID_1095_" d="m92 301.971c-20.487 0-37.095 16.608-37.095 37.095v12.786c0 20.487 16.608 37.095 37.095 37.095 20.487 0 37.095-16.608 37.095-37.095v-12.786c0-20.487-16.608-37.095-37.095-37.095z" fill="#ffd0c7"/><path id="XMLID_1092_" d="m395.303 388.948h49.394c31.647 0 57.303 25.655 57.303 57.303v55.749h-164v-55.75c0-31.647 25.655-57.302 57.303-57.302z" fill="#99ebfa"/><path id="XMLID_1091_" d="m420 301.971c20.487 0 37.095 16.608 37.095 37.095v12.786c0 20.487-16.608 37.095-37.095 37.095-20.487 0-37.095-16.608-37.095-37.095v-12.786c0-20.487 16.608-37.095 37.095-37.095z" fill="#f2b394"/></g><g><path d="m409.229 254.741v-16.694c0-5.522-4.477-10-10-10s-10 4.478-10 10v16.694c0 5.522 4.477 10 10 10s10-4.477 10-10z"/><path d="m399.229 125.515c5.523 0 10-4.478 10-10v-16.694c0-5.522-4.477-10-10-10s-10 4.478-10 10v16.693c0 5.523 4.478 10.001 10 10.001z"/><path d="m463.586 254.741v-16.694c0-5.522-4.477-10-10-10s-10 4.478-10 10v16.694c0 5.522 4.477 10 10 10s10-4.477 10-10z"/><path d="m502 164.392h-44v-154.392c0-5.522-4.477-10-10-10h-174.894c-5.523 0-10 4.478-10 10v44h-61.106c-5.523 0-10 4.478-10 10v55.502c0 5.522 4.477 10 10 10s10-4.478 10-10v-45.502h128.816v182.127c0 5.522 4.477 10 10 10s10-4.478 10-10v-71.735h131.184v214.038c-9.256-9.157-21.147-15.647-34.42-18.231 5.968-7.892 9.515-17.711 9.515-28.346v-12.786c0-25.969-21.127-47.096-47.095-47.096s-47.095 21.127-47.095 47.096v12.786c0 10.634 3.547 20.454 9.515 28.346-18.736 3.648-34.716 15.085-44.42 30.801-9.703-15.715-25.683-27.153-44.42-30.801 5.968-7.892 9.515-17.711 9.515-28.346v-12.786c0-25.969-21.127-47.096-47.095-47.096s-47.095 21.127-47.095 47.096v12.786c0 10.634 3.547 20.454 9.515 28.346-18.736 3.648-34.716 15.085-44.42 30.801-9.703-15.715-25.683-27.153-44.42-30.801 5.968-7.892 9.515-17.711 9.515-28.346v-12.786c0-25.969-21.127-47.096-47.095-47.096s-47.095 21.127-47.095 47.096v12.786c0 10.634 3.547 20.454 9.515 28.346-13.273 2.584-25.164 9.074-34.42 18.231v-246.699h108v104.396c0 5.522 4.477 10 10 10h64c5.523 0 10-4.478 10-10v-46.625c0-5.522-4.477-10-10-10s-10 4.478-10 10v36.625h-44v-104.396c0-5.522-4.477-10-10-10h-128c-5.523 0-10 4.478-10 10v360.269c0 5.522 4.477 10 10 10h492c5.523 0 10-4.478 10-10v-327.608c0-5.523-4.477-10-10-10zm-151.184-110.392h-67.709v-34h154.893v144.392h-77.184v-100.392c0-5.522-4.477-10-10-10zm42.089 285.066c0-14.94 12.155-27.096 27.095-27.096s27.095 12.155 27.095 27.096v12.786c0 14.94-12.155 27.095-27.095 27.095s-27.095-12.154-27.095-27.095zm-164 0c0-14.94 12.155-27.096 27.095-27.096s27.095 12.155 27.095 27.096v12.786c0 14.94-12.155 27.095-27.095 27.095s-27.095-12.154-27.095-27.095zm-164 0c0-14.94 12.155-27.096 27.095-27.096s27.095 12.155 27.095 27.096v12.786c0 14.94-12.155 27.095-27.095 27.095s-27.095-12.154-27.095-27.095zm-44.905 107.184c0-26.083 21.22-47.303 47.303-47.303h49.394c26.083 0 47.303 21.22 47.303 47.303v45.75h-144zm164 0c0-26.083 21.22-47.303 47.303-47.303h49.394c26.083 0 47.303 21.22 47.303 47.303v45.75h-144zm308 45.75h-144v-45.75c0-26.083 21.22-47.303 47.303-47.303h49.394c26.083 0 47.303 21.22 47.303 47.303v6.886z"/><path d="m254.408 144.023c5.523 0 10-4.478 10-10v-16.694c0-5.522-4.477-10-10-10s-10 4.478-10 10v16.694c0 5.523 4.477 10 10 10z"/><path d="m298.408 144.023c5.523 0 10-4.478 10-10v-16.694c0-5.522-4.477-10-10-10s-10 4.478-10 10v16.694c0 5.523 4.477 10 10 10z"/><path d="m244.408 216.038c0 5.522 4.477 10 10 10s10-4.478 10-10v-16.694c0-5.522-4.477-10-10-10s-10 4.478-10 10z"/><path d="m288.408 216.038c0 5.522 4.477 10 10 10s10-4.478 10-10v-16.694c0-5.522-4.477-10-10-10s-10 4.478-10 10z"/><path d="m42 199.344v13.129c0 5.522 4.477 10 10 10s10-4.478 10-10v-13.129c0-5.522-4.477-10-10-10s-10 4.477-10 10z"/><path d="m86 254.741v13.129c0 5.522 4.477 10 10 10s10-4.478 10-10v-13.129c0-5.522-4.477-10-10-10s-10 4.478-10 10z"/><circle cx="201.99" cy="164.502" r="10"/></g></g></svg>