<svg id="Capa_1" enable-background="new 0 0 512 512" height="512" viewBox="0 0 512 512" width="512" xmlns="http://www.w3.org/2000/svg"><g><g><path d="m493 448h-474c-4.971 0-9-4.029-9-9v-366c0-4.971 4.029-9 9-9h474c4.971 0 9 4.029 9 9v366c0 4.971-4.029 9-9 9z" fill="#fff"/></g><g><g><path d="m66.431 131.067-14.641 17.438c-1.683 2.004-2.605 4.537-2.605 7.153 0 6.144 4.981 11.124 11.124 11.124 6.935 0 12.557 5.622 12.557 12.557 0 2.917-.629 5.799-1.844 8.451l-9.175 20.019c-1.115 2.434-1.09 5.238.071 7.65l16.627 34.573 30.178 8.204v-15.967c0-9.068 7.351-16.42 16.42-16.42 3.422 0 6.758-1.069 9.543-3.058l52.645-37.599c2.365-1.689 3.769-4.417 3.769-7.324v-41.014c0-4.971-4.029-9-9-9h-108.776c-2.659 0-5.183 1.176-6.893 3.213z" fill="#ff7d97"/></g><g><path d="m150.793 262.303 16.699 25.483c.836 1.276 1.983 2.319 3.333 3.03l12.011 6.327c5.697 3.001 8.477 9.612 6.637 15.783l-6.725 22.549c-1.704 5.714-6.958 9.629-12.921 9.629-3.276 0-6.293 1.78-7.878 4.648l-19.377 35.073c-.736 1.332-1.122 2.83-1.122 4.352v6.975c0 5.932-6.94 9.15-11.468 5.317l-8.973-7.596c-1.736-1.47-2.851-3.542-3.122-5.801l-6.782-56.714c-.316-2.644-1.666-5.055-3.755-6.706l-11.063-8.745c-4.269-3.375-6.759-8.517-6.759-13.959v-25.92c0-9.827 7.966-17.793 17.793-17.793h35.944c3.034.001 5.865 1.53 7.528 4.068z" fill="#99ebfa"/></g><g><path d="m422.599 311.57c-3.243-.006-7.193-.05-10.067-.089-2.585-.035-5.142.534-7.469 1.659l-23.574 11.4c-5.75 2.78-9.402 8.604-9.402 14.991v9.475c0 9.197 7.455 16.652 16.652 16.652h22.478c4.471 0 8.754 1.798 11.886 4.989 6.448 6.572 17.006 6.663 23.567.205l11.175-11c7.005-6.896 6.545-18.327-.993-24.637l-23.611-19.763c-2.985-2.498-6.75-3.875-10.642-3.882z" fill="#99ebfa"/></g><g><path d="m258.598 235.013h-18.222c-11.523 0-20.864 9.341-20.864 20.864v25.313c0 11.523 9.341 20.864 20.864 20.864h18.337c3.716 0 7.049 2.283 8.392 5.748l6.232 16.081c1.346 3.472.414 7.415-2.344 9.917l-4.718 4.281c-3.372 3.06-3.928 8.156-1.294 11.871l20.098 28.344c3.822 5.39 11.957 4.961 15.19-.802l22.577-40.237c.755-1.345 1.151-2.862 1.151-4.404v-20.023c0-2.392.952-4.686 2.646-6.374l10.25-10.217c4.595-4.581 5.127-11.842 1.248-17.043l-19.329-25.916c-1.699-2.278-4.373-3.619-7.214-3.619h-27.223c-5.287 0-10.183-2.782-12.889-7.324-2.705-4.542-7.601-7.324-12.888-7.324z" fill="#ffda8f"/></g><g><path d="m304.89 235.013-25.48-45.707c-1.038-1.862-3.002-3.016-5.134-3.016h-17.986c-14.165 0-23.41-14.868-17.144-27.572l8.548-17.329c3.219-6.527 9.866-10.66 17.144-10.66h19.187c13.721 0 27.254-3.195 39.527-9.333 12.272-6.138 25.805-9.333 39.527-9.333h85.849c4.971 0 9 4.029 9 9v16.852c0 3.978-2.612 7.484-6.424 8.623l-4.882 1.459c-5.894 1.761-8.323 8.783-4.779 13.81l2.05 2.908c1.804 2.558 2.772 5.611 2.772 8.74v14.239c0 2.946-1.175 5.77-3.264 7.847l-26.672 26.516c-2.619 2.604-6.83 2.665-9.524.138l-17.369-16.291-19.106 10.911-5.012 9.797c-2.022 3.953-7.45 4.503-10.224 1.036l-4.753-5.942c-4.838-6.047-13.459-7.466-19.979-3.286-10.974 7.035-25.872 16.593-25.872 16.593z" fill="#a0e5a5"/></g></g><g><path d="m493 54h-192c-5.522 0-10 4.478-10 10s4.478 10 10 10h191v364h-472v-364h191c5.523 0 10-4.478 10-10s-4.477-10-10-10h-192c-10.477 0-19 8.523-19 19v366c0 10.477 8.523 19 19 19h474c10.477 0 19-8.523 19-19v-366c0-10.477-8.523-19-19-19z"/><path d="m125.141 235.85c5.538 0 10.847-1.701 15.355-4.92l52.644-37.6c4.983-3.559 7.958-9.339 7.958-15.462v-41.014c0-10.477-8.523-19-19-19h-108.774c-5.628 0-10.932 2.473-14.55 6.782l-14.642 17.438c-3.19 3.799-4.947 8.623-4.947 13.584 0 11.647 9.477 21.124 21.125 21.124 1.41 0 2.557 1.146 2.557 2.557 0 1.469-.323 2.95-.935 4.285l-9.175 20.018c-2.363 5.155-2.309 11.042.149 16.152l16.626 34.572c1.258 2.615 3.589 4.555 6.389 5.315l7.573 2.059c-2.515 4.178-3.965 9.067-3.965 14.289v25.92c0 8.554 3.849 16.501 10.558 21.804l11.09 8.794 6.782 56.714c.572 4.783 2.912 9.132 6.59 12.246l8.973 7.595c3.151 2.667 7.002 4.044 10.916 4.044 2.421 0 4.866-.526 7.183-1.602 6.063-2.812 9.83-8.709 9.83-15.393v-6.717l18.971-34.339c10.064-.26 19.021-7.079 21.909-16.763l6.725-22.55c3.197-10.716-1.665-22.276-11.559-27.488l-11.784-6.207-16.556-25.265c0-.001 0-.001 0-.001-3.524-5.376-9.464-8.586-15.892-8.586h-24.544v-5.967c0-3.539 2.88-6.418 6.42-6.418zm-54.009-24.301 8.979-19.592c1.828-3.986 2.754-8.231 2.754-12.618 0-12.438-10.119-22.557-22.557-22.557-.62 0-1.125-.504-1.125-1.124 0-.264.093-.521.263-.723l14.343-17.081h107.308v39.499l-52.225 37.3c-1.096.783-2.386 1.196-3.732 1.196-14.568 0-26.419 11.852-26.419 26.42v2.885l-13.146-3.573zm87.995 81.719c1.761 2.687 4.195 4.898 7.037 6.396l12.011 6.327c1.468.772 2.188 2.487 1.714 4.076l-6.725 22.55c-.437 1.465-1.81 2.487-3.338 2.487-6.915 0-13.287 3.76-16.63 9.812l-19.376 35.071c-1.551 2.806-2.371 6.418-2.371 9.624l-3.68-3.115-6.735-56.324c-.635-5.306-3.293-10.052-7.483-13.362l-11.063-8.746c-1.881-1.486-2.96-3.715-2.96-6.113v-25.92c0-4.297 3.496-7.793 7.793-7.793h35.403z"/><path d="m463.27 327.547-23.61-19.763c-4.776-3.998-10.829-6.204-17.045-6.214-3.204-.006-7.106-.051-9.946-.089-4.112-.052-8.248.862-11.958 2.655l-23.574 11.4c-9.142 4.422-15.049 13.84-15.049 23.994v9.475c0 14.695 11.956 26.651 26.652 26.651h22.478c1.774 0 3.505.727 4.748 1.993 4.991 5.087 11.665 7.922 18.792 7.984.079.001.159.001.238.001 7.038 0 13.667-2.714 18.689-7.657l11.176-11c5.344-5.261 8.234-12.575 7.933-20.067-.303-7.492-3.773-14.55-9.524-19.363zm-12.44 25.178-11.175 11c-1.269 1.247-2.991 1.932-4.725 1.911-1.779-.016-3.444-.724-4.689-1.992-4.979-5.075-11.913-7.986-19.024-7.986h-22.478c-3.668 0-6.652-2.983-6.652-6.651v-9.475c0-2.534 1.475-4.885 3.756-5.988l23.573-11.4c.899-.435 1.897-.664 2.893-.664.029 0 .059.001.088.001 2.907.04 6.904.085 10.185.091h.004c1.54.002 3.045.553 4.237 1.55l23.61 19.763c1.965 1.645 2.333 3.734 2.377 4.834.044 1.096-.155 3.209-1.98 5.006z"/><path d="m256.29 196.29h15.564l24.177 43.37h-11.655c-1.754 0-3.401-.937-4.299-2.441-4.485-7.529-12.716-12.206-21.479-12.206h-18.223c-17.019 0-30.864 13.846-30.864 30.864v25.313c0 17.019 13.846 30.864 30.864 30.864h17.652l5.736 14.802-4.21 3.819c-7.11 6.454-8.285 17.228-2.73 25.061l20.099 28.344c3.592 5.065 9.319 8.011 15.478 8.011.339 0 .68-.009 1.021-.027 6.542-.345 12.362-3.962 15.569-9.676l22.576-40.235c1.591-2.834 2.432-6.05 2.432-9.3v-19.608l9.954-9.923c8.064-8.037 9.013-20.979 2.206-30.104l-19.33-25.918c-2.776-3.721-6.84-6.268-11.317-7.219l20.646-13.241c2.218-1.423 5.129-.941 6.773 1.115l4.754 5.94c3.432 4.29 8.739 6.534 14.211 5.967 5.466-.553 10.223-3.804 12.725-8.694l3.655-7.146 10.106-5.771 11.982 11.239c6.658 6.243 16.945 6.093 23.414-.342l26.673-26.517c3.948-3.926 6.213-9.37 6.213-14.938v-14.239c0-5.221-1.591-10.236-4.599-14.501l-1.25-1.773 3.55-1.061c7.984-2.386 13.561-9.872 13.561-18.205v-16.853c0-10.477-8.523-19-19-19h-85.849c-15.195 0-30.41 3.593-44.001 10.39-10.825 5.414-22.946 8.276-35.053 8.276h-19.187c-11.167 0-21.173 6.222-26.112 16.236l-8.547 17.329c-4.482 9.088-3.964 19.649 1.386 28.255 5.353 8.606 14.596 13.743 24.728 13.743zm73.837 88.885c.9 1.206.774 2.918-.292 3.98l-10.251 10.219c-3.55 3.539-5.585 8.443-5.585 13.455v19.762l-21.676 38.632-18.672-26.331 4.062-3.686c5.779-5.246 7.768-13.659 4.947-20.936l-6.231-16.081c-2.812-7.258-9.933-12.135-17.717-12.135h-18.337c-5.991 0-10.864-4.874-10.864-10.864v-25.313c0-5.99 4.874-10.864 10.864-10.864h18.223c1.753 0 3.4.936 4.299 2.444 4.487 7.527 12.718 12.203 21.479 12.203h26.722zm-82.012-122.033 8.548-17.33c1.546-3.135 4.679-5.083 8.175-5.083h19.187c15.195 0 30.41-3.593 43.999-10.389 10.827-5.415 22.949-8.277 35.055-8.277h84.849v15.107l-4.168 1.246c-5.844 1.745-10.522 6.229-12.517 11.991-1.994 5.764-1.086 12.18 2.427 17.16l2.052 2.911c.617.876.944 1.905.944 2.977v14.239c0 .285-.112.554-.313.755l-24.52 24.375-15.154-14.214c-3.199-3.002-7.986-3.567-11.8-1.39l-19.106 10.911c-1.688.964-3.059 2.398-3.943 4.129l-2.277 4.451-1.002-1.253c-8.058-10.073-22.323-12.42-33.185-5.458l-16.919 10.852-20.302-36.418c-2.802-5.023-8.115-8.145-13.867-8.145h-17.988c-4.572 0-6.937-3.009-7.741-4.302s-2.457-4.745-.434-8.845z"/><circle cx="256" cy="64.004" r="10"/></g></g></svg>