<svg id="Capa_1" enable-background="new 0 0 512 512" height="512" viewBox="0 0 512 512" width="512" xmlns="http://www.w3.org/2000/svg"><g><g><path d="m219.273 384.202v-75.57c0-18.056-12.703-33.621-30.394-37.239l-51.496-10.531h-45.493l-51.496 10.531c-17.691 3.619-30.394 19.183-30.394 37.239v75.57z" fill="#fff"/><g fill="#f2b394"><path d="m114.637 127.202c-26.155 0-47.358 21.203-47.358 47.358v22.916c0 26.155 21.203 47.358 47.358 47.358 26.155 0 47.358-21.203 47.358-47.358v-22.916c0-26.155-21.203-47.358-47.358-47.358z"/><path d="m114.636 285.212c-12.15 0-22-9.85-22-22v-22h44v22c0 12.15-9.849 22-22 22z"/></g></g><g><path id="XMLID_867_" d="m454.481 82.425h-40.961c-26.245 0-47.52 21.275-47.52 47.519v7.192h136v-7.192c0-26.244-21.275-47.519-47.519-47.519z" fill="#a0e5a5"/><path id="XMLID_866_" d="m434 10.298c-16.989 0-30.762 13.773-30.762 30.762v10.603c0 16.989 13.773 30.762 30.762 30.762 16.989 0 30.762-13.773 30.762-30.762v-10.603c0-16.99-13.773-30.762-30.762-30.762z" fill="#ffd0c7"/></g><g><path id="XMLID_946_" d="m454.481 264.708h-40.961c-26.244 0-47.519 21.275-47.519 47.519v7.192h136v-7.192c-.001-26.244-21.276-47.519-47.52-47.519z" fill="#ffda8f"/><path id="XMLID_870_" d="m434 192.581c-16.989 0-30.762 13.773-30.762 30.762v10.603c0 16.989 13.773 30.762 30.762 30.762 16.989 0 30.762-13.773 30.762-30.762v-10.603c0-16.99-13.773-30.762-30.762-30.762z" fill="#f2b394"/></g><g><path id="XMLID_954_" d="m454.481 446.991h-40.961c-26.244 0-47.519 21.275-47.519 47.519v7.192h136v-7.192c-.001-26.244-21.276-47.519-47.52-47.519z" fill="#66e0f7"/><path id="XMLID_953_" d="m434 374.864c-16.989 0-30.762 13.773-30.762 30.762v10.603c0 16.989 13.773 30.762 30.762 30.762 16.989 0 30.762-13.773 30.762-30.762v-10.603c0-16.989-13.773-30.762-30.762-30.762z" fill="#ffd0c7"/></g><g><path d="m190.883 261.596-44.246-9.049v-7.493c15.286-10.314 25.357-27.792 25.357-47.579v-22.916c0-31.627-25.73-57.358-57.357-57.358-31.628 0-57.358 25.731-57.358 57.358v22.916c0 19.787 10.072 37.265 25.358 47.579v7.492l-44.247 9.049c-22.244 4.551-38.39 24.332-38.39 47.037v75.57c0 5.523 4.478 10 10 10h59.637c5.522 0 10-4.477 10-10s-4.478-10-10-10h-49.637v-65.57c0-13.247 9.42-24.787 22.397-27.441l41.667-8.521c4.043 13.042 16.219 22.542 30.572 22.542s26.529-9.5 30.572-22.542l41.666 8.521c12.979 2.654 22.398 14.195 22.398 27.441v65.57h-49.637c-5.522 0-10 4.477-10 10s4.478 10 10 10h59.637c5.522 0 10-4.477 10-10v-75.57c.001-22.704-16.144-42.486-38.389-47.036zm-113.605-87.035c0-20.6 16.759-37.358 37.358-37.358s37.357 16.759 37.357 37.358v22.916c0 20.599-16.759 37.358-37.357 37.358-20.6 0-37.358-16.759-37.358-37.358zm37.359 100.651c-6.617 0-12-5.383-12-12v-9.651c3.872.828 7.884 1.273 12 1.273 4.115 0 8.128-.445 12-1.273v9.651c0 6.617-5.383 12-12 12z"/><path d="m468.037 74.053c4.245-6.431 6.724-14.125 6.724-22.39v-10.603c0-22.476-18.285-40.762-40.762-40.762s-40.762 18.286-40.762 40.762v10.604c0 8.265 2.48 15.959 6.724 22.39-25.192 6.112-43.961 28.844-43.961 55.89v7.191c0 5.523 4.478 10 10 10h136c5.522 0 10-4.477 10-10v-7.191c0-27.046-18.769-49.778-43.963-55.891zm-54.799-32.993c0-11.448 9.313-20.762 20.762-20.762s20.762 9.313 20.762 20.762v10.604c0 11.448-9.313 20.762-20.762 20.762s-20.762-9.313-20.762-20.762zm-37.134 86.076c1.44-19.382 17.671-34.711 37.415-34.711h40.961c19.744 0 35.975 15.329 37.415 34.711z"/><path d="m468.037 256.337c4.245-6.431 6.724-14.125 6.724-22.39v-10.604c0-22.476-18.285-40.762-40.762-40.762s-40.762 18.286-40.762 40.762v10.604c0 8.265 2.48 15.959 6.724 22.39-25.192 6.112-43.961 28.844-43.961 55.891v7.191c0 5.523 4.478 10 10 10h136c5.522 0 10-4.477 10-10v-7.191c0-27.047-18.769-49.779-43.963-55.891zm-54.799-32.994c0-11.448 9.313-20.762 20.762-20.762s20.762 9.313 20.762 20.762v10.604c0 11.448-9.313 20.762-20.762 20.762s-20.762-9.313-20.762-20.762zm-37.134 86.076c1.44-19.382 17.671-34.711 37.415-34.711h40.961c19.744 0 35.975 15.329 37.415 34.711z"/><path d="m468.037 438.62c4.245-6.431 6.724-14.125 6.724-22.39v-10.604c0-22.476-18.285-40.762-40.762-40.762s-40.762 18.286-40.762 40.762v10.604c0 8.265 2.48 15.959 6.724 22.39-25.192 6.112-43.961 28.844-43.961 55.891v7.191c0 5.523 4.478 10 10 10h136c5.522 0 10-4.477 10-10v-7.191c0-27.047-18.769-49.779-43.963-55.891zm-54.799-32.994c0-11.448 9.313-20.762 20.762-20.762s20.762 9.313 20.762 20.762v10.604c0 11.448-9.313 20.762-20.762 20.762s-20.762-9.313-20.762-20.762zm-37.134 86.076c1.44-19.382 17.671-34.711 37.415-34.711h40.961c19.744 0 35.975 15.329 37.415 34.711z"/><path d="m328.313 69.741c5.522 0 10-4.477 10-10s-4.478-10-10-10h-48.146c-5.522 0-10 4.477-10 10v185.961h-22.661c-5.522 0-10 4.477-10 10s4.478 10 10 10h22.661v185.961c0 5.523 4.478 10 10 10h48.146c5.522 0 10-4.477 10-10s-4.478-10-10-10h-38.146v-175.961h38.146c5.522 0 10-4.477 10-10s-4.478-10-10-10h-38.146v-175.961z"/><circle cx="114.64" cy="384.202" r="10"/></g></g></svg>