<svg id="Capa_1" enable-background="new 0 0 511.98 511.98" height="512" viewBox="0 0 511.98 511.98" width="512" xmlns="http://www.w3.org/2000/svg"><g><g><g><path d="m433.221 442.569 44.167-5.501 25.101-55.822c3.907-8.689 2.036-18.889-4.701-25.626l-3.484-3.484c-2.939-2.939-6.622-5.025-10.655-6.033l-15.33-3.833c-8.902-2.226-15.621-9.543-17.081-18.602l-.123-.764c-1.596-9.9-9.438-17.616-19.362-19.051-9.112-1.318-16.553-7.956-18.898-16.859l-4.252-16.144c-1.034-3.926-3.091-7.506-5.962-10.377l-18.278-18.278-31.855-31.855-59.246 16.519-16.513 59.239z" fill="#f6e266"/><path d="m287.576 247.266 189.81 189.81-44.167 5.491-156.47-156.471z" fill="#ffd064"/><path d="m139.79 244.526c24.587 24.587 57.12 36.374 89.345 35.377l13.495 13.495c7.404 7.404 19.404 7.411 26.808.007l90.378-90.378c7.404-7.404 7.397-19.404-.007-26.808l-13.495-13.495c.99-31.983-10.629-64.289-34.857-88.81-46.483-47.055-123.029-47.847-170.442-1.737-48.477 47.158-48.888 124.686-1.225 172.349zm28.201-91.433c-14.896-14.896-14.903-39.05-.007-53.946s39.057-14.896 53.953 0 14.888 39.05-.007 53.946c-14.896 14.895-39.043 14.895-53.939 0z" fill="#f6e266"/><g><path d="m264.253 271.779-13.495-13.495c-32.225.997-64.758-10.791-89.345-35.377-43.589-43.589-46.963-112.15-10.145-159.622-3.541 2.742-6.967 5.701-10.249 8.892-48.477 47.157-48.887 124.685-1.224 172.348 24.587 24.587 57.12 36.374 89.345 35.377l13.495 13.495c7.404 7.404 19.404 7.411 26.808.007l21.619-21.619c-7.405 7.405-19.405 7.398-26.809-.006z" fill="#ffd064"/></g></g><g><path d="m112.019 199.721c-24.031 0-43.51 19.48-43.51 43.5 0 24.031 19.479 43.51 43.51 43.51s43.51-19.479 43.51-43.51c0-24.02-19.479-43.5-43.51-43.5zm0 60.367c-9.31 0-16.857-7.547-16.857-16.867 0-9.309 7.547-16.857 16.857-16.857s16.857 7.547 16.857 16.857c0 9.32-7.547 16.867-16.857 16.867z" fill="#dd636e"/><g><path d="m182.253 329.769v126.831c0 9.553-7.745 17.298-17.298 17.298h-105.872c-9.553 0-17.298-7.745-17.298-17.298v-126.83l65.543-26.803 4.691-1.919 4.691 1.919z" fill="#f9f6f9"/><path d="m182.253 329.769v47.571l-70.234-28.711-70.234 28.711v-47.571l65.543-26.803c3.095-.684 6.287-.684 9.382 0z" fill="#dddaec"/><path d="m192.15 357.791-80.132-32.759-80.132 32.759c-6.232 2.548-13.35-.439-15.898-6.671l-7.572-18.522c-2.548-6.232.439-13.35 6.671-15.898l88.531-36.193c5.383-2.201 11.416-2.201 16.799 0l88.531 36.193c6.232 2.548 9.219 9.666 6.671 15.898l-7.572 18.522c-2.547 6.232-9.665 9.219-15.897 6.671z" fill="#dd636e"/><path d="m77.245 371.922h69.548v63.937h-69.548z" fill="#b1e4f9"/></g></g></g><g><path d="m503.091 350.311-3.48-3.48c-3.892-3.892-8.781-6.659-14.141-8.002l-15.334-3.841c-2.493-.623-4.809-1.875-6.698-3.621-3.042-2.812-7.787-2.625-10.598.417-2.812 3.042-2.625 7.787.417 10.598 3.734 3.451 8.313 5.926 13.238 7.157l15.33 3.84c2.725.683 5.207 2.086 7.179 4.058l3.48 3.48c4.507 4.507 5.778 11.439 3.163 17.251l-20.643 45.909-162.816-162.816 40.319-40.319 44.828 44.836c1.932 1.932 3.318 4.342 4.011 6.979l4.259 16.145c1.525 5.8 4.697 10.974 9.165 14.955 4.471 3.996 9.971 6.562 15.903 7.42 3.289.477 6.276 1.959 8.64 4.29 2.95 2.907 7.699 2.873 10.606-.077 2.908-2.95 2.873-7.699-.077-10.606-4.658-4.591-10.543-7.513-17.02-8.451-3.006-.435-5.792-1.735-8.066-3.767-2.267-2.02-3.873-4.64-4.647-7.583l-4.258-16.143c-1.365-5.198-4.101-9.958-7.911-13.767l-44.827-44.836 2.007-2.007c4.997-4.997 7.747-11.64 7.746-18.707-.002-7.066-2.756-13.71-7.756-18.71l-11.235-11.235c.217-34.323-12.878-66.539-37.082-91.032-49.412-50.03-130.611-50.859-181.006-1.846-8.475 8.246-15.62 17.508-21.4 27.452-7.259 3.065-13.795 7.454-19.45 13.098l-27.265 27.265c-23.496 23.496-23.84 61.488-1.069 85.431-3.568 6.96-5.596 14.835-5.596 23.179 0 15.476 6.847 29.638 18.25 39.139l-67.007 27.394c-4.869 1.99-8.671 5.757-10.706 10.607s-2.06 10.202-.07 15.071l7.572 18.521c3.115 7.619 10.488 12.24 18.251 12.239 2.33 0 4.693-.434 6.989-1.31v40.727c0 4.142 3.358 7.5 7.5 7.5s7.5-3.358 7.5-7.5v-46.833l62.731-25.646 62.729 25.645v97.835c0 5.398-4.392 9.79-9.79 9.79h-105.879c-5.398 0-9.79-4.392-9.79-9.79v-21c0-4.142-3.358-7.5-7.5-7.5s-7.5 3.358-7.5 7.5v21c0 13.669 11.121 24.79 24.79 24.79h105.88c13.669 0 24.79-11.121 24.79-24.79v-91.728c9.946 3.798 21.192-1.022 25.242-10.928l7.572-18.522c1.99-4.869 1.966-10.221-.069-15.07-2.035-4.85-5.837-8.618-10.706-10.608l-67.008-27.394c4.935-4.112 9.015-9.096 12.056-14.684 20.587 12.963 44.727 19.888 69.252 19.781l11.238 11.238c5 5 11.644 7.754 18.71 7.755h.007c7.063 0 13.705-2.75 18.7-7.746l2.007-2.007 151.166 151.167c1.415 1.415 3.327 2.197 5.303 2.197.308 0 .618-.019.927-.058l44.17-5.5c2.598-.323 4.84-1.979 5.914-4.367l25.099-55.818c5.155-11.458 2.649-25.125-6.236-34.011zm-424.812-205.089 24.444-24.444c-7.23 23.255-7.876 48.453-1.216 72.542-10.047 2.113-19.009 7.192-25.936 14.274-15.245-18.134-14.35-45.314 2.708-62.372zm130.382 180.948c.484 1.155.49 2.431.016 3.59l-7.572 18.521c-.979 2.395-3.725 3.545-6.117 2.567l-80.131-32.759c-.91-.372-1.874-.558-2.838-.558s-1.929.186-2.838.558l-80.132 32.759c-2.393.979-5.139-.172-6.117-2.567l-7.572-18.521c-.979-2.395.173-5.139 2.567-6.118l88.531-36.193c3.586-1.466 7.537-1.466 11.123 0l88.531 36.193c1.159.475 2.064 1.372 2.549 2.528zm-80.667-50.668-4.738-1.937c-7.246-2.962-15.229-2.962-22.475 0l-4.74 1.938c-12.26-6.046-20.034-18.417-20.034-32.277 0-19.851 16.154-36 36.01-36 9.301 0 17.789 3.544 24.186 9.351-3.512 2.299-7.309 4.115-11.381 5.393-.048.015-.102.033-.156.051-.019.005-.037.011-.056.017-.136.042-.261.073-.394.113-3.59-2.086-7.754-3.287-12.196-3.287-13.431 0-24.357 10.926-24.357 24.357 0 13.436 10.926 24.367 24.357 24.367 13.43 0 24.356-10.931 24.356-24.367 0-3.15-.608-6.159-1.701-8.925 3.621-1.516 7.063-3.361 10.307-5.537 1.953 4.431 3.046 9.323 3.046 14.468 0 13.858-7.775 26.229-20.034 32.275zm-6.618-32.281c0 5.165-4.197 9.367-9.356 9.367s-9.357-4.202-9.357-9.367c0-1.654.435-3.206 1.192-4.556 2.348.275 4.718.43 7.094.43 3.052 0 6.095-.249 9.075-.697.851 1.411 1.352 3.058 1.352 4.823zm134.665 48.233c-.001 0-.002 0-.003 0-3.061 0-5.94-1.194-8.107-3.362l-13.49-13.49c-1.463-1.463-3.463-2.257-5.535-2.193-23.736.738-47.285-6.065-66.849-19.213.636-3.237.971-6.572.971-9.97 0-8.892-2.293-17.256-6.311-24.542l24.771-24.771c6.314-6.305 11.148-13.884 14.184-22.168 11.925-.181 23.111-4.899 31.563-13.351 8.621-8.621 13.369-20.083 13.369-32.274s-4.748-23.653-13.369-32.274-20.083-13.369-32.274-13.369-23.654 4.748-32.274 13.369c-17.796 17.796-17.796 46.752 0 64.548 5.071 5.071 11.129 8.789 17.736 11.002-2.286 5.146-5.498 9.874-9.537 13.907l-23.359 23.358c-8.094-7.859-18.774-13.066-30.63-14.197-12.485-40.53-1.243-85.144 29.351-114.912 44.509-43.29 116.229-42.556 159.876 1.635 22.058 22.322 33.67 51.907 32.698 83.307-.064 2.068.73 4.072 2.193 5.535l13.49 13.49c4.47 4.47 4.475 11.739.01 16.204l-90.38 90.38c-2.163 2.161-5.037 3.351-8.094 3.351zm-74.551-184.102c-1.824-1.823-3.754-3.515-5.77-5.082 5.433-4.399 12.151-6.794 19.24-6.794 8.185 0 15.88 3.188 21.668 8.975s8.975 13.483 8.975 21.667c0 8.185-3.188 15.88-8.975 21.668-4.795 4.795-10.901 7.798-17.508 8.69 1.692-17.992-4.674-36.168-17.63-49.124zm-14.786 6.927c1.453 1.142 2.858 2.358 4.181 3.68 9.722 9.722 14.508 23.342 13.308 36.858-4.044-1.515-7.755-3.885-10.9-7.03-9.044-9.044-11.237-22.378-6.589-33.508zm120.651 171.816 14.227-14.227 159.65 159.651-25.303 3.151z"/><path d="m146.793 443.359c4.142 0 7.5-3.358 7.5-7.5v-63.937c0-4.142-3.358-7.5-7.5-7.5h-69.548c-4.142 0-7.5 3.358-7.5 7.5v63.937c0 4.142 3.358 7.5 7.5 7.5zm-62.048-63.936h54.548v48.937h-54.548z"/></g></g></svg>