<svg id="Layer_1" enable-background="new 0 0 512.191 512.191" height="512" viewBox="0 0 512.191 512.191" width="512" xmlns="http://www.w3.org/2000/svg"><g><g><g><g><g><g><path d="m430.801 415.765-199.397-.127c-10.174-.007-18.31-8.321-18.173-18.57l2.22-165.026 119.154-77.36 117.085 77.511-2.22 165.026c-.137 10.249-8.495 18.553-18.669 18.546z" fill="#ecf4fa"/><path d="m410.968 205.234-1.497 191.984c-.135 10.079-8.224 18.258-18.167 18.522l39.499.025c10.174.006 18.532-8.297 18.669-18.547l2.22-165.026z" fill="#e4eff7"/><path d="m192.831 266.518c-6.024-.004-11.887-2.98-15.345-8.448-5.434-8.594-2.865-20.089 5.736-25.674l141.544-93.283c6.161-4 14.038-3.996 20.094.013l139.048 93.462c8.452 5.596 10.714 17.094 5.05 25.681-5.665 8.588-17.109 11.012-25.56 5.417l-129.088-86.869-131.409 86.703c-3.129 2.031-6.626 3.001-10.07 2.998z" fill="#ff7ebc"/></g></g><ellipse cx="333.793" cy="242.296" fill="#fff" rx="24.016" ry="23.76" transform="matrix(.235 -.972 .972 .235 19.761 509.708)"/></g><g><g><g><g><path d="m282.798 150.768-98.788-52.061c-18.311-9.65-40.861-2.45-50.463 16.114l-35.397 68.427c-4.721 9.126-5.572 19.79-2.357 29.536l20.88 63.3-19.826 38.327c-1.205 2.33-1.383 5.069-.489 7.538l3.872 10.695c1.865 5.151-1.045 10.817-6.27 12.209l-11.013 2.934c-2.487.663-4.585 2.358-5.781 4.671l-6.964 13.463c-1.205 2.33-1.383 5.069-.489 7.539l3.872 10.695c1.865 5.151-1.045 10.817-6.27 12.209l-11.013 2.934c-2.487.663-4.585 2.358-5.781 4.671l-6.964 13.463c-1.205 2.33-1.383 5.069-.489 7.539l3.872 10.695c1.865 5.151-1.045 10.817-6.27 12.209l-11.013 2.934c-2.487.663-4.585 2.358-5.781 4.67l-2.9 5.606c-1.279 2.472-1.397 5.396-.322 7.965l12.548 29.997c1.709 4.086 6.024 6.372 10.3 5.457l31.655-6.774c2.668-.571 4.947-2.322 6.217-4.775l95.715-185.032 63.394-18.887c9.76-2.908 17.943-9.708 22.664-18.834l35.397-68.428c9.57-18.506 2.507-41.386-15.746-51.006zm-92.176 56.774c-15.328-8.132-21.262-27.356-13.254-42.939s26.925-21.624 42.253-13.492 21.262 27.356 13.254 42.939-26.925 21.624-42.253 13.492z" fill="#ffeb66"/></g></g></g><g><path d="m282.798 150.768-22.121-11.658c14.005 10.966 18.676 30.9 10.154 47.374l-35.397 68.428c-4.721 9.126-12.904 15.926-22.664 18.834l-63.394 18.887-95.714 185.032c-1.269 2.453-3.548 4.204-6.217 4.775l-19.45 4.162 5.205 12.444c1.709 4.086 6.024 6.372 10.3 5.457l31.655-6.774c2.668-.571 4.947-2.322 6.217-4.775l95.715-185.032 63.394-18.887c9.76-2.908 17.943-9.708 22.664-18.834l35.397-68.428c9.572-18.505 2.509-41.385-15.744-51.005z" fill="#ffe017"/></g></g></g><path d="m298.866 330.204h67.188v85.561h-67.188z" fill="#ff7ebc"/></g><g><path d="m488.092 226.363-68.106-45.778c32.927-67.032-1.418-150.267-72.012-173.726-65.658-24.07-143.07 17.789-160.477 85.206-21.746-11.455-49.412-2.343-60.61 19.308l-3.436 6.642c-4.455 8.613 8.867 15.506 13.322 6.893l3.436-6.642c8.52-16.47 28.809-20.522 44.008-10.974-1.961 12.964-1.872 26.047.162 38.794-25.091 15.585-23.49 54.619 2.729 68.081 9.051 4.804 19.745 5.78 29.485 2.725 45.271-14.905 29.479-83.027-17.866-76.348-1.107-8.505-1.232-17.156-.342-25.784 0 0 80.917 42.644 80.917 42.644 14.494 7.639 20.111 26.364 12.579 40.924 0 0-35.396 68.428-35.396 68.428-3.765 7.277-10.378 12.778-18.145 15.093-21.132 6.296-42.263 12.592-63.395 18.888-1.952.581-3.584 1.933-4.52 3.741-1.088.829-94.984 186.07-96.837 185.917-.003.002-31.657 6.776-31.657 6.776-.745.157-1.494-.258-1.812-1.019l-12.547-29.997c-.677-1.611 2.373-7.662 4.015-8.1 20.351-4.059 27.131-16.499 18.533-35.639-.717-1.973 6.105-15.336 8.112-15.871 20.351-4.057 27.131-16.499 18.533-35.638-.715-1.977 6.102-15.336 8.112-15.873 20.313-3.986 27.134-16.596 18.532-35.639-.183-.505-.147-1.064.098-1.538l19.826-38.327c.927-1.792 1.093-3.881.461-5.796l-20.879-63.299c-2.569-7.792-1.879-16.445 1.896-23.741l13.633-26.356c4.456-8.612-8.868-15.506-13.322-6.891l-13.633 26.354c-5.616 10.856-6.644 23.734-2.818 35.332l19.892 60.305-18.377 35.526c-2.162 4.178-2.482 9.112-.879 13.537l3.871 10.694c.302 1.154-.081 1.957-1.148 2.409l-11.014 2.935c-10.893 2.904-22.189 24.879-18.354 35.472l3.871 10.694c.302 1.154-.081 1.958-1.148 2.41l-11.012 2.935c-10.896 2.901-22.191 24.878-18.356 35.471l3.871 10.694c.302 1.155-.081 1.958-1.148 2.41l-11.012 2.935c-10.385 2.765-18.07 18.637-13.992 28.384l12.547 29.995c3.051 7.298 11.08 11.546 18.789 9.898l31.652-6.774c4.879-1.042 9.001-4.199 11.311-8.662l94.25-182.201 23.449-7.348v90.116c-.188 14.052 11.538 26.16 25.667 26.17 0 0 199.396.127 199.396.127 14.238.01 25.982-11.63 26.174-25.946v-24.234c.13-9.694-14.87-9.903-14.998-.201v24.234c-.083 6.148-5.087 11.147-11.159 11.147.003.002-57.258-.038-57.259-.036v-78.025c0-4.143-3.357-7.5-7.5-7.5h-67.188c-4.143 0-7.5 3.357-7.5 7.5v77.973l-59.957-.038c-6.058-.004-10.754-5.285-10.679-10.97v-94.804s21.893-6.143 21.893-6.143c23.959-7.097 29.154-27.766 39.926-47.208 7.034 1.438 14.165 2.261 21.312 2.458 7.55 24.992 41.588 30.399 55.943 8.217 9.56-14.459 5.701-34.031-8.602-43.63-18.238-12.658-44.183-1.224-48.113 20.385-4.465-.172-8.921-.621-13.342-1.344l15.457-29.881s22.119-14.808 29.065-19.391l108.53 73.723v76.028c-.127 9.414 14.039 10.087 14.171.201v-66.226c11.904 8.243 30.285 4.917 38.249-7.157 7.927-12.018 4.711-28.197-7.128-36.034zm-282.931-71.373c20.671 0 30.951 26.104 17.295 40.987-9.625-11.891-16.799-25.95-20.797-40.719 1.167-.089 2.335-.179 3.502-.268zm3.968 48.309c-22.785 3.98-36.943-24.476-21.043-40.965 4.384 14.672 11.451 28.582 21.043 40.965zm97.237 134.405h52.188v70.516l-52.188-.033zm40.925-86.287c-6.351 10.027-21.421 9.533-27.435-.532 10.24-1.036 20.363-3.336 30.102-6.88-.278 2.568-1.146 5.112-2.667 7.412zm-16.542-25.31c4.951-1.087 10.161.462 13.915 3.854-8.359 3.028-17.037 5.005-25.817 5.934.395-.933 1.779-7.566 11.902-9.788zm-36.011-76.186c-1.557-3.49-88.786-47.624-93.628-50.681 13.834-60.911 83.089-99.844 142.029-78.18 61.353 20.454 91.77 92.151 64.238 151.05l-58.375-39.237c-8.539-5.655-19.656-5.674-28.361-.022zm187.959 104.219c-3.12 4.73-10.049 6.677-15.111 3.323l-129.089-86.869c-2.512-1.69-5.791-1.704-8.318-.037l-19.877 13.115c-.103-7.767-2.191-15.382-6.008-22.084l24.557-16.183c3.651-2.372 8.31-2.383 11.826-.054l139.091 93.491c4.997 3.307 6.311 10.17 2.929 15.298z"/><path d="m61.088 471.373c3.475 1.805 8.299.29 10.11-3.204l77.92-150.214c1.907-3.677.473-8.203-3.204-10.11-3.673-1.908-8.204-.474-10.11 3.204l-77.92 150.214c-1.907 3.676-.473 8.203 3.204 10.11z"/></g></g></svg>