<?xml version="1.0" encoding="iso-8859-1"?>
<!-- Generator: Adobe Illustrator 19.0.0, SVG Export Plug-In . SVG Version: 6.00 Build 0)  -->
<svg version="1.1" id="Capa_1" xmlns="http://www.w3.org/2000/svg" xmlns:xlink="http://www.w3.org/1999/xlink" x="0px" y="0px"
	 viewBox="0 0 512.001 512.001" style="enable-background:new 0 0 512.001 512.001;" xml:space="preserve">
<path style="fill:#61AFF6;" d="M121.118,247.384H61.853c-1.86,0-3.367,1.508-3.367,3.367v39.436c0,1.86,1.508,3.367,3.367,3.367
	h59.266c1.86,0,3.367-1.508,3.367-3.367v-39.436C124.486,248.892,122.978,247.384,121.118,247.384z"/>
<path style="fill:#4B9EE2;" d="M121.118,247.384H91.504v46.17h29.614c1.86,0,3.367-1.508,3.367-3.367v-39.436
	C124.486,248.892,122.978,247.384,121.118,247.384z"/>
<path style="fill:#FF4C4C;" d="M411.29,173.908h-24.854c-4.288,0-7.763-3.476-7.763-7.763v-27.159c0-4.288,3.476-7.763,7.763-7.763
	h24.854c4.288,0,7.763,3.476,7.763,7.763v27.159C419.054,170.432,415.578,173.908,411.29,173.908z"/>
<path style="fill:#F33A3A;" d="M446.363,252.645h-95c-4.085,0-7.396-3.311-7.396-7.396v-71.704c0-4.085,3.311-7.396,7.396-7.396h95
	c4.085,0,7.396,3.311,7.396,7.396v71.704C453.759,249.334,450.448,252.645,446.363,252.645z"/>
<path style="fill:#FF4C4C;" d="M476.791,504.615H310.088V201.547h162.61c2.261,0,4.093,1.833,4.093,4.093V504.615z"/>
<path style="fill:#F33A3A;" d="M472.698,201.547h-45.28c2.261,0,4.093,1.833,4.093,4.093v298.976h45.28V205.64
	C476.791,203.379,474.958,201.547,472.698,201.547z"/>
<g>
	<path style="fill:#E1EFFB;" d="M445.615,273.787h-95.524c-3.381,0-6.123-2.741-6.123-6.123v-14.158
		c0-3.381,2.741-6.123,6.123-6.123h95.524c3.381,0,6.123,2.741,6.123,6.123v14.158C451.737,271.046,448.996,273.787,445.615,273.787
		z"/>
	<path style="fill:#E1EFFB;" d="M445.615,334.322h-95.524c-3.381,0-6.123-2.741-6.123-6.123v-14.158
		c0-3.381,2.741-6.123,6.123-6.123h95.524c3.381,0,6.123,2.741,6.123,6.123v14.158C451.737,331.58,448.996,334.322,445.615,334.322z
		"/>
	<path style="fill:#E1EFFB;" d="M445.615,394.856h-95.524c-3.381,0-6.123-2.741-6.123-6.123v-14.158
		c0-3.381,2.741-6.123,6.123-6.123h95.524c3.381,0,6.123,2.741,6.123,6.123v14.158C451.737,392.114,448.996,394.856,445.615,394.856
		z"/>
	<path style="fill:#E1EFFB;" d="M445.615,455.39h-95.524c-3.381,0-6.123-2.741-6.123-6.123v-14.158c0-3.381,2.741-6.123,6.123-6.123
		h95.524c3.381,0,6.123,2.741,6.123,6.123v14.158C451.737,452.649,448.996,455.39,445.615,455.39z"/>
</g>
<path style="fill:#FFB125;" d="M353.427,504.615H160.924c-3.078,0-5.573-2.495-5.573-5.573V21.874c0-3.078,2.495-5.573,5.573-5.573
	h192.503c3.078,0,5.573,2.495,5.573,5.573v477.168C359,502.12,356.505,504.615,353.427,504.615z"/>
<g>
	<path style="fill:#FF901D;" d="M353.427,16.301h-45.28c3.078,0,5.573,2.495,5.573,5.573v477.168c0,3.078-2.495,5.573-5.573,5.573
		h45.28c3.078,0,5.573-2.495,5.573-5.573V21.874C359,18.796,356.505,16.301,353.427,16.301z"/>
	<path style="fill:#FF901D;" d="M367.75,7.385H144.252c-1.528,0-2.767,1.239-2.767,2.767V28.91c0,1.528,1.239,2.767,2.767,2.767
		h223.497c1.528,0,2.767-1.239,2.767-2.767V10.151C370.516,8.623,369.278,7.385,367.75,7.385z"/>
</g>
<g>
	<path style="fill:#E1EFFB;" d="M211.197,98.576h-27.083c-1.908,0-3.454-1.546-3.454-3.454V62.053c0-1.908,1.546-3.454,3.454-3.454
		h27.083c1.908,0,3.454,1.546,3.454,3.454v33.069C214.651,97.03,213.105,98.576,211.197,98.576z"/>
	<path style="fill:#E1EFFB;" d="M270.717,98.576h-27.083c-1.908,0-3.454-1.546-3.454-3.454V62.053c0-1.908,1.546-3.454,3.454-3.454
		h27.083c1.908,0,3.454,1.546,3.454,3.454v33.069C274.171,97.03,272.624,98.576,270.717,98.576z"/>
	<path style="fill:#E1EFFB;" d="M330.236,98.576h-27.083c-1.908,0-3.454-1.546-3.454-3.454V62.053c0-1.908,1.546-3.454,3.454-3.454
		h27.083c1.908,0,3.454,1.546,3.454,3.454v33.069C333.69,97.03,332.144,98.576,330.236,98.576z"/>
	<path style="fill:#E1EFFB;" d="M211.197,187.78h-27.083c-1.908,0-3.454-1.546-3.454-3.454v-33.069c0-1.908,1.546-3.454,3.454-3.454
		h27.083c1.908,0,3.454,1.546,3.454,3.454v33.069C214.651,186.233,213.105,187.78,211.197,187.78z"/>
	<path style="fill:#E1EFFB;" d="M270.717,187.78h-27.083c-1.908,0-3.454-1.546-3.454-3.454v-33.069c0-1.908,1.546-3.454,3.454-3.454
		h27.083c1.908,0,3.454,1.546,3.454,3.454v33.069C274.171,186.233,272.624,187.78,270.717,187.78z"/>
	<path style="fill:#E1EFFB;" d="M330.236,187.78h-27.083c-1.908,0-3.454-1.546-3.454-3.454v-33.069c0-1.908,1.546-3.454,3.454-3.454
		h27.083c1.908,0,3.454,1.546,3.454,3.454v33.069C333.69,186.233,332.144,187.78,330.236,187.78z"/>
	<path style="fill:#E1EFFB;" d="M211.197,276.983h-27.083c-1.908,0-3.454-1.546-3.454-3.454V240.46c0-1.908,1.546-3.454,3.454-3.454
		h27.083c1.908,0,3.454,1.546,3.454,3.454v33.069C214.651,275.436,213.105,276.983,211.197,276.983z"/>
	<path style="fill:#E1EFFB;" d="M270.717,276.983h-27.083c-1.908,0-3.454-1.546-3.454-3.454V240.46c0-1.908,1.546-3.454,3.454-3.454
		h27.083c1.908,0,3.454,1.546,3.454,3.454v33.069C274.171,275.436,272.624,276.983,270.717,276.983z"/>
	<path style="fill:#E1EFFB;" d="M330.236,276.983h-27.083c-1.908,0-3.454-1.546-3.454-3.454V240.46c0-1.908,1.546-3.454,3.454-3.454
		h27.083c1.908,0,3.454,1.546,3.454,3.454v33.069C333.69,275.436,332.144,276.983,330.236,276.983z"/>
	<path style="fill:#E1EFFB;" d="M270.717,366.186h-27.083c-1.908,0-3.454-1.546-3.454-3.454v-33.069
		c0-1.908,1.546-3.454,3.454-3.454h27.083c1.908,0,3.454,1.546,3.454,3.454v33.069C274.171,364.64,272.624,366.186,270.717,366.186z
		"/>
	<path style="fill:#E1EFFB;" d="M330.236,366.186h-27.083c-1.908,0-3.454-1.546-3.454-3.454v-33.069
		c0-1.908,1.546-3.454,3.454-3.454h27.083c1.908,0,3.454,1.546,3.454,3.454v33.069C333.69,364.64,332.144,366.186,330.236,366.186z"
		/>
	<path style="fill:#E1EFFB;" d="M270.717,455.39h-27.083c-1.908,0-3.454-1.546-3.454-3.454v-33.069c0-1.908,1.546-3.454,3.454-3.454
		h27.083c1.908,0,3.454,1.546,3.454,3.454v33.069C274.171,453.843,272.624,455.39,270.717,455.39z"/>
	<path style="fill:#E1EFFB;" d="M330.236,455.39h-27.083c-1.908,0-3.454-1.546-3.454-3.454v-33.069c0-1.908,1.546-3.454,3.454-3.454
		h27.083c1.908,0,3.454,1.546,3.454,3.454v33.069C333.69,453.843,332.144,455.39,330.236,455.39z"/>
</g>
<path style="fill:#61AFF6;" d="M244.277,504.615H39.467c-2.351,0-4.256-1.906-4.256-4.256V283.371c0-2.351,1.906-4.256,4.256-4.256
	h204.81c2.351,0,4.256,1.906,4.256,4.256v216.988C248.534,502.71,246.628,504.615,244.277,504.615z"/>
<path style="fill:#55A2F0;" d="M244.277,279.114h-46.095c2.351,0,4.256,1.906,4.256,4.256v216.988c0,2.351-1.906,4.256-4.256,4.256
	h46.095c2.351,0,4.256-1.906,4.256-4.256V283.371C248.534,281.02,246.628,279.114,244.277,279.114z"/>
<g>
	<path style="fill:#E1EFFB;" d="M91.504,340.659H64.699c-2.36,0-4.273-1.913-4.273-4.273v-17.072c0-2.36,1.913-4.273,4.273-4.273
		h26.805c2.36,0,4.273,1.913,4.273,4.273v17.072C95.777,338.746,93.864,340.659,91.504,340.659z"/>
	<path style="fill:#E1EFFB;" d="M153.903,340.659h-26.805c-2.36,0-4.273-1.913-4.273-4.273v-17.072c0-2.36,1.913-4.273,4.273-4.273
		h26.805c2.36,0,4.273,1.913,4.273,4.273v17.072C158.176,338.746,156.263,340.659,153.903,340.659z"/>
	<path style="fill:#E1EFFB;" d="M216.301,340.659h-26.805c-2.36,0-4.273-1.913-4.273-4.273v-17.072c0-2.36,1.913-4.273,4.273-4.273
		h26.805c2.36,0,4.273,1.913,4.273,4.273v17.072C220.574,338.746,218.661,340.659,216.301,340.659z"/>
	<path style="fill:#E1EFFB;" d="M91.504,400.578H64.699c-2.36,0-4.273-1.913-4.273-4.273v-17.072c0-2.36,1.913-4.273,4.273-4.273
		h26.805c2.36,0,4.273,1.913,4.273,4.273v17.072C95.777,398.665,93.864,400.578,91.504,400.578z"/>
	<path style="fill:#E1EFFB;" d="M153.903,400.578h-26.805c-2.36,0-4.273-1.913-4.273-4.273v-17.072c0-2.36,1.913-4.273,4.273-4.273
		h26.805c2.36,0,4.273,1.913,4.273,4.273v17.072C158.176,398.665,156.263,400.578,153.903,400.578z"/>
	<path style="fill:#E1EFFB;" d="M216.301,400.578h-26.805c-2.36,0-4.273-1.913-4.273-4.273v-17.072c0-2.36,1.913-4.273,4.273-4.273
		h26.805c2.36,0,4.273,1.913,4.273,4.273v17.072C220.574,398.665,218.661,400.578,216.301,400.578z"/>
	<path style="fill:#E1EFFB;" d="M91.504,460.497H64.699c-2.36,0-4.273-1.913-4.273-4.273v-17.072c0-2.36,1.913-4.273,4.273-4.273
		h26.805c2.36,0,4.273,1.913,4.273,4.273v17.072C95.777,458.584,93.864,460.497,91.504,460.497z"/>
	<path style="fill:#E1EFFB;" d="M153.903,460.497h-26.805c-2.36,0-4.273-1.913-4.273-4.273v-17.072c0-2.36,1.913-4.273,4.273-4.273
		h26.805c2.36,0,4.273,1.913,4.273,4.273v17.072C158.176,458.584,156.263,460.497,153.903,460.497z"/>
	<path style="fill:#E1EFFB;" d="M216.301,460.497h-26.805c-2.36,0-4.273-1.913-4.273-4.273v-17.072c0-2.36,1.913-4.273,4.273-4.273
		h26.805c2.36,0,4.273,1.913,4.273,4.273v17.072C220.574,458.584,218.661,460.497,216.301,460.497z"/>
</g>
<path style="fill:#2D5872;" d="M483.592,481.803H28.41c-6.299,0-11.406,5.107-11.406,11.406l0,0c0,6.299,5.107,11.406,11.406,11.406
	h455.182c6.299,0,11.406-5.107,11.406-11.406l0,0C494.998,486.91,489.892,481.803,483.592,481.803z"/>
<path style="fill:#1D4859;" d="M494.926,491.957c-0.008-0.076-0.024-0.15-0.034-0.225c-0.045-0.346-0.102-0.688-0.177-1.024
	c-0.011-0.048-0.025-0.094-0.036-0.141c-0.087-0.368-0.192-0.729-0.314-1.082c-0.005-0.014-0.01-0.027-0.015-0.04
	c-0.134-0.382-0.288-0.754-0.46-1.116v-0.001l0,0c-1.831-3.853-5.747-6.524-10.297-6.524h-33.874v2.905
	c0,5.602-4.541,10.143-10.143,10.143H28.41c-4.55,0-8.466-2.671-10.297-6.524c-0.704,1.482-1.109,3.133-1.109,4.882l0,0
	c0,6.299,5.107,11.406,11.406,11.406h421.308h33.874c6.299,0,11.406-5.107,11.406-11.406l0,0
	C494.998,492.786,494.971,492.369,494.926,491.957z"/>
<path d="M64.7,348.044h26.805c6.428,0,11.658-5.229,11.658-11.657v-17.072c0-6.428-5.23-11.657-11.658-11.657H64.7
	c-6.428,0-11.658,5.229-11.658,11.657v17.072C53.042,342.814,58.272,348.044,64.7,348.044z M67.811,322.426h20.582v10.848H67.811
	V322.426z"/>
<path d="M127.098,348.044h26.805c6.428,0,11.658-5.229,11.658-11.657v-17.072c0-6.428-5.23-11.657-11.658-11.657h-26.805
	c-6.428,0-11.658,5.229-11.658,11.657v17.072C115.44,342.814,120.67,348.044,127.098,348.044z M130.21,322.426h20.582v10.848H130.21
	V322.426z"/>
<path d="M189.497,348.044h26.804c6.428,0,11.658-5.229,11.658-11.657v-17.072c0-6.428-5.23-11.657-11.658-11.657h-26.805
	c-6.428,0-11.658,5.229-11.658,11.657v17.072C177.839,342.814,183.069,348.044,189.497,348.044z M192.608,322.426h20.582v10.848
	h-20.582V322.426z"/>
<path d="M53.042,396.305c0,6.428,5.23,11.658,11.658,11.658h26.805c6.428,0,11.658-5.23,11.658-11.658v-17.072
	c0-6.428-5.23-11.658-11.658-11.658H64.7c-6.428,0-11.658,5.23-11.658,11.658C53.042,379.233,53.042,396.305,53.042,396.305z
	 M67.811,382.345h20.582v10.849H67.811V382.345z"/>
<path d="M115.44,396.305c0,6.428,5.23,11.658,11.658,11.658h26.805c6.428,0,11.658-5.23,11.658-11.658v-17.072
	c0-6.428-5.23-11.658-11.658-11.658h-26.805c-6.428,0-11.658,5.23-11.658,11.658C115.44,379.233,115.44,396.305,115.44,396.305z
	 M130.21,382.345h20.582v10.849H130.21V382.345z"/>
<path d="M177.839,396.305c0,6.428,5.23,11.658,11.658,11.658h26.804c6.428,0,11.658-5.23,11.658-11.658v-17.072
	c0-6.428-5.23-11.658-11.658-11.658h-26.805c-6.428,0-11.658,5.23-11.658,11.658v17.072H177.839z M192.608,382.345h20.582v10.849
	h-20.582V382.345z"/>
<path d="M53.042,456.225c0,6.428,5.23,11.657,11.658,11.657h26.805c6.428,0,11.658-5.229,11.658-11.657v-17.072
	c0-6.428-5.23-11.657-11.658-11.657H64.7c-6.428,0-11.658,5.229-11.658,11.657C53.042,439.153,53.042,456.225,53.042,456.225z
	 M67.811,442.264h20.582v10.848H67.811V442.264z"/>
<path d="M115.44,456.225c0,6.428,5.23,11.657,11.658,11.657h26.805c6.428,0,11.658-5.229,11.658-11.657v-17.072
	c0-6.428-5.23-11.657-11.658-11.657h-26.805c-6.428,0-11.658,5.229-11.658,11.657C115.44,439.153,115.44,456.225,115.44,456.225z
	 M130.21,442.264h20.582v10.848H130.21V442.264z"/>
<path d="M177.839,456.225c0,6.428,5.23,11.657,11.658,11.657h26.804c6.428,0,11.658-5.229,11.658-11.657v-17.072
	c0-6.428-5.23-11.657-11.658-11.657h-26.805c-6.428,0-11.658,5.229-11.658,11.657v17.072H177.839z M192.608,442.264h20.582v10.848
	h-20.582V442.264z"/>
<path d="M484.176,474.448V310.585c0-4.078-3.306-7.385-7.385-7.385s-7.385,3.306-7.385,7.385v163.834H366.385v-11.644h79.23
	c7.448,0,13.508-6.059,13.508-13.507V435.11c0-7.448-6.06-13.508-13.508-13.508h-79.23V402.24h79.23
	c7.448,0,13.508-6.059,13.508-13.507v-14.158c0-7.448-6.06-13.507-13.508-13.507h-79.23v-19.362h79.23
	c7.448,0,13.508-6.059,13.508-13.507v-14.158c0-7.448-6.06-13.507-13.508-13.507h-79.23v-19.362h79.23
	c7.448,0,13.508-6.059,13.508-13.507v-14.158c0-7.448-6.06-13.507-13.508-13.507h-79.23v-31.068h87.375h15.647v55.623
	c0,4.078,3.306,7.385,7.385,7.385s7.385-3.306,7.385-7.385V205.64c0-6.329-5.149-11.478-11.479-11.478h-11.553v-20.617
	c0-8.15-6.631-14.78-14.781-14.78h-19.925v-19.779c0-8.353-6.795-15.148-15.148-15.148h-5.042V71.425
	c0-4.078-3.306-7.385-7.385-7.385s-7.385,3.306-7.385,7.385v52.413h-5.042c-8.353,0-15.148,6.795-15.148,15.148v19.779h-4.904
	V39.061h1.365c5.597,0,10.151-4.554,10.151-10.151V10.151C377.901,4.554,373.347,0,367.75,0H144.252
	c-5.597,0-10.151,4.554-10.151,10.151V28.91c0,5.597,4.554,10.151,10.151,10.151h3.713V271.73h-16.096v-20.978
	c0-5.929-4.823-10.752-10.752-10.752H61.852c-5.929,0-10.752,4.823-10.752,10.752v20.978H39.467
	c-6.419,0-11.641,5.222-11.641,11.641V387.77c0,4.078,3.306,7.385,7.385,7.385s7.385-3.306,7.385-7.385V286.5h15.889h66h30.865
	h85.799v187.919H42.596V433.74c0-4.078-3.306-7.385-7.385-7.385s-7.385,3.306-7.385,7.385v40.709
	c-10.09,0.312-18.207,8.597-18.207,18.761c0,10.361,8.429,18.791,18.79,18.791h455.183c10.361,0,18.79-8.43,18.79-18.791
	C502.383,483.045,494.265,474.76,484.176,474.448z M386.058,138.986c0-0.209,0.17-0.379,0.379-0.379h24.854
	c0.209,0,0.379,0.17,0.379,0.379v19.779h-25.612V138.986z M366.385,173.535l79.99,0.01v20.617h-79.99V173.535z M366.385,254.769
	h77.968v11.634h-77.968L366.385,254.769L366.385,254.769z M366.385,315.303h77.968v11.634h-77.968L366.385,315.303L366.385,315.303z
	 M366.385,375.837h77.968v11.634h-77.968L366.385,375.837L366.385,375.837z M366.385,436.371h77.968v11.635h-77.968L366.385,436.371
	L366.385,436.371z M117.101,271.73H65.87v-16.961h51.231V271.73z M148.87,24.291v-9.522h214.262v9.522H359H155.351H148.87z
	 M207.266,269.598h-19.222v-25.207h19.222V269.598z M232.795,240.46v31.27h-10.76v-31.27c0-5.976-4.862-10.838-10.838-10.838
	h-27.083c-5.976,0-10.839,4.862-10.839,10.838v31.27h-10.54V39.061h188.88V166.15v35.397v45.838v26.403v34.131v26.403v34.131v26.403
	v34.13v26.404v19.028h-95.697v-11.644h14.798c5.977,0,10.839-4.862,10.839-10.839v-33.068c0-5.976-4.862-10.839-10.839-10.839
	h-14.798v-34.457h14.798c5.977,0,10.839-4.863,10.839-10.839v-33.069c0-5.976-4.862-10.838-10.839-10.838h-14.798v-34.458h14.798
	c5.977,0,10.839-4.862,10.839-10.838V240.46c0-5.976-4.862-10.838-10.839-10.838h-27.082
	C237.658,229.622,232.795,234.484,232.795,240.46z M247.564,269.598v-25.207h19.222v25.207H247.564z M255.918,333.594h10.868v25.208
	h-10.868V333.594z M255.918,422.798h10.868v25.208h-10.868V422.798z M483.592,497.231H28.41c-2.217,0-4.021-1.804-4.021-4.022
	s1.804-4.021,4.021-4.021h455.183c2.217,0,4.021,1.804,4.021,4.021S485.81,497.231,483.592,497.231z"/>
<path d="M211.197,51.215h-27.083c-5.976,0-10.839,4.862-10.839,10.838v33.069c0,5.976,4.863,10.838,10.839,10.838h27.083
	c5.976,0,10.838-4.862,10.838-10.838V62.053C222.036,56.077,217.174,51.215,211.197,51.215z M207.266,91.191h-19.222V65.984h19.222
	V91.191z"/>
<path d="M243.634,105.961h27.082c5.977,0,10.839-4.862,10.839-10.838v-33.07c0-5.976-4.862-10.838-10.839-10.838h-27.082
	c-5.976,0-10.839,4.862-10.839,10.838v33.069C232.795,101.099,237.658,105.961,243.634,105.961z M247.564,65.984h19.222v25.207
	h-19.222V65.984z"/>
<path d="M303.154,105.961h27.083c5.976,0,10.838-4.862,10.838-10.838v-33.07c0-5.976-4.862-10.838-10.838-10.838h-27.083
	c-5.976,0-10.838,4.862-10.838,10.838v33.069C292.315,101.099,297.178,105.961,303.154,105.961z M307.085,65.984h19.221v25.207
	h-19.221V65.984z"/>
<path d="M211.197,140.418h-27.083c-5.976,0-10.839,4.862-10.839,10.838v33.069c0,5.976,4.863,10.838,10.839,10.838h27.083
	c5.976,0,10.838-4.862,10.838-10.838v-33.069C222.036,145.28,217.174,140.418,211.197,140.418z M207.266,180.395h-19.222v-25.207
	h19.222V180.395z"/>
<path d="M270.716,195.164c5.977,0,10.839-4.862,10.839-10.838v-33.069c0-5.976-4.862-10.838-10.839-10.838h-27.082
	c-5.976,0-10.839,4.862-10.839,10.838v33.069c0,5.976,4.863,10.838,10.839,10.838H270.716z M247.564,155.188h19.222v25.207h-19.222
	V155.188z"/>
<path d="M303.154,195.164h27.083c5.976,0,10.838-4.862,10.838-10.838v-33.069c0-5.976-4.862-10.838-10.838-10.838h-27.083
	c-5.976,0-10.838,4.862-10.838,10.838v33.069C292.315,190.302,297.178,195.164,303.154,195.164z M307.085,155.188h19.221v25.207
	h-19.221V155.188z"/>
<path d="M303.154,284.367h27.083c5.976,0,10.838-4.862,10.838-10.838V240.46c0-5.976-4.862-10.838-10.838-10.838h-27.083
	c-5.976,0-10.838,4.862-10.838,10.838v33.069C292.315,279.505,297.178,284.367,303.154,284.367z M307.085,244.391h19.221v25.207
	h-19.221V244.391z"/>
<path d="M303.154,373.571h27.083c5.976,0,10.838-4.863,10.838-10.839v-33.069c0-5.976-4.862-10.838-10.838-10.838h-27.083
	c-5.976,0-10.838,4.862-10.838,10.838v33.069C292.315,368.709,297.178,373.571,303.154,373.571z M307.085,333.594h19.221v25.208
	h-19.221V333.594z"/>
<path d="M303.154,462.775h27.083c5.976,0,10.838-4.862,10.838-10.839v-33.068c0-5.976-4.862-10.839-10.838-10.839h-27.083
	c-5.976,0-10.838,4.863-10.838,10.839v33.068C292.315,457.912,297.178,462.775,303.154,462.775z M307.085,422.798h19.221v25.208
	h-19.221V422.798z"/>
<g>
</g>
<g>
</g>
<g>
</g>
<g>
</g>
<g>
</g>
<g>
</g>
<g>
</g>
<g>
</g>
<g>
</g>
<g>
</g>
<g>
</g>
<g>
</g>
<g>
</g>
<g>
</g>
<g>
</g>
</svg>
