<svg height="512" viewBox="0 0 50 60" width="512" xmlns="http://www.w3.org/2000/svg"><g id="Page-1" fill="none" fill-rule="evenodd"><g id="008---Contract"><path id="Path" d="m42.99 58.9v.1h-37.17c-2.69317587-.0917958-4.82696424-2.3052692-4.82-5v-51c.0032948-1.10320187.89679813-1.9967052 2-2h34c1.1032019.0032948 1.9967052.89679813 2 2v51c.0000388 1.3265125.5249046 2.5991323 1.46 3.54.217886.215247.4556075.409442.71.58.085346.063742.1756312.1205883.27.17.1713998.1090594.3521028.2027572.54.28.1397836.0652638.2833779.1220336.43.17.1272223.0458834.2575523.0826431.39.11.0620161.0213211.1255222.0380332.19.05z" fill="#ffdf00"/><path id="Path" d="m42.8 58.85c-.1324477-.0273569-.2627777-.0641166-.39-.11-.1466221-.0479664-.2902164-.1047362-.43-.17-.1878972-.0772428-.3686002-.1709406-.54-.28-.0943688-.0494117-.184654-.106258-.27-.17-.2543925-.170558-.492114-.364753-.71-.58-.9350954-.9408677-1.4599612-2.2134875-1.46-3.54v-51c-.0032948-1.10320187-.8967981-1.9967052-2-2h-3c1.1032019.0032948 1.9967052.89679813 2 2v51c.0000388 1.3265125.5249046 2.5991323 1.46 3.54.217886.215247.4556075.409442.71.58.085346.063742.1756312.1205883.27.17.1713998.1090594.3521028.2027572.54.28.1397836.0652638.2833779.1220336.43.17.1272223.0458834.2575523.0826431.39.11.0620161.0213211.1255222.0380332.19.05v.1h3v-.1c-.0644778-.0119668-.1279839-.0286789-.19-.05z" fill="#fec108"/><path id="Path" d="m49 44v9.76c.031107 2.8139624-2.18767 5.1392408-5 5.24h-.01c-.0801301.0016609-.1602858-.0016789-.24-.01-.0869959-.0013048-.173828-.0079842-.26-.02-.13-.01-.25-.03-.38-.05-.04-.01-.08-.01-.12-.02-.0644778-.0119668-.1279839-.0286789-.19-.05-.1324477-.0273569-.2627777-.0641166-.39-.11-.1466221-.0479664-.2902164-.1047362-.43-.17-.1878972-.0772428-.3686002-.1709406-.54-.28-.0943688-.0494117-.184654-.106258-.27-.17-.2543925-.170558-.492114-.364753-.71-.58-.9350954-.9408677-1.4599612-2.2134875-1.46-3.54v-11h9c.5522847 0 1 .4477153 1 1z" fill="#fec108"/><path id="Path" d="m43.99 59h-.17c-.0237763.0016098-.0476255-.0017972-.07-.01.0797142.0083211.1598699.0116609.24.01z" fill="#ffdf00"/><path id="Path" d="m29 16v11c0 .5522847-.4477153 1-1 1h-16c-.5522847 0-1-.4477153-1-1v-11z" fill="#f5f5f5"/><path id="Path" d="m26 16v11c0 .5522847-.4477153 1-1 1h3c.5522847 0 1-.4477153 1-1v-11z" fill="#cfd8dc"/><path id="Path" d="m29.94 16h-19.88c-.43103135.0085339-.82229693-.2507553-.98240933-.6510363s-.05560225-.8578804.26240933-1.1489637l9.95-8.93c.4049651-.35978308 1.0150349-.35978308 1.42 0l4.29 3.85 4 3.59 1.66 1.49c.3180116.2910833.4225217.7486827.2624093 1.1489637s-.551378.6595702-.9824093.6510363z" fill="#f44335"/><path id="Path" d="m30.66 14.2-1.66-1.49-4-3.59-4.29-3.85c-.4049651-.35978308-1.0150349-.35978308-1.42 0l-.79.709 3.5 3.141 4 3.59 1.66 1.49c.3180116.2910833.4225217.7486827.2624093 1.1489637s-.551378.6595702-.9824093.6510363h3c.4310313.0085339.8222969-.2507553.9824093-.6510363s.0556023-.8578804-.2624093-1.1489637z" fill="#c81e1e"/><path id="Path" d="m29 7v5.71l-4-3.59v-2.12c0-.55228475.4477153-1 1-1h2c.5522847 0 1 .44771525 1 1z" fill="#c81e1e"/><path id="Path" d="m20 22c1.1045695 0 2 .8954305 2 2v4h-4v-4c0-1.1045695.8954305-2 2-2z" fill="#a0522d"/><path id="Path" d="m5 9c-.55228475 0-1-.44771525-1-1v-3c0-.55228475.44771525-1 1-1h3c.55228475 0 1 .44771525 1 1s-.44771525 1-1 1h-2v2c0 .55228475-.44771525 1-1 1z" fill="#f5f5f5"/><g fill="#000"><path id="Shape" d="m5.915 60c.02831361.001495.05668639.001495.085 0h38 .011c1.513271-.0120894 2.9624804-.6124301 4.041-1.674 1.2395496-1.196723 1.9421927-2.8440388 1.948-4.567v-9.759c0-1.1045695-.8954305-2-2-2h-8v-39c0-1.65685425-1.3431458-3-3-3h-34c-1.65685425 0-3 1.34314575-3 3v51c-.01172757 3.2854573 2.62970974 5.9648527 5.915 6zm42.085-6.241c-.0055884 1.1794319-.4877938 2.3065015-1.337 3.125-.7431473.7422689-1.7590774 1.1458922-2.809 1.116-2.1558268-.069834-3.864337-1.8430672-3.854-4l-.0000467-10h8.0000467zm-46-50.759c0-.55228475.44771525-1 1-1h34c.5522847 0 1 .44771525 1 1v51c.0001091 1.476417.5452987 2.9008184 1.531 4h-33.519c-.03 0-.056 0-.075 0-2.18956262-.0225342-3.94922579-1.8103556-3.937-4z" fill-rule="nonzero"/><path id="Shape" d="m10 16.992v10.008c0 1.1045695.8954305 2 2 2h16c1.1045695 0 2-.8954305 2-2v-10.008c.8282226-.0129096 1.5657086-.5272507 1.864-1.3.3031273-.7822356.0877466-1.6704815-.54-2.227l-1.324-1.194v-5.271c0-1.1045695-.8954305-2-2-2h-2c-1.0587507.00422105-1.9307767.83284306-1.989 1.89l-2.63-2.363c-.7853805-.70584261-1.9766195-.70584261-2.762 0l-9.944 8.933c-.62713143.5569166-.84206163 1.4449491-.539 2.227.29669104.7747142 1.03453063 1.2912811 1.864 1.305zm9 10.008v-3c0-.5522847.4477153-1 1-1s1 .4477153 1 1v3zm4 0v-3c0-1.6568542-1.3431458-3-3-3s-3 1.3431458-3 3v3h-5v-10h16v10zm3-20h2v3.474l-2-1.8zm-5.955-.985 9.898 8.985h-9.943l-9.988-.052z" fill-rule="nonzero"/><path id="Shape" d="m7 47c0-.5522847-.44771525-1-1-1s-1 .4477153-1 1c0 1.932 1.721 3.547 4 3.919v1.081c0 .5522847.44771525 1 1 1 .5522847 0 1-.4477153 1-1v-1.081c2.279-.372 4-1.987 4-3.919s-1.721-3.547-4-3.919v-3.954c1.15.283 2 1.022 2 1.873 0 .5522847.4477153 1 1 1s1-.4477153 1-1c0-1.932-1.721-3.547-4-3.919v-1.081c0-.5522847-.4477153-1-1-1-.55228475 0-1 .4477153-1 1v1.081c-2.279.372-4 1.987-4 3.919s1.721 3.547 4 3.919v3.954c-1.15-.283-2-1.022-2-1.873zm6 0c0 .851-.85 1.59-2 1.873v-3.746c1.15.283 2 1.022 2 1.873zm-6-6c0-.851.85-1.59 2-1.873v3.746c-1.15-.283-2-1.022-2-1.873z" fill-rule="nonzero"/><path id="Path" d="m17 35c0 .5522847.4477153 1 1 1h17c.5522847 0 1-.4477153 1-1s-.4477153-1-1-1h-17c-.5522847 0-1 .4477153-1 1z"/><path id="Path" d="m35 40h-17c-.5522847 0-1 .4477153-1 1s.4477153 1 1 1h17c.5522847 0 1-.4477153 1-1s-.4477153-1-1-1z"/><path id="Path" d="m35 46h-17c-.5522847 0-1 .4477153-1 1s.4477153 1 1 1h17c.5522847 0 1-.4477153 1-1s-.4477153-1-1-1z"/><path id="Path" d="m24 52h-6c-.5522847 0-1 .4477153-1 1s.4477153 1 1 1h6c.5522847 0 1-.4477153 1-1s-.4477153-1-1-1z"/><path id="Path" d="m30 52h-2c-.5522847 0-1 .4477153-1 1s.4477153 1 1 1h2c.5522847 0 1-.4477153 1-1s-.4477153-1-1-1z"/></g></g></g></svg>