<svg id="Filled_stroke_cut_Ex" height="512" viewBox="0 0 512 512" width="512" xmlns="http://www.w3.org/2000/svg" data-name="Filled stroke cut Ex"><g><path d="m104 24h208v352h-208z" fill="#4dccff"/><ellipse cx="88" cy="296" fill="#57e6b6" rx="64" ry="120"/><path d="m102 408a30 30 0 0 0 -30 30v26a24 24 0 0 0 -48 0v24h96v-80z" fill="#43b38d"/><path d="m280 488h112v-352l-112-72z" fill="#fac850"/><g><path d="m280 488h-160v-160l72-64 88 64z" fill="#fa7d29"/><path d="m240 488h-48v-168l48 32z" fill="#fffaf6"/></g><ellipse cx="424" cy="296" fill="#57e6b6" rx="64" ry="120"/><path d="m464 440a24 24 0 0 0 -24 24v-26a30 30 0 0 0 -30-30h-18v80h96v-24a24 24 0 0 0 -24-24z" fill="#43b38d"/><g><path d="m136 56h16v24h-16z"/><path d="m168 80h16v24h-16z"/><path d="m136 104h16v24h-16z"/><path d="m168 128h16v24h-16z"/><path d="m136 160h16v24h-16z"/><path d="m168 184h16v24h-16z"/><path d="m168 232h16v24h-16z"/><path d="m200 56h16v24h-16z"/><path d="m232 80h16v24h-16z"/><path d="m200 104h16v24h-16z"/><path d="m232 128h16v24h-16z"/><path d="m200 160h16v24h-16z"/><path d="m200 208h16v24h-16z"/><path d="m232 184h16v24h-16z"/><path d="m232 232h16v24h-16z"/><path d="m384 160h16v-24a8 8 0 0 0 -3.674-6.729l-40-25.715-8.652 13.459 36.326 23.353z"/><path d="m312 128h16v24h-16z"/><path d="m312 176h16v24h-16z"/><path d="m312 224h16v24h-16z"/><path d="m312 272h16v24h-16z"/><path d="m312 320h16v24h-16z"/><path d="m312 368h16v24h-16z"/><path d="m312 416h16v24h-16z"/><path d="m344 152h16v24h-16z"/><path d="m344 392h16v24h-16z"/><path d="m344 440h16v24h-16z"/><path d="m152 416h16v24h-16z"/><path d="m464 432a31.808 31.808 0 0 0 -16.038 4.317 37.726 37.726 0 0 0 -4.753-16.773c13.709-6.533 25.963-20.05 35.275-39.187 11.295-23.211 17.516-53.17 17.516-84.357 0-71.776-31.626-128-72-128s-72 56.224-72 128c0 44.38 12.675 85.062 33 108.118a7.967 7.967 0 0 0 -1 3.882v72h-96v-401.347l43.674 28.076 8.652-13.458-20.326-13.071v-56.2a8 8 0 0 0 -8-8h-208a8 8 0 0 0 -8 8v128h16v-120h192v37.918l-19.674-12.647a8 8 0 0 0 -12.326 6.729v248.29l-75.295-54.76a8 8 0 0 0 -10.019.491l-27.086 24.079c-3.784-65-33.872-114.1-71.6-114.1-21.578 0-41.712 16.481-55.238 45.219l14.476 6.814c10.779-22.9 25.636-36.033 40.762-36.033 30.349 0 55.99 51.269 56 111.963l-29.314 26.058a8 8 0 0 0 -2.686 5.979v72h-10a38.052 38.052 0 0 0 -6 .474v-85.16l29.657-29.657-11.314-11.314-27.094 27.094-26.449-19.837-9.6 12.8 28.8 21.6v90.793c-12-3.635-23.294-15.354-32.088-33.418-10.261-21.075-15.912-48.556-15.912-77.375 0-21.881 3.262-43.129 9.434-61.446l-15.163-5.108c-6.719 19.943-10.271 42.954-10.271 66.554 0 31.2 6.225 61.164 17.526 84.378 9.311 19.127 21.561 32.636 35.265 39.166a37.726 37.726 0 0 0 -4.753 16.773 31.989 31.989 0 0 0 -48.038 27.683v24a8 8 0 0 0 8 8h464a8 8 0 0 0 8-8v-24a32.036 32.036 0 0 0 -32-32zm-192 48h-24v-128a8 8 0 0 0 -3.562-6.656l-44.438-29.625v-36.009l72 52.364zm-240-16a16 16 0 0 1 32 0v16h-32zm48-26a22.025 22.025 0 0 1 22-22h10v64h-32zm48-106.408 56-49.777v198.185h-56zm72 148.408v-145.052l32 21.333v123.719zm224-296c30.355 0 56 51.29 56 112 0 28.81-5.647 56.282-15.9 77.356-8.795 18.074-20.092 29.8-32.1 33.437v-90.793l28.8-21.6-9.6-12.8-26.449 19.837-27.094-27.094-11.314 11.314 29.657 29.657v85.16a38.052 38.052 0 0 0 -6-.474h-6.318c-21.359-17.292-35.682-58.983-35.682-104 0-60.71 25.645-112 56-112zm-24 232h10a22.025 22.025 0 0 1 22 22v42h-32zm80 64h-32v-16a16 16 0 0 1 32 0z"/></g></g></svg>