<svg height="512" viewBox="0 0 64 64" width="512" xmlns="http://www.w3.org/2000/svg"><g id="Mansion-2" data-name="Mansion"><path d="m14 28h16v31h-16z" fill="#ff7956"/><path d="m30 28h-16l8-11z" fill="#ab2300"/><path d="m30 28h16v31h-16z" fill="#c0ab91"/><path d="m46 28h-16l8-11z" fill="#806749"/><path d="m22 17 8 11" fill="#acabb1"/><g fill="#83d8f4"><path d="m17 32h10v6h-10z"/><path d="m17 42h10v6h-10z"/><path d="m33 32h10v6h-10z"/><path d="m33 42h10v6h-10z"/></g><path d="m4 42h10v17h-10z" fill="#c6c5ca"/><path d="m7 53h4v6h-4z" fill="#e0e0e2"/><path d="m20 53h4v6h-4z" fill="#e0e0e2"/><path d="m36 53h4v6h-4z" fill="#e0e0e2"/><path d="m7 45h4v4h-4z" fill="#83d8f4"/><path d="m46 42h10v17h-10z" fill="#c6c5ca"/><path d="m49 53h4v6h-4z" fill="#e0e0e2"/><path d="m49 45h4v4h-4z" fill="#83d8f4"/><path d="m60 22.5a2.5 2.5 0 0 0 -2.5-2.5 2.544 2.544 0 0 0 -.505.051c0-.017.005-.033.005-.051a2.993 2.993 0 0 0 -5.822-.982c-.06 0-.117-.018-.178-.018a3 3 0 0 0 0 6h7v-.05a2.5 2.5 0 0 0 2-2.45z" fill="#e0e0e2"/><path d="m19 13.5a2.5 2.5 0 0 0 -2.5-2.5 2.544 2.544 0 0 0 -.505.051c0-.017.005-.033.005-.051a2.993 2.993 0 0 0 -5.822-.982c-.06 0-.117-.018-.178-.018a3 3 0 0 0 0 6h7v-.05a2.5 2.5 0 0 0 2-2.45z" fill="#e0e0e2"/><path d="m62 58h-1a1 1 0 0 0 0 2h1a1 1 0 0 0 0-2z"/><path d="m58 58h-1v-16a1 1 0 0 0 -1-1h-9v-13a.992.992 0 0 0 -.071-.353.929.929 0 0 0 -.054-.1.892.892 0 0 0 -.066-.131l-8-11a1.038 1.038 0 0 0 -1.618 0l-7.191 9.884-7.191-9.888a1.038 1.038 0 0 0 -1.618 0l-8 11a.892.892 0 0 0 -.066.131.929.929 0 0 0 -.054.1.992.992 0 0 0 -.071.357v13h-9a1 1 0 0 0 -1 1v16h-1a1 1 0 0 0 0 2h56a1 1 0 0 0 0-2zm-20-39.3 6.036 8.3h-12.072zm-16 0 6.036 8.3h-12.072zm-17 24.3h8v15h-1v-5a1 1 0 0 0 -1-1h-4a1 1 0 0 0 -1 1v5h-1zm3 15v-4h2v4zm7-29h14v29h-4v-5a1 1 0 0 0 -1-1h-4a1 1 0 0 0 -1 1v5h-4zm6 29v-4h2v4zm10-29h14v29h-4v-5a1 1 0 0 0 -1-1h-4a1 1 0 0 0 -1 1v5h-4zm6 29v-4h2v4zm13 0v-4h2v4zm4 0v-5a1 1 0 0 0 -1-1h-4a1 1 0 0 0 -1 1v5h-1v-15h8v15z"/><path d="m17 39h10a1 1 0 0 0 1-1v-6a1 1 0 0 0 -1-1h-10a1 1 0 0 0 -1 1v6a1 1 0 0 0 1 1zm9-6v4h-3v-4zm-8 0h3v4h-3z"/><path d="m27 49a1 1 0 0 0 1-1v-6a1 1 0 0 0 -1-1h-10a1 1 0 0 0 -1 1v6a1 1 0 0 0 1 1zm-1-6v4h-3v-4zm-8 0h3v4h-3z"/><path d="m33 39h10a1 1 0 0 0 1-1v-6a1 1 0 0 0 -1-1h-10a1 1 0 0 0 -1 1v6a1 1 0 0 0 1 1zm9-6v4h-3v-4zm-8 0h3v4h-3z"/><path d="m43 49a1 1 0 0 0 1-1v-6a1 1 0 0 0 -1-1h-10a1 1 0 0 0 -1 1v6a1 1 0 0 0 1 1zm-1-6v4h-3v-4zm-8 0h3v4h-3z"/><path d="m7 50h4a1 1 0 0 0 1-1v-4a1 1 0 0 0 -1-1h-4a1 1 0 0 0 -1 1v4a1 1 0 0 0 1 1zm1-4h2v2h-2z"/><path d="m53 44h-4a1 1 0 0 0 -1 1v4a1 1 0 0 0 1 1h4a1 1 0 0 0 1-1v-4a1 1 0 0 0 -1-1zm-1 4h-2v-2h2z"/><path d="m57.878 19.021a3.99 3.99 0 0 0 -7.344-.994 4 4 0 0 0 .466 7.973h7a.929.929 0 0 0 .5-.145 3.5 3.5 0 0 0 -.619-6.834zm-.078 4.949a1.088 1.088 0 0 0 -.112.03h-6.688a2 2 0 0 1 -.035-4l.148.016a1 1 0 0 0 1.01-.669 1.992 1.992 0 0 1 3.877.608c0 .024 0 .049-.005.068a1 1 0 0 0 1.2 1.008 1.526 1.526 0 0 1 1.805 1.469 1.5 1.5 0 0 1 -1.2 1.47z"/><path d="m10 17h7a.929.929 0 0 0 .5-.145 3.5 3.5 0 0 0 -.619-6.834 3.99 3.99 0 0 0 -7.344-.994 4 4 0 0 0 .463 7.973zm-.035-6 .148.016a1 1 0 0 0 1.01-.669 1.992 1.992 0 0 1 3.877.608c0 .024 0 .049-.005.068a1 1 0 0 0 1.2 1.008 1.526 1.526 0 0 1 1.805 1.469 1.5 1.5 0 0 1 -1.2 1.47 1.088 1.088 0 0 0 -.112.03h-6.688a2 2 0 0 1 -.035-4z"/></g></svg>