<?xml version="1.0" encoding="iso-8859-1"?>
<!-- Generator: Adobe Illustrator 19.0.0, SVG Export Plug-In . SVG Version: 6.00 Build 0)  -->
<svg version="1.1" id="Capa_1" xmlns="http://www.w3.org/2000/svg" xmlns:xlink="http://www.w3.org/1999/xlink" x="0px" y="0px"
	 viewBox="0 0 512 512" style="enable-background:new 0 0 512 512;" xml:space="preserve">
<path style="fill:#ED5729;" d="M406.096,7.293H220.02c-1.769,0-3.203,1.434-3.203,3.203v53.093h192.483V10.496
	C409.299,8.727,407.865,7.293,406.096,7.293z"/>
<path style="fill:#FF6D3A;" d="M432.747,484.286H193.368V43.018c0-2.743,2.224-4.967,4.967-4.967h229.444
	c2.743,0,4.967,2.224,4.967,4.967V484.286z"/>
<path id="SVGCleanerId_0" style="fill:#FF901D;" d="M65.338,359.513l104.433-69.469c1.004-0.668,2.311-0.668,3.315,0l104.432,69.469
	c5.526,3.676,13.016,1.794,16.148-4.057l0,0c2.736-5.111,1.14-11.465-3.687-14.676l-116.894-77.759
	c-1.004-0.668-2.311-0.668-3.315,0L52.877,340.78c-4.827,3.211-6.423,9.565-3.687,14.676l0,0
	C52.322,361.307,59.813,363.189,65.338,359.513z"/>
<g>
	<path id="SVGCleanerId_0_1_" style="fill:#FF901D;" d="M65.338,359.513l104.433-69.469c1.004-0.668,2.311-0.668,3.315,0
		l104.432,69.469c5.526,3.676,13.016,1.794,16.148-4.057l0,0c2.736-5.111,1.14-11.465-3.687-14.676l-116.894-77.759
		c-1.004-0.668-2.311-0.668-3.315,0L52.877,340.78c-4.827,3.211-6.423,9.565-3.687,14.676l0,0
		C52.322,361.307,59.813,363.189,65.338,359.513z"/>
</g>
<path style="fill:#ED5729;" d="M427.779,38.051h-44.892c2.743,0,4.967,2.224,4.967,4.967v441.268h44.892V43.018
	C432.747,40.274,430.523,38.051,427.779,38.051z"/>
<g>
	<path style="fill:#FFFFFF;" d="M261.966,133.132H226.71c-0.81,0-1.467-0.657-1.467-1.467V82.73c0-0.81,0.657-1.467,1.467-1.467
		h35.255c0.81,0,1.467,0.657,1.467,1.467v48.935C263.432,132.475,262.776,133.132,261.966,133.132z"/>
	<path style="fill:#FFFFFF;" d="M330.685,133.132H295.43c-0.81,0-1.467-0.657-1.467-1.467V82.73c0-0.81,0.657-1.467,1.467-1.467
		h35.255c0.81,0,1.467,0.657,1.467,1.467v48.935C332.153,132.475,331.495,133.132,330.685,133.132z"/>
	<path style="fill:#FFFFFF;" d="M399.404,133.132h-35.255c-0.81,0-1.467-0.657-1.467-1.467V82.73c0-0.81,0.657-1.467,1.467-1.467
		h35.255c0.81,0,1.467,0.657,1.467,1.467v48.935C400.872,132.475,400.214,133.132,399.404,133.132z"/>
	<path style="fill:#FFFFFF;" d="M261.966,234.368H226.71c-0.81,0-1.467-0.657-1.467-1.467v-48.935c0-0.81,0.657-1.467,1.467-1.467
		h35.255c0.81,0,1.467,0.657,1.467,1.467V232.9C263.432,233.711,262.776,234.368,261.966,234.368z"/>
	<path style="fill:#FFFFFF;" d="M330.685,234.368H295.43c-0.81,0-1.467-0.657-1.467-1.467v-48.935c0-0.81,0.657-1.467,1.467-1.467
		h35.255c0.81,0,1.467,0.657,1.467,1.467V232.9C332.153,233.711,331.495,234.368,330.685,234.368z"/>
	<path style="fill:#FFFFFF;" d="M399.404,234.368h-35.255c-0.81,0-1.467-0.657-1.467-1.467v-48.935c0-0.81,0.657-1.467,1.467-1.467
		h35.255c0.81,0,1.467,0.657,1.467,1.467V232.9C400.872,233.711,400.214,234.368,399.404,234.368z"/>
	<path style="fill:#FFFFFF;" d="M261.966,335.603H226.71c-0.81,0-1.467-0.657-1.467-1.467v-48.935c0-0.81,0.657-1.467,1.467-1.467
		h35.255c0.81,0,1.467,0.657,1.467,1.467v48.935C263.432,334.946,262.776,335.603,261.966,335.603z"/>
	<path style="fill:#FFFFFF;" d="M330.685,335.603H295.43c-0.81,0-1.467-0.657-1.467-1.467v-48.935c0-0.81,0.657-1.467,1.467-1.467
		h35.255c0.81,0,1.467,0.657,1.467,1.467v48.935C332.153,334.946,331.495,335.603,330.685,335.603z"/>
	<path style="fill:#FFFFFF;" d="M399.404,335.603h-35.255c-0.81,0-1.467-0.657-1.467-1.467v-48.935c0-0.81,0.657-1.467,1.467-1.467
		h35.255c0.81,0,1.467,0.657,1.467,1.467v48.935C400.872,334.946,400.214,335.603,399.404,335.603z"/>
	<rect x="293.959" y="384.97" style="fill:#FFFFFF;" width="38.19" height="51.869"/>
	<path style="fill:#FFFFFF;" d="M399.404,436.838h-35.255c-0.81,0-1.467-0.657-1.467-1.467v-48.935c0-0.81,0.657-1.467,1.467-1.467
		h35.255c0.81,0,1.467,0.657,1.467,1.467v48.935C400.872,436.182,400.214,436.838,399.404,436.838z"/>
</g>
<rect x="91.179" y="278.3" style="fill:#FFB125;" width="31.25" height="46.635"/>
<path style="fill:#FFB123;" d="M124.208,282.979h-34.81c-2.441,0-4.42-1.979-4.42-4.42v-11.618c0-2.441,1.979-4.42,4.42-4.42h34.81
	c2.441,0,4.42,1.979,4.42,4.42v11.618C128.628,281,126.649,282.979,124.208,282.979z"/>
<polygon style="fill:#61AFF6;" points="263.385,339.44 171.408,278.256 79.43,339.44 79.43,484.481 263.427,484.481 263.427,339.44 
	"/>
<path style="fill:#E1EFFB;" d="M239.16,436.838h-61.371V402.07c0-1.162,0.942-2.104,2.104-2.104h57.162
	c1.162,0,2.104,0.942,2.104,2.104L239.16,436.838L239.16,436.838z"/>
<polygon style="fill:#55A2F0;" points="263.385,339.44 171.408,278.256 148.88,293.241 218.331,339.44 218.372,339.44 
	218.372,484.481 263.427,484.481 263.427,339.44 "/>
<path style="fill:#FF901D;" d="M65.338,359.513l104.433-69.469c1.004-0.668,2.311-0.668,3.315,0l104.432,69.469
	c5.526,3.676,13.016,1.794,16.148-4.057l0,0c2.736-5.111,1.14-11.465-3.687-14.676l-116.894-77.759
	c-1.004-0.668-2.311-0.668-3.315,0L52.877,340.78c-4.827,3.211-6.423,9.565-3.687,14.676l0,0
	C52.322,361.307,59.813,363.189,65.338,359.513z"/>
<path style="fill:#FFB125;" d="M152.192,389.491h-47.633c-1.737,0-3.146,1.409-3.146,3.146v91.896h53.925v-91.896
	C155.339,390.899,153.93,389.491,152.192,389.491z"/>
<path style="fill:#CCDFED;" d="M237.055,399.966h-28.581v36.873h30.685V402.07C239.16,400.908,238.217,399.966,237.055,399.966z"/>
<path style="fill:#B6FA4D;" d="M369.513,484.123c0.264-14.872,11.616-27.035,26.146-28.565
	c6.742-10.775,18.708-17.946,32.355-17.946c21.068,0,38.147,17.079,38.147,38.147c0,2.875-0.328,5.671-0.931,8.364L369.513,484.123
	L369.513,484.123z"/>
<path style="fill:#FF901D;" d="M152.192,389.491h-23.817v95.042h26.963v-91.896C155.339,390.899,153.93,389.491,152.192,389.491z"/>
<path style="fill:#77DD00;" d="M477.641,478.291H34.357c-7.295,0-13.208,5.913-13.208,13.208l0,0
	c0,7.295,5.913,13.208,13.208,13.208h443.285c7.295,0,13.208-5.913,13.208-13.208l0,0
	C490.849,484.204,484.937,478.291,477.641,478.291z"/>
<path style="fill:#6EC102;" d="M490.708,493.329L490.708,493.329c0.083-0.6,0.141-1.207,0.141-1.83c0-0.673-0.069-1.327-0.168-1.971
	v-0.033c-0.014-0.095-0.039-0.186-0.056-0.281c-0.073-0.411-0.162-0.816-0.273-1.213c-0.079-0.29-0.16-0.578-0.259-0.86
	c-0.055-0.155-0.12-0.304-0.18-0.457c-0.111-0.283-0.228-0.562-0.358-0.836c-0.029-0.061-0.049-0.125-0.079-0.185
	c-0.002,0.005-0.005,0.009-0.007,0.013c-2.15-4.371-6.628-7.387-11.829-7.387h-31.757l0.015,2.177
	c0.048,6.928-5.555,12.57-12.483,12.57H34.357c-5.197,0-9.68-3.009-11.836-7.374c-1.087,2.2-1.599,4.735-1.276,7.424
	c0.804,6.699,6.717,11.619,13.464,11.619h411.359h31.574c0.438,0,0.869-0.024,1.296-0.065c0.146-0.014,0.288-0.042,0.433-0.06
	c0.276-0.036,0.553-0.073,0.823-0.126c0.174-0.034,0.344-0.08,0.516-0.121c0.234-0.056,0.467-0.111,0.696-0.179
	c0.186-0.055,0.366-0.12,0.548-0.183c0.206-0.071,0.41-0.143,0.611-0.224c0.192-0.077,0.379-0.161,0.565-0.247
	c0.18-0.083,0.358-0.167,0.533-0.257c0.197-0.101,0.389-0.207,0.58-0.318c0.152-0.088,0.302-0.179,0.45-0.273
	c0.202-0.128,0.401-0.26,0.596-0.399c0.121-0.087,0.239-0.176,0.357-0.267c0.209-0.16,0.415-0.323,0.615-0.495
	c0.085-0.073,0.166-0.151,0.249-0.226c0.221-0.2,0.438-0.404,0.644-0.618c0.036-0.038,0.069-0.077,0.105-0.115
	c1.826-1.942,3.065-4.433,3.45-7.203C490.708,493.33,490.708,493.329,490.708,493.329z"/>
<path d="M477.643,470.998h-4.439c-1.964-18.773-15.407-34.172-33.163-39.052V180.303c0-4.028-3.265-7.293-7.293-7.293
	c-4.028,0-7.293,3.265-7.293,7.293v250.086c-0.027,0.001-0.054,0.005-0.081,0.007c-0.307,0.017-0.61,0.052-0.916,0.076
	c-0.569,0.044-1.138,0.086-1.702,0.15c-0.349,0.04-0.694,0.097-1.041,0.145c-0.515,0.071-1.031,0.14-1.542,0.228
	c-0.362,0.063-0.72,0.14-1.079,0.211c-0.49,0.097-0.98,0.193-1.465,0.306c-0.365,0.085-0.725,0.182-1.086,0.276
	c-0.472,0.122-0.944,0.245-1.411,0.382c-0.363,0.107-0.721,0.224-1.081,0.339c-0.458,0.147-0.914,0.296-1.366,0.457
	c-0.358,0.128-0.713,0.264-1.067,0.4c-0.444,0.171-0.886,0.346-1.323,0.531c-0.352,0.148-0.7,0.303-1.048,0.461
	c-0.361,0.164-0.722,0.328-1.079,0.501v-48.423c0-4.83-3.93-8.76-8.761-8.76h-35.254c-4.831,0-8.761,3.93-8.761,8.76v48.935
	c0,4.83,3.93,8.76,8.761,8.76h31.248c-0.219,0.227-0.445,0.447-0.66,0.68c-0.396,0.427-0.775,0.872-1.156,1.315
	c-0.186,0.217-0.38,0.425-0.562,0.646c-0.555,0.672-1.094,1.361-1.614,2.07c-0.821,0.167-1.63,0.367-2.43,0.588
	c-0.259,0.071-0.511,0.156-0.767,0.233c-0.54,0.162-1.076,0.329-1.605,0.515c-0.294,0.103-0.583,0.216-0.874,0.327
	c-0.484,0.184-0.963,0.375-1.437,0.579c-0.295,0.127-0.586,0.257-0.876,0.391c-0.467,0.216-0.927,0.442-1.383,0.677
	c-0.274,0.141-0.549,0.281-0.82,0.428c-0.481,0.263-0.952,0.541-1.419,0.825c-0.229,0.139-0.462,0.271-0.687,0.415
	c-0.614,0.391-1.215,0.801-1.803,1.227c-0.067,0.049-0.138,0.092-0.205,0.141c-0.656,0.483-1.294,0.989-1.916,1.514
	c-0.174,0.147-0.34,0.305-0.512,0.455c-0.438,0.384-0.872,0.774-1.291,1.179c-0.21,0.203-0.412,0.413-0.617,0.62
	c-0.368,0.373-0.73,0.751-1.082,1.139c-0.207,0.229-0.411,0.462-0.612,0.696c-0.336,0.391-0.663,0.789-0.982,1.193
	c-0.19,0.24-0.379,0.48-0.563,0.725c-0.324,0.433-0.635,0.876-0.94,1.324c-0.156,0.229-0.317,0.454-0.468,0.687
	c-0.361,0.557-0.704,1.127-1.035,1.705c-0.077,0.134-0.161,0.262-0.236,0.398c-0.401,0.719-0.777,1.454-1.13,2.204
	c-0.091,0.193-0.169,0.392-0.257,0.586c-0.206,0.459-0.418,0.915-0.606,1.384h-94.132V363.75l2.759,1.835
	c0.543,0.361,1.102,0.691,1.675,0.991c0.116,0.061,0.239,0.105,0.356,0.163c3.052,1.513,6.463,2.147,9.85,1.854
	c0.975-0.084,1.947-0.221,2.907-0.462c1.264-0.318,2.482-0.766,3.636-1.333c0.081-0.04,0.156-0.09,0.236-0.132
	c0.492-0.25,0.978-0.512,1.444-0.804c0.005-0.003,0.008-0.006,0.013-0.009c0.538-0.338,1.059-0.702,1.559-1.092
	c0.076-0.059,0.144-0.129,0.219-0.19c1.918-1.545,3.538-3.462,4.723-5.674c2.755-5.147,2.857-11.002,0.728-16.001h29.859
	c4.831,0,8.76-3.93,8.76-8.76v-48.935c0-4.83-3.929-8.76-8.76-8.76H295.43c-4.831,0-8.76,3.93-8.76,8.76v44.617l-15.944-10.606
	V285.2c0-4.83-3.93-8.76-8.761-8.76H226.71c-4.475,0-8.17,3.374-8.691,7.71l-17.358-11.546V45.344h16.155h192.484h16.155v89.648
	c0,4.028,3.265,7.293,7.293,7.293c4.028,0,7.293-3.265,7.293-7.293V43.018c0-6.76-5.5-12.26-12.26-12.26h-11.187V10.496
	C416.592,4.709,411.883,0,406.096,0H220.018c-5.788,0-10.496,4.709-10.496,10.496v20.261h-11.187c-6.76,0-12.26,5.5-12.26,12.26
	v219.885l-8.948-5.952c-3.462-2.304-7.935-2.304-11.395-0.001l-29.81,19.83v-9.838c0-6.459-5.254-11.713-11.713-11.713H89.397
	c-6.459,0-11.713,5.255-11.713,11.713v11.617c0,4.467,2.515,8.355,6.202,10.33v22.505l-35.047,23.315
	c-8,5.321-10.613,15.721-6.078,24.19c2.46,4.597,6.772,7.961,11.828,9.232c1.485,0.373,2.999,0.557,4.507,0.557
	c3.626,0,7.215-1.062,10.281-3.101h0.001l2.759-1.835v35.992c0,4.028,3.265,7.293,7.293,7.293s7.293-3.265,7.293-7.293v-45.695
	l71.954-47.865l12.752-8.482l84.706,56.347v116.951h-93.503v-78.361c0-5.756-4.683-10.439-10.439-10.439h-47.634
	c-5.757,0-10.439,4.683-10.439,10.439v78.361h-7.397v-25.944c0-4.028-3.265-7.293-7.293-7.293s-7.293,3.265-7.293,7.293v25.944
	h-37.78c-11.304,0-20.501,9.197-20.501,20.501s9.196,20.5,20.5,20.5h443.286c11.304,0,20.501-9.197,20.501-20.501
	S488.946,470.998,477.643,470.998z M393.579,429.545h-23.604v-37.283h23.604V429.545z M301.255,291.027h23.603v37.283h-23.603
	V291.027z M224.108,14.586h177.897v16.172H224.108V14.586z M381.708,470.795c0.071-0.088,0.144-0.174,0.216-0.26
	c0.298-0.356,0.605-0.704,0.924-1.04c0.029-0.03,0.056-0.062,0.085-0.092c0.342-0.356,0.7-0.696,1.065-1.028
	c0.086-0.078,0.173-0.156,0.26-0.232c0.371-0.326,0.749-0.643,1.141-0.944c0.032-0.025,0.066-0.047,0.098-0.072
	c0.37-0.281,0.752-0.547,1.14-0.804c0.093-0.061,0.186-0.124,0.28-0.184c0.413-0.264,0.834-0.517,1.266-0.753
	c0.073-0.04,0.148-0.077,0.222-0.116c0.39-0.208,0.787-0.404,1.191-0.589c0.088-0.04,0.175-0.083,0.264-0.122
	c0.452-0.2,0.913-0.384,1.38-0.553c0.099-0.036,0.199-0.069,0.298-0.103c0.432-0.15,0.87-0.288,1.314-0.411
	c0.063-0.017,0.125-0.038,0.189-0.055c0.488-0.13,0.984-0.241,1.484-0.338c0.115-0.022,0.23-0.043,0.345-0.063
	c0.512-0.091,1.027-0.171,1.55-0.226c2.231-0.235,4.23-1.483,5.418-3.384c5.69-9.093,15.475-14.522,26.173-14.522
	c0.6,0,1.205,0.021,1.821,0.06c0.045,0.003,0.09,0.006,0.135,0.009c0.612,0.041,1.235,0.099,1.881,0.179
	c0.027,0.003,0.054,0.003,0.081,0.006c13.604,1.732,24.472,12.352,26.57,25.84h-76.946
	C381.607,470.931,381.656,470.861,381.708,470.795z M232.535,291.027h23.604v18.483l-23.604-15.702L232.535,291.027L232.535,291.027
	z M92.271,269.813h29.066v5.872H92.271V269.813z M115.133,290.272v0.336L98.472,301.69v-11.419h16.661V290.272z M177.126,283.971
	c-1.197-0.796-2.518-1.297-3.873-1.543c-0.114-0.021-0.226-0.059-0.34-0.076c-0.029-0.004-0.059-0.002-0.088-0.006
	c-2.007-0.276-4.07,0.053-5.932,0.972c-0.395,0.195-0.786,0.404-1.16,0.653L75.39,344.067c-0.002,0.001-0.003,0.003-0.005,0.004
	l-14.086,9.37c-1.267,0.844-2.521,0.702-3.156,0.543c-0.633-0.159-1.804-0.627-2.523-1.97c-0.968-1.807-0.41-4.026,1.297-5.162
	l114.512-76.174l49.769,33.107c0.002,0.001,0.003,0.002,0.005,0.003l21.399,14.235l43.338,28.829
	c1.706,1.135,2.264,3.354,1.296,5.162c-0.719,1.343-1.89,1.81-2.523,1.969c-0.634,0.159-1.887,0.301-3.156-0.543l-14.091-9.374
	L177.126,283.971z M108.706,396.783h39.339v74.215h-39.339V396.783z M477.643,497.414H34.356c-3.262,0-5.915-2.654-5.915-5.915
	s2.653-5.915,5.915-5.915h45.073h21.983h53.925h108.089h106.78h95.859h11.576c3.262,0,5.915,2.654,5.915,5.915
	S480.904,497.414,477.643,497.414z"/>
<path d="M239.16,444.131c4.028,0,7.293-3.265,7.293-7.293V402.07c0-5.182-4.215-9.397-9.396-9.397h-57.162
	c-5.182,0-9.397,4.216-9.397,9.397v34.768c0,4.028,3.265,7.293,7.293,7.293H239.16z M185.081,407.258h46.784v22.287h-46.784V407.258
	z"/>
<path d="M270.726,82.731c0-4.831-3.929-8.761-8.76-8.761H226.71c-4.831,0-8.76,3.93-8.76,8.761v48.935c0,4.83,3.929,8.76,8.76,8.76
	h35.255c4.831,0,8.76-3.93,8.76-8.76V82.731H270.726z M256.14,125.839h-23.603V88.556h23.603V125.839z"/>
<path d="M339.445,82.731c0-4.831-3.929-8.761-8.76-8.761H295.43c-4.831,0-8.76,3.93-8.76,8.761v48.935c0,4.83,3.929,8.76,8.76,8.76
	h35.255c4.831,0,8.76-3.93,8.76-8.76L339.445,82.731L339.445,82.731z M324.859,125.839h-23.603V88.556h23.603V125.839z"/>
<path d="M408.165,82.731c0-4.831-3.93-8.761-8.761-8.761h-35.254c-4.831,0-8.761,3.93-8.761,8.761v48.935
	c0,4.83,3.93,8.76,8.761,8.76h35.254c4.831,0,8.761-3.93,8.761-8.76V82.731z M393.579,125.839h-23.604V88.556h23.604V125.839z"/>
<path d="M261.964,175.206H226.71c-4.831,0-8.76,3.93-8.76,8.76V232.9c0,4.831,3.929,8.761,8.76,8.761h35.255
	c4.831,0,8.76-3.93,8.76-8.761v-48.935C270.726,179.136,266.795,175.206,261.964,175.206z M256.14,227.075h-23.603v-37.283h23.603
	V227.075z"/>
<path d="M330.685,175.206H295.43c-4.831,0-8.76,3.93-8.76,8.76V232.9c0,4.831,3.929,8.761,8.76,8.761h35.255
	c4.831,0,8.76-3.93,8.76-8.761v-48.935C339.445,179.136,335.516,175.206,330.685,175.206z M324.859,227.075h-23.603v-37.283h23.603
	V227.075z"/>
<path d="M408.165,183.966c0-4.83-3.93-8.76-8.761-8.76h-35.254c-4.831,0-8.761,3.93-8.761,8.76V232.9
	c0,4.831,3.93,8.761,8.761,8.761h35.254c4.831,0,8.761-3.93,8.761-8.761V183.966z M393.579,227.075h-23.604v-37.283h23.604V227.075z
	"/>
<path d="M399.404,276.441h-35.254c-4.831,0-8.761,3.93-8.761,8.76v48.935c0,4.83,3.93,8.76,8.761,8.76h35.254
	c4.831,0,8.761-3.93,8.761-8.76v-48.935C408.165,280.371,404.234,276.441,399.404,276.441z M393.579,328.31h-23.604v-37.283h23.604
	V328.31z"/>
<path d="M293.963,377.676c-4.028,0-7.293,3.265-7.293,7.293v51.869c0,4.028,3.265,7.293,7.293,7.293h38.189
	c4.028,0,7.293-3.265,7.293-7.293v-51.869c0-4.028-3.265-7.293-7.293-7.293H293.963z M324.859,429.545h-23.603v-37.283h23.603
	V429.545z"/>
<g>
</g>
<g>
</g>
<g>
</g>
<g>
</g>
<g>
</g>
<g>
</g>
<g>
</g>
<g>
</g>
<g>
</g>
<g>
</g>
<g>
</g>
<g>
</g>
<g>
</g>
<g>
</g>
<g>
</g>
</svg>
