<?xml version="1.0" encoding="iso-8859-1"?>
<!-- Generator: Adobe Illustrator 19.0.0, SVG Export Plug-In . SVG Version: 6.00 Build 0)  -->
<svg version="1.1" id="Capa_1" xmlns="http://www.w3.org/2000/svg" xmlns:xlink="http://www.w3.org/1999/xlink" x="0px" y="0px"
	 viewBox="0 0 512 512" style="enable-background:new 0 0 512 512;" xml:space="preserve">
<path style="fill:#D59C6E;" d="M470.32,143.02H41.68c-15.642,0-28.323,12.681-28.323,28.323v263.075
	c0,15.642,12.681,28.323,28.323,28.323h428.64c15.642,0,28.323-12.681,28.323-28.323V171.343
	C498.643,155.701,485.962,143.02,470.32,143.02z"/>
<path style="opacity:0.1;enable-background:new    ;" d="M470.32,143.02h-9.584v258.177c0,15.642-12.681,28.323-28.323,28.323
	H13.357v4.898c0,15.642,12.681,28.323,28.323,28.323h428.64c15.642,0,28.323-12.681,28.323-28.323V171.343
	C498.643,155.701,485.962,143.02,470.32,143.02z"/>
<path style="opacity:0.15;enable-background:new    ;" d="M470.32,143.02H41.68c-15.642,0-28.323,12.681-28.323,28.323v95.191
	c0,25.529,20.695,46.224,46.224,46.224H452.42c25.529,0,46.224-20.695,46.224-46.224v-95.191
	C498.643,155.701,485.962,143.02,470.32,143.02z"/>
<path style="opacity:0.1;enable-background:new    ;" d="M306.2,295.309H205.8c-6.961,0-12.603,5.643-12.603,12.603v40.715
	c0,6.961,5.643,12.603,12.603,12.603h100.4c6.961,0,12.603-5.643,12.603-12.603v-40.715
	C318.803,300.952,313.16,295.309,306.2,295.309z"/>
<path style="fill:#F6D83E;" d="M306.2,279.797H205.8c-6.961,0-12.603,5.643-12.603,12.603v40.715
	c0,6.961,5.643,12.603,12.603,12.603h100.4c6.961,0,12.603-5.643,12.603-12.603V292.4C318.803,285.44,313.16,279.797,306.2,279.797z
	"/>
<g>
	<path style="fill:#394049;" d="M35.959,430.505v-11.878c0-3.837-3.11-6.947-6.947-6.947H11.455c-2.185,0-3.955,1.771-3.955,3.955
		v34.791c0,10.036,8.135,18.171,18.171,18.171h34.791c2.184,0,3.955-1.771,3.955-3.955v-17.557c0-3.837-3.11-6.947-6.946-6.947
		H45.594C40.272,440.139,35.959,435.826,35.959,430.505z"/>
	<path style="fill:#394049;" d="M476.041,430.505v-11.878c0-3.837,3.11-6.947,6.947-6.947h17.557c2.185,0,3.955,1.771,3.955,3.955
		v34.791c0,10.036-8.136,18.171-18.171,18.171h-34.791c-2.184,0-3.955-1.771-3.955-3.955v-17.557c0-3.837,3.11-6.947,6.947-6.947
		h11.877C471.728,440.139,476.041,435.826,476.041,430.505z"/>
</g>
<path style="fill:#D59C6E;" d="M392.241,143.02H357.1V90.109c0-6.161-3.848-11.566-8.235-11.566h-185.73
	c-4.387,0-8.235,5.405-8.235,11.566v52.911h-35.141V90.109c0-25.754,19.458-46.707,43.376-46.707h185.73
	c23.918,0,43.376,20.953,43.376,46.707L392.241,143.02L392.241,143.02z"/>
<rect x="175.97" y="43.4" style="fill:#394049;" width="160.07" height="35.14"/>
<rect x="119.76" y="115.43" style="opacity:0.1;enable-background:new    ;" width="35.14" height="27.592"/>
<rect x="357.1" y="115.43" style="opacity:0.1;enable-background:new    ;" width="35.14" height="27.592"/>
<path style="opacity:0.1;enable-background:new    ;" d="M299.684,405.549h-87.367c-4.142,0-7.5-3.357-7.5-7.5
	c0-4.142,3.358-7.5,7.5-7.5h87.367c4.143,0,7.5,3.358,7.5,7.5S303.826,405.549,299.684,405.549z"/>
<path d="M233.158,320.258h45.684c4.143,0,7.5-3.357,7.5-7.5s-3.357-7.5-7.5-7.5h-45.684c-4.142,0-7.5,3.357-7.5,7.5
	C225.658,316.9,229.016,320.258,233.158,320.258z M13.357,342.898c4.142,0,7.5-3.357,7.5-7.5v-31.684
	c9.783,10.185,23.52,16.543,38.724,16.543h126.116v12.857c0,11.085,9.018,20.104,20.104,20.104h100.4
	c11.085,0,20.103-9.019,20.103-20.104v-12.857h29.547c4.143,0,7.5-3.357,7.5-7.5s-3.357-7.5-7.5-7.5h-29.547V292.4
	c0-11.085-9.018-20.103-20.103-20.103H205.8c-11.085,0-20.104,9.018-20.104,20.103v12.857H59.581
	c-21.352,0-38.724-17.371-38.724-38.724v-95.191c0-11.482,9.341-20.823,20.823-20.823h78.059c0.007,0,0.013,0.001,0.019,0.001
	s0.013-0.001,0.019-0.001h35.103c0.007,0,0.013,0.001,0.019,0.001s0.013-0.001,0.019-0.001H357.08c0.007,0,0.013,0.001,0.019,0.001
	c0.007,0,0.013-0.001,0.019-0.001h35.103c0.007,0,0.013,0.001,0.019,0.001c0.007,0,0.013-0.001,0.019-0.001h29.68
	c4.143,0,7.5-3.357,7.5-7.5s-3.357-7.5-7.5-7.5H399.74v-45.41c0-29.891-22.823-54.208-50.876-54.208h-185.73
	c-28.053,0-50.876,24.317-50.876,54.208v45.41H41.68c-19.753,0-35.823,16.07-35.823,35.823v164.056
	C5.857,339.541,9.215,342.898,13.357,342.898z M200.697,292.4c0-2.814,2.29-5.103,5.104-5.103h100.4
	c2.814,0,5.103,2.289,5.103,5.103v40.715c0,2.814-2.289,5.104-5.103,5.104H205.8c-2.814,0-5.104-2.289-5.104-5.104V292.4H200.697z
	 M349.6,135.52H162.4V90.11c0-2.016,0.825-3.52,1.336-4.066h184.527c0.511,0.547,1.336,2.051,1.336,4.066v45.41H349.6z
	 M343.535,50.901h5.33c19.782,0,35.876,17.589,35.876,39.208v45.41H364.6v-45.41c0-10.514-7.059-19.066-15.734-19.066h-5.33V50.901
	H343.535z M183.465,50.901h145.07v20.142h-145.07V50.901z M127.259,90.109c0-21.619,16.094-39.208,35.876-39.208h5.33v20.142h-5.33
	c-8.676,0-15.735,8.553-15.735,19.066v45.41h-20.141C127.259,135.519,127.259,90.109,127.259,90.109z M506.143,405.652V171.343
	c0-19.753-16.069-35.823-35.822-35.823h-13.27c-4.143,0-7.5,3.357-7.5,7.5s3.357,7.5,7.5,7.5h13.27
	c11.481,0,20.822,9.341,20.822,20.823v95.191c0,21.352-17.371,38.724-38.724,38.724h-58.177c-4.143,0-7.5,3.357-7.5,7.5
	s3.357,7.5,7.5,7.5h58.177c15.203,0,28.941-6.358,38.724-16.543v100.466h-8.155c-7.966,0-14.446,6.48-14.446,14.446v11.878
	c0,1.177-0.958,2.135-2.135,2.135H454.53c-7.966,0-14.447,6.48-14.447,14.446v8.155H71.917v-8.155
	c0-7.966-6.48-14.446-14.446-14.446H45.594c-1.177,0-2.135-0.958-2.135-2.135v-11.878c0-7.966-6.481-14.446-14.447-14.446h-8.155
	V368.92c0-4.143-3.358-7.5-7.5-7.5s-7.5,3.357-7.5,7.5v36.732C2.366,407.617,0,411.353,0,415.636v34.791
	c0,14.155,11.516,25.672,25.671,25.672h34.791c4.283,0,8.019-2.366,9.984-5.857h371.107c1.965,3.491,5.701,5.857,9.985,5.857h34.791
	c14.155,0,25.671-11.517,25.671-25.672v-34.791C512,411.353,509.633,407.617,506.143,405.652z M56.917,461.099H25.671
	c-5.884,0-10.671-4.787-10.671-10.672v-31.246h13.459v11.324c0,9.448,7.686,17.135,17.135,17.135h11.324v13.459H56.917z
	 M497,450.427c0,5.885-4.787,10.672-10.671,10.672h-31.247V447.64h11.324c9.448,0,17.135-7.686,17.135-17.135v-11.324H497V450.427z"
	/>
<g>
</g>
<g>
</g>
<g>
</g>
<g>
</g>
<g>
</g>
<g>
</g>
<g>
</g>
<g>
</g>
<g>
</g>
<g>
</g>
<g>
</g>
<g>
</g>
<g>
</g>
<g>
</g>
<g>
</g>
</svg>
