<?xml version="1.0" encoding="iso-8859-1"?>
<!-- Generator: Adobe Illustrator 19.0.0, SVG Export Plug-In . SVG Version: 6.00 Build 0)  -->
<svg xmlns="http://www.w3.org/2000/svg" xmlns:xlink="http://www.w3.org/1999/xlink" version="1.1" id="Layer_1" x="0px" y="0px" viewBox="0 0 512.039 512.039" style="enable-background:new 0 0 512.039 512.039;" xml:space="preserve" width="512" height="512">
<g id="XMLID_1258_">
	<path id="XMLID_2497_" style="fill:#00CCF2;" d="M205.633,95.159c-18.923,23.243-44.148,39.914-72.949,48.211   c-9.416,2.712-14.85,12.543-12.138,21.958c2.558,8.88,11.447,14.217,20.348,12.522c0.537-0.102,1.076-0.23,1.611-0.384   c14.655-4.222,28.563-10.19,41.495-17.748L205.633,95.159z"/>
	<path id="XMLID_2465_" style="fill:#00CCF2;" d="M256.123,204.264l19.316-55.177c5.827,0.906,11.681,1.37,17.513,1.37   c26.296,0,52.126-9.104,72.888-26.349l2.382-1.979c7.398-6.147,8.921-17.135,3.042-24.749c-6.172-7.993-17.686-9.215-25.389-2.815   l-2.708,2.25c-4.621,3.839-9.607,7.092-14.85,9.737c-20.449,10.316-45.023,4.975-60.604-11.812   c-7.624-8.214-18.523-13.43-30.804-13.43l0,0c-19.147,0-35.876,12.934-40.696,31.464l-23.8,91.49H256.123z"/>
	<path id="XMLID_1201_" style="fill:#FFBE52;" d="M172.411,204.264l-69.924,183.355c-4.542,11.909,3.199,24.942,15.83,26.652   l0.467,0.063c8.645,1.17,16.973-3.214,20.852-10.906c19.775-39.208,78.152-154.629,78.152-154.629h23.708l-12.09,76.012   c-1.79,11.251,6.904,21.437,18.296,21.437h0c8.319,0,15.618-5.545,17.848-13.559l22.722-81.646   c6.543-23.509-11.135-46.779-35.538-46.779h-10.823H172.411z"/>
	<g id="XMLID_2445_">
		<polygon id="XMLID_2448_" style="fill:#FF6371;" points="501.996,222.43 415.812,239.775 434.543,258.506 374.639,318.41     332.143,275.913 134.7,473.358 163.382,502.039 332.143,333.279 374.639,375.776 463.227,287.189 484.651,308.614   "/>
		<polygon id="XMLID_2446_" style="fill:#FF6371;" points="501.996,222.43 415.812,239.775 434.543,258.506 374.639,318.41     332.143,275.913 134.7,473.358 163.382,502.039 332.143,333.279 374.639,375.776 463.227,287.189 484.651,308.614   "/>
	</g>
	<circle id="XMLID_2427_" style="fill:#FED2A4;" cx="262.856" cy="45.655" r="35.655"/>
	<g id="XMLID_1020_">
		<path id="XMLID_1033_" style="fill:#FF9357;" d="M87.756,279.308L13.85,205.402c-5.077-5.077-5.077-13.308,0-18.385l53.647-53.647    c5.077-5.077,13.308-5.077,18.385,0l73.906,73.906c5.077,5.077,5.077,13.308,0,18.385l-53.647,53.647    C101.064,284.384,92.833,284.384,87.756,279.308z"/>
		<path id="XMLID_1031_" style="fill:#FFFFFF;" d="M75.874,217.904l-3.058-3.058c-5.372-5.372-5.372-14.081,0-19.452L85.6,182.61    l22.51,22.51l-12.784,12.784C89.954,223.275,81.245,223.275,75.874,217.904z"/>
	</g>
	<g id="XMLID_1850_">
		<path id="XMLID_1911_" d="M509.067,215.358c-2.367-2.366-5.766-3.391-9.044-2.732l-86.184,17.345    c-3.613,0.728-6.534,3.384-7.6,6.911c-1.066,3.528-0.105,7.357,2.501,9.964l11.66,11.66l-45.762,45.762l-35.426-35.426    c-1.876-1.875-4.419-2.929-7.071-2.929s-5.195,1.054-7.071,2.929L281.6,312.313l16.306-58.59    c3.964-14.243,1.108-29.163-7.835-40.936c-5.478-7.21-12.71-12.526-20.886-15.572l13.035-37.236    c3.597,0.316,7.185,0.477,10.732,0.477c28.876,0,57.03-10.178,79.277-28.657l2.383-1.979c11.729-9.745,13.733-26.68,4.565-38.552    c-4.649-6.021-11.367-9.797-18.917-10.631c-7.553-0.835-14.933,1.381-20.777,6.236l-2.707,2.249    c-3.989,3.313-8.351,6.174-12.965,8.501c-15.42,7.778-34.676,4.314-47.471-8.349c18.612-5.765,32.17-23.139,32.17-43.621    C308.511,20.48,288.03,0,262.856,0c-25.175,0-45.655,20.48-45.655,45.654c0,10.018,3.251,19.286,8.742,26.822    c-10.386,2.236-19.733,7.591-26.885,15.162c-0.417,0.366-0.817,0.762-1.179,1.208c-17.629,21.654-41.131,37.186-67.964,44.915    c-7.265,2.094-13.015,6.918-16.466,13.034l-20.496-20.496c-8.968-8.967-23.558-8.966-32.527,0l-26.823,26.824l0,0l0,0    L6.78,179.946c-4.345,4.344-6.737,10.119-6.737,16.264c0,6.144,2.393,11.919,6.736,16.264l73.905,73.905    c4.345,4.344,10.12,6.736,16.264,6.736c6.145,0,11.92-2.393,16.264-6.736l27.773-27.773l-13.169,34.532    c-1.968,5.16,0.62,10.939,5.78,12.907c1.173,0.447,2.377,0.659,3.562,0.659c4.028,0,7.825-2.452,9.346-6.439l32.798-86.001h62.61    h10.823c8.479,0,16.282,3.872,21.411,10.623s6.767,15.307,4.493,23.474l-22.723,81.646c-1.022,3.674-4.4,6.24-8.214,6.24    c-3.422,0-5.532-1.874-6.485-2.991s-2.473-3.496-1.936-6.874l12.091-76.012c0.46-2.891-0.37-5.837-2.27-8.063    c-1.9-2.226-4.68-3.508-7.606-3.508h-23.708c-3.771,0-7.222,2.121-8.924,5.486c-0.584,1.154-58.605,115.875-78.157,154.639    c-1.957,3.882-6.212,6.097-10.575,5.5l-0.474-0.064c-2.977-0.402-5.563-2.114-7.098-4.697s-1.8-5.674-0.729-8.48l6.162-16.157    c1.968-5.16-0.62-10.938-5.78-12.907c-5.159-1.968-10.938,0.621-12.907,5.78l-6.162,16.157    c-3.259,8.546-2.449,17.957,2.222,25.821c4.671,7.863,12.548,13.077,21.604,14.303l0.474,0.063    c1.371,0.187,2.737,0.276,4.094,0.276c11.322,0,21.852-6.326,27.027-16.588c17.078-33.86,63.524-125.706,75.372-149.132h5.843    l-10.25,64.441c-1.313,8.257,1.047,16.641,6.476,23c3.492,4.091,8.014,7.052,13.02,8.649L127.629,466.286    c-1.875,1.876-2.929,4.419-2.929,7.071s1.054,5.196,2.929,7.071l28.683,28.682c1.953,1.952,4.512,2.929,7.071,2.929    s5.118-0.977,7.071-2.929l55.141-55.141c3.905-3.905,3.905-10.237,0-14.143c-3.906-3.904-10.236-3.904-14.143,0l-48.069,48.07    l-14.54-14.54l183.3-183.302l35.426,35.426c1.876,1.875,4.419,2.929,7.071,2.929s5.195-1.054,7.071-2.929l59.903-59.904    c3.905-3.905,3.905-10.237,0-14.143l-5.538-5.538l53.149-10.696l-10.696,53.149l-8.231-8.231c-3.906-3.904-10.236-3.904-14.143,0    l-81.516,81.516l-35.426-35.426c-3.906-3.904-10.236-3.904-14.143,0l-57.051,57.051c-3.905,3.905-3.905,10.237,0,14.143    c3.906,3.904,10.236,3.904,14.143,0l49.979-49.979l35.426,35.426c3.906,3.904,10.236,3.904,14.143,0l81.516-81.516l14.354,14.354    c2.606,2.606,6.437,3.569,9.963,2.501c3.528-1.065,6.185-3.986,6.912-7.6l17.345-86.185    C512.46,221.121,511.434,217.726,509.067,215.358z M262.856,20c14.146,0,25.654,11.509,25.654,25.654    c0,14.146-11.509,25.655-25.654,25.655c-14.146,0-25.655-11.509-25.655-25.655C237.201,31.509,248.71,20,262.856,20z     M163.904,197.25l-12.17-12.17c5.78-1.886,11.457-4.043,17.015-6.456L163.904,197.25z M130.155,162.562    c-1.182-4.102,1.195-8.4,5.297-9.582c16.439-4.736,31.772-12.048,45.586-21.597l-5.647,21.71    c-11.242,6.212-23.211,11.18-35.657,14.765c-0.231,0.066-0.473,0.124-0.712,0.17c-1.845,0.351-3.691-0.016-5.241-0.9l-2.929-2.929    C130.563,163.688,130.323,163.144,130.155,162.562z M74.567,140.441c0.585-0.585,1.354-0.877,2.122-0.877s1.537,0.292,2.121,0.877    l36.452,36.452c1.691,2.309,3.707,4.322,5.978,5.978l31.476,31.476c1.17,1.169,1.17,3.073,0,4.242l-19.752,19.752l-21.967-21.967    l4.184-4.184c3.905-3.905,3.905-10.237,0-14.143l-22.51-22.51c-3.906-3.904-10.236-3.904-14.143,0l-4.184,4.184l-19.529-19.529    L74.567,140.441z M88.255,210.832c-0.957,0.957-2.074,1.101-2.655,1.101c-0.58,0-1.697-0.144-2.654-1.1v-0.001l-3.059-3.058    c-0.956-0.957-1.1-2.074-1.1-2.654c0-0.581,0.144-1.698,1.101-2.655l5.712-5.712l8.367,8.367L88.255,210.832z M99.069,272.237    c-0.727,0.726-1.554,0.878-2.121,0.878c-0.566,0-1.395-0.152-2.121-0.879l-73.905-73.905c-0.727-0.727-0.879-1.555-0.879-2.121    c0-0.567,0.152-1.395,0.879-2.121l19.751-19.752L61.137,194.8c-1.535,3.178-2.35,6.686-2.35,10.32    c0,6.346,2.472,12.311,6.958,16.797l3.058,3.057v0.001c4.486,4.486,10.452,6.958,16.797,6.958c3.634,0,7.142-0.814,10.32-2.35    l22.902,22.902L99.069,272.237z M241.911,194.264h-56.564l20.543-78.973c3.674-14.12,16.429-23.981,31.019-23.981    c9.013,0,17.35,3.634,23.475,10.233c18.788,20.244,48.577,25.975,72.436,13.938c5.958-3.005,11.59-6.696,16.738-10.974    l2.707-2.249c1.632-1.356,3.691-1.978,5.801-1.74c2.105,0.232,3.981,1.288,5.283,2.975c2.513,3.253,1.832,8.163-1.516,10.944    l-2.382,1.979c-18.664,15.504-42.28,24.042-66.498,24.042c-5.259,0-10.634-0.421-15.977-1.252    c-4.769-0.748-9.382,2.024-10.976,6.577l-16.972,48.481H241.911z"/>
		<path id="XMLID_1920_" d="M246.996,408.8c-2.63,0-5.21,1.069-7.07,2.93c-1.86,1.859-2.93,4.439-2.93,7.07    c0,2.64,1.069,5.21,2.93,7.069c1.86,1.87,4.44,2.931,7.07,2.931s5.21-1.061,7.069-2.931c1.86-1.859,2.931-4.43,2.931-7.069    c0-2.631-1.07-5.211-2.931-7.07C252.206,409.869,249.626,408.8,246.996,408.8z"/>
		<path id="XMLID_1921_" d="M122.886,344.14c2.63,0,5.21-1.07,7.07-2.931c1.859-1.859,2.93-4.439,2.93-7.069s-1.07-5.21-2.93-7.07    c-1.87-1.86-4.44-2.93-7.07-2.93s-5.21,1.069-7.08,2.93c-1.859,1.86-2.92,4.44-2.92,7.07s1.061,5.21,2.92,7.069    C117.676,343.069,120.246,344.14,122.886,344.14z"/>
	</g>
</g>















</svg>
