<svg id="Layer_1" height="512" viewBox="0 0 256 256" width="512" xmlns="http://www.w3.org/2000/svg"><g><path d="m92.128 24.953c-27.756 27.758-14.496 74.548 22.155 84.662 2.477.684 4.521 2.439 5.686 4.729l8.006 15.738 8.006-15.739c1.165-2.29 3.208-4.045 5.685-4.728 36.645-10.113 49.913-56.893 22.163-84.655-19.705-19.712-51.994-19.716-71.701-.007z" fill="#f0c020"/><path d="m189.051 109.785c-3.961-1.309-8.051-2.453-10.348-12.345-2.115 9.112-5.504 10.745-10.348 12.345 7.9 2.61 9.092 6.933 10.348 12.345 2.165-9.33 5.746-10.824 10.348-12.345z" fill="#f0c020"/><path d="m176.113 122.731c-1.147-4.945-1.905-8.212-8.591-10.421-2.43-.803-2.424-4.25 0-5.051 4.025-1.33 6.684-2.209 8.591-10.422.633-2.73 4.546-2.737 5.181 0 1.95 8.399 4.863 9.193 8.591 10.421 2.43.803 2.424 4.25 0 5.051-3.881 1.282-6.686 2.209-8.591 10.421-.636 2.743-4.544 2.744-5.181.001zm-1.52-12.885c1.914 1.314 3.222 2.815 4.164 4.403 1.141-2.017 2.462-3.405 3.934-4.439-1.411-1.01-2.778-2.44-3.977-4.601-1.187 2.133-2.573 3.574-4.121 4.637z"/><path d="m87.644 109.785c-3.961-1.309-8.051-2.453-10.348-12.345-2.115 9.112-5.504 10.745-10.348 12.345 7.9 2.61 9.092 6.933 10.348 12.345 2.165-9.33 5.746-10.824 10.348-12.345z" fill="#f0c020"/><path d="m74.705 122.731c-1.147-4.945-1.905-8.212-8.591-10.421-2.43-.803-2.424-4.25 0-5.051 4.025-1.33 6.684-2.209 8.591-10.422.633-2.73 4.546-2.737 5.181 0 1.95 8.399 4.863 9.193 8.591 10.421 2.43.803 2.424 4.25 0 5.051-3.881 1.282-6.686 2.209-8.591 10.421-.636 2.743-4.544 2.744-5.181.001zm-1.52-12.885c1.914 1.314 3.222 2.815 4.164 4.403 1.141-2.017 2.462-3.405 3.934-4.439-1.411-1.01-2.778-2.44-3.977-4.601-1.186 2.133-2.572 3.574-4.121 4.637z"/><path d="m83.759 201.748v45.945h-38.274v-45.945c0-2.761 2.239-5 5-5h28.274c2.761 0 5 2.238 5 5z" fill="#fb5c3c"/><path d="m45.485 240.693h38.274v7h-38.274z" fill="#b14e34"/><path d="m147.879 148.5v99.193h-38.259v-99.193c0-2.761 2.239-5 5-5h28.259c2.762 0 5 2.239 5 5z" fill="#72c2e9"/><path d="m109.621 240.693h38.259v7h-38.259z" fill="#4ba4c7"/><path d="m212.015 185.889v61.804h-38.274v-61.804c0-2.761 2.239-5 5-5h28.274c2.762 0 5 2.239 5 5z" fill="#13bf6d"/><path d="m173.741 240.693h38.274v7h-38.274z" fill="#0e9b6d"/><path d="m147.018 96.912c-.713-1.182-.333-2.719.85-3.432.796-.48 1.586-.999 2.347-1.542 1.122-.801 2.685-.541 3.487.585.801 1.124.539 2.686-.585 3.487-.864.616-1.762 1.205-2.667 1.751-1.17.708-2.713.343-3.432-.849zm10.362-7.795c-1.057-.889-1.192-2.465-.304-3.522 5.876-6.988 9.112-15.887 9.111-25.055 0-20.475-16.844-37.944-38.212-37.944-8.293 0-16.166 2.603-22.768 7.525-1.107.826-2.674.597-3.498-.51-.825-1.106-.598-2.673.51-3.498 7.472-5.572 16.378-8.518 25.756-8.518 24.325 0 43.212 19.919 43.212 42.944.001 10.344-3.651 20.385-10.285 28.273-.888 1.058-2.466 1.194-3.522.305z" fill="#f7e4b0"/><path d="m73.759 236.875c-1.381 0-2.5-1.119-2.5-2.5v-3c0-1.381 1.119-2.5 2.5-2.5s2.5 1.119 2.5 2.5v3c0 1.381-1.119 2.5-2.5 2.5zm0-13c-1.381 0-2.5-1.119-2.5-2.5v-12.127h-15.774c-1.381 0-2.5-1.119-2.5-2.5s1.119-2.5 2.5-2.5h18.273c1.381 0 2.5 1.119 2.5 2.5v14.627c.001 1.381-1.118 2.5-2.499 2.5z" fill="#ffcac2"/><path d="m137.879 236.875c-1.381 0-2.5-1.119-2.5-2.5v-3c0-1.381 1.119-2.5 2.5-2.5s2.5 1.119 2.5 2.5v3c0 1.381-1.119 2.5-2.5 2.5zm0-13c-1.381 0-2.5-1.119-2.5-2.5v-65.375h-15.758c-1.381 0-2.5-1.119-2.5-2.5s1.119-2.5 2.5-2.5h18.258c1.381 0 2.5 1.119 2.5 2.5v67.875c0 1.381-1.119 2.5-2.5 2.5z" fill="#c4e4fd"/><path d="m202.015 236.875c-1.381 0-2.5-1.119-2.5-2.5v-3c0-1.381 1.119-2.5 2.5-2.5s2.5 1.119 2.5 2.5v3c0 1.381-1.119 2.5-2.5 2.5zm0-13c-1.381 0-2.5-1.119-2.5-2.5v-27.986h-15.773c-1.381 0-2.5-1.119-2.5-2.5s1.119-2.5 2.5-2.5h18.273c1.381 0 2.5 1.119 2.5 2.5v30.486c0 1.381-1.119 2.5-2.5 2.5z" fill="#73febb"/><path d="m128 92.403c1.381 0 2.5-1.119 2.5-2.5v-7.004h2.863c7.042 0 12.387-5.618 12.387-12.296 0-6.78-5.516-12.296-12.296-12.296h-10.908c-4.023 0-7.296-3.272-7.296-7.296 0-4.009 3.232-7.296 7.313-7.296h.056 10.448c3.185.023 6.259 1.751 8.021 4.507.744 1.164 2.29 1.502 3.453.76 1.163-.744 1.503-2.29.76-3.453-2.706-4.23-7.266-6.777-12.216-6.813h-2.585v-7.004c0-1.381-1.119-2.5-2.5-2.5s-2.5 1.119-2.5 2.5v7.004h-2.863c-7.144.051-12.387 5.678-12.387 12.296 0 6.78 5.516 12.296 12.296 12.296h10.908c4.023 0 7.296 3.272 7.296 7.296 0 3.926-3.128 7.296-7.368 7.296h-11.4c-2.788-.021-5.452-1.312-7.311-3.543-.884-1.06-2.461-1.204-3.521-.32s-1.204 2.46-.32 3.521c2.802 3.363 6.854 5.311 11.134 5.342h3.537v7.004c-.001 1.38 1.118 2.499 2.499 2.499z"/><circle cx="10.5" cy="161.5" r="2.5"/><path d="m10.5 154c1.38 0 2.5-1.12 2.5-2.5v-40c0-1.38-1.12-2.5-2.5-2.5s-2.5 1.12-2.5 2.5v40c0 1.38 1.12 2.5 2.5 2.5z"/><path d="m109.62 187.64c1.38 0 2.5-1.12 2.5-2.5 0-1.37-1.12-2.49-2.5-2.49s-2.5 1.12-2.5 2.49c0 1.38 1.12 2.5 2.5 2.5z"/><path d="m249.5 247.689c0-1.38-1.12-2.5-2.5-2.5h-32.485v-59.301c0-4.136-3.364-7.5-7.5-7.5h-28.273c-4.136 0-7.5 3.364-7.5 7.5v59.301h-20.862v-96.689c0-4.13-3.37-7.5-7.5-7.5h-28.26c-4.13 0-7.5 3.37-7.5 7.5v26.64c0 1.38 1.12 2.5 2.5 2.5s2.5-1.12 2.5-2.5v-26.64c0-1.38 1.12-2.5 2.5-2.5h28.26c1.37 0 2.5 1.12 2.5 2.5v96.689h-33.26v-50.05c0-1.37-1.12-2.49-2.5-2.49s-2.5 1.12-2.5 2.49v50.05h-20.861v-43.441c0-4.136-3.364-7.5-7.5-7.5h-28.274c-4.136 0-7.5 3.364-7.5 7.5v43.441h-29.985v-73.689c0-1.38-1.12-2.5-2.5-2.5-1.37 0-2.49 1.109-2.5 2.49v.01 76.189c0 1.41 1.137 2.5 2.5 2.5h236.5c1.38 0 2.5-1.12 2.5-2.5zm-168.241-2.5h-33.274v-43.441c0-1.379 1.121-2.5 2.5-2.5h28.273c1.379 0 2.5 1.121 2.5 2.5v43.441zm128.256 0h-33.273v-59.301c0-1.379 1.121-2.5 2.5-2.5h28.273c1.379 0 2.5 1.121 2.5 2.5z"/><path d="m128.02 7.67h-.029c-29.724 0-53.241 24.085-53.221 52.82-.02 22.909 14.723 44.876 38.851 51.529 1.75.48 3.25 1.74 4.12 3.46l8.01 15.74c.931 1.82 3.524 1.806 4.45 0l8.01-15.74c.87-1.72 2.37-2.979 4.12-3.46 23.976-6.618 38.85-28.422 38.85-51.54 0-2.689-.21-5.399-.62-8.05-.2-1.34-1.5-2.3-2.85-2.09-1.365.206-2.3 1.474-2.09 2.85.37 2.391.56 4.851.56 7.29-.011 21.811-14.481 41.021-35.181 46.721-3.101.859-5.74 3.05-7.25 6.01l-5.78 11.359-5.77-11.359c-1.511-2.96-4.15-5.15-7.25-6.01-20.7-5.7-35.17-24.91-35.181-46.71.022-25.768 20.997-47.82 48.23-47.82 17.308 0 32.47 9.011 41.06 22.84.752 1.211 2.31 1.512 3.45.8 1.16-.729 1.521-2.279.79-3.439-9.738-15.67-26.736-25.201-45.279-25.201z"/><path d="m176.45 45.49c1.349-.494 1.941-1.97 1.479-3.21-.47-1.261-1.95-1.94-3.22-1.48-1.306.506-1.949 1.92-1.47 3.21v.01c.483 1.302 1.96 1.959 3.211 1.47z"/></g></svg>