<svg id="Capa_1" enable-background="new 0 0 512 512" height="512" viewBox="0 0 512 512" width="512" xmlns="http://www.w3.org/2000/svg"><g><g><g><path d="m340.015 438.41c-1.468-1.468-3.694-1.829-5.572-.944-72.633 34.25-162.134 21.403-222.098-38.562-65.135-65.135-74.671-165.118-28.643-240.479 1.656-2.712 5.412-3.174 7.658-.927l8.431 8.431c2.897 2.897 7.859 1.162 8.319-2.909l7.514-66.412c.353-3.123-2.288-5.764-5.41-5.41l-66.412 7.515c-4.071.461-5.806 5.422-2.909 8.319l9.045 9.045c1.678 1.678 1.888 4.306.538 6.258-65.541 94.805-56.13 225.773 28.268 310.171 78.057 78.057 195.953 91.975 288.23 41.775 2.878-1.566 3.452-5.459 1.135-7.776z" fill="#97d729"/></g><g><g><path d="m104.198 427.749c-84.398-84.397-93.809-215.365-28.268-310.171 1.35-1.952 1.14-4.58-.538-6.258l-9.045-9.045c-1.743-1.743-1.8-4.229-.69-6.036l-21.855 2.473c-4.071.461-5.806 5.422-2.909 8.319l9.045 9.045c1.678 1.678 1.888 4.306.539 6.258-65.541 94.805-56.13 225.773 28.268 310.171 62.273 62.273 149.9 83.721 229.648 64.36-72.495 9.62-148.489-13.41-204.195-69.116z" fill="#8bc727"/></g></g><g><g><path d="m171.986 73.591c1.468 1.468 3.694 1.829 5.571.944 72.633-34.25 162.134-21.403 222.098 38.562 65.135 65.135 74.671 165.118 28.643 240.479-1.656 2.712-5.412 3.174-7.658.927l-8.431-8.431c-2.897-2.897-7.859-1.162-8.319 2.909l-7.514 66.412c-.353 3.123 2.288 5.764 5.41 5.41l66.412-7.514c4.071-.461 5.806-5.422 2.909-8.319l-9.045-9.045c-1.678-1.678-1.888-4.306-.538-6.258 65.541-94.805 56.13-225.773-28.268-310.171-78.057-78.057-195.953-91.975-288.23-41.775-2.878 1.566-3.452 5.459-1.135 7.776z" fill="#0593fc"/></g><g><g><path d="m440.884 329.244c43.635-74.934 33.404-172.849-30.729-236.982-59.964-59.964-149.465-72.812-222.098-38.562-1.878.885-4.104.524-5.572-.944l-22.5-22.5c-5.051 2.31-10.043 4.791-14.959 7.465-2.878 1.566-3.452 5.459-1.135 7.776l28.094 28.094c1.468 1.468 3.694 1.829 5.572.944 72.633-34.25 162.134-21.403 222.098 38.562 58.339 58.338 72.067 144.627 41.229 216.147z" fill="#0182fc"/></g></g></g></g><g><path d="m339.035 169.853v-41.018c0-3.569-2.893-6.462-6.462-6.462h-153.156c-3.569 0-6.462 2.893-6.462 6.462v41.018l57.097 74.34c5.348 6.963 5.348 16.652 0 23.615l-57.097 74.34h166.079l-57.097-74.34c-5.348-6.963-5.348-16.652 0-23.615z" fill="#b3dafe"/><path d="m298.298 342.148c-3.986-5.189-8.997-11.714-14.165-18.444-14.201-18.49-42.074-18.49-56.275 0-5.168 6.729-10.179 13.254-14.165 18.444z" fill="#d88a55"/><path d="m203.995 169.853h-31.04l57.097 74.34c5.348 6.963 5.348 16.652 0 23.615l-57.097 74.34h31.04l57.097-74.34c5.348-6.963 5.348-16.652 0-23.615z" fill="#8ac9fe"/><g><path d="m172.956 342.148v41.018c0 3.569 2.893 6.462 6.462 6.462h153.156c3.569 0 6.462-2.893 6.462-6.462v-41.018z" fill="#fed402"/></g><g><path d="m224.995 383.166v-41.018h-52.04v41.018c0 3.569 2.893 6.462 6.462 6.462h52.04c-3.569 0-6.462-2.893-6.462-6.462z" fill="#fac600"/></g><g><path d="m172.956 128.835v41.018h166.079v-41.018c0-3.569-2.893-6.462-6.462-6.462h-153.156c-3.569.001-6.461 2.894-6.461 6.462z" fill="#fed402"/></g><g><path d="m231.457 122.374h-52.04c-3.569 0-6.462 2.893-6.462 6.462v41.018h52.04v-41.018c0-3.569 2.893-6.462 6.462-6.462z" fill="#fac600"/></g><g><path d="m281.938 244.193 25.671-33.423h-103.227l25.671 33.423c3.363 4.379 4.608 9.836 3.741 15.015 13.529 9.423 22.116 15.403 22.201 15.464.085-.061 8.672-6.041 22.201-15.464-.866-5.179.378-10.636 3.742-15.015z" fill="#d88a55"/></g><g><path d="m230.053 244.193c3.364 4.379 4.608 9.836 3.741 15.015 12.693 8.84 21.035 14.65 22.088 15.385l5.211-6.784c5.348-6.963 5.348-16.652 0-23.615l-25.671-33.423h-31.04z" fill="#c57a44"/></g></g><g><g><circle cx="151.965" cy="256.001" fill="#fed402" r="23.262"/></g><g><path d="m149.472 256.001c0-9.114 5.244-16.999 12.877-20.814-3.127-1.563-6.651-2.447-10.385-2.447-12.847 0-23.261 10.415-23.261 23.262s10.415 23.262 23.261 23.262c3.733 0 7.258-.884 10.385-2.447-7.633-3.818-12.877-11.703-12.877-20.816z" fill="#fac600"/></g><g><circle cx="360.026" cy="256.001" fill="#fed402" r="23.262"/></g><g><path d="m357.472 256.001c0-9.126 5.258-17.02 12.908-20.83-3.119-1.553-6.633-2.432-10.354-2.432-12.847 0-23.262 10.415-23.262 23.262s10.415 23.262 23.262 23.262c3.721 0 7.235-.878 10.354-2.432-7.65-3.81-12.908-11.704-12.908-20.83z" fill="#fac600"/></g></g><g><path d="m345.318 433.107c-3.684-3.682-9.337-4.658-14.074-2.424-31.232 14.728-66.01 20.57-100.555 16.898-35.003-3.721-68.092-17.079-95.688-38.629-3.265-2.549-7.979-1.97-10.527 1.295-2.55 3.265-1.97 7.978 1.295 10.527 29.808 23.278 65.54 37.706 103.334 41.723 36.695 3.9 73.61-2.146 106.905-17.485l24.317 24.317c-43.093 22.599-93.304 31.378-141.78 24.73-51.284-7.033-97.793-30.151-134.498-66.857-39.257-39.257-63.475-91.292-68.191-146.518-4.661-54.572 9.824-109.294 40.789-154.084 3.416-4.941 2.825-11.597-1.403-15.826l-5.218-5.217 57.78-6.538-6.538 57.78-4.604-4.604c-2.702-2.702-6.428-3.99-10.229-3.541-3.806.454-7.135 2.59-9.133 5.863-22.359 36.609-32.636 80.475-28.937 123.519 3.798 44.19 21.386 84.959 50.864 117.899 2.762 3.087 7.505 3.349 10.59.587 3.087-2.762 3.351-7.504.588-10.59-27.294-30.5-43.58-68.253-47.098-109.181-3.333-38.781 5.571-78.271 25.104-111.592l6.075 6.075c3.396 3.396 8.318 4.519 12.854 2.934 4.532-1.585 7.683-5.534 8.221-10.304l7.515-66.412c.427-3.771-.867-7.472-3.55-10.155-2.683-2.684-6.384-3.977-10.155-3.552l-66.412 7.515c-4.771.54-8.72 3.691-10.305 8.224s-.46 9.457 2.935 12.852l7.505 7.505c-32.109 47.317-47.08 104.799-42.184 162.12 5.018 58.746 30.776 114.093 72.53 155.848 39.041 39.041 88.513 63.63 143.067 71.111 11.233 1.541 22.555 2.302 33.865 2.302 41.836 0 83.536-10.416 120.186-30.354 3.473-1.89 5.789-5.217 6.354-9.129.564-3.906-.711-7.747-3.501-10.538z"/><path d="m468.906 392.162c32.108-47.318 47.08-104.8 42.184-162.121-5.018-58.746-30.776-114.094-72.53-155.848-39.041-39.041-88.513-63.63-143.067-71.111-52.785-7.241-107.493 2.724-154.051 28.052-3.473 1.89-5.789 5.217-6.354 9.129-.564 3.906.711 7.747 3.501 10.538l28.094 28.094c3.683 3.683 9.337 4.657 14.074 2.425 71.746-33.833 157.586-18.931 213.596 37.081 30.436 30.435 49.06 69.143 53.858 111.938 4.536 40.444-4.2 81.68-24.622 116.506l-6.075-6.075c-3.396-3.395-8.317-4.519-12.854-2.934-4.532 1.585-7.682 5.534-8.221 10.303l-7.515 66.412c-.427 3.771.867 7.472 3.55 10.155 2.347 2.347 5.472 3.631 8.742 3.631.469 0 .94-.026 1.413-.08l66.412-7.515c4.771-.54 8.72-3.691 10.305-8.224s.46-9.457-2.935-12.852zm-64.71 20.821 6.538-57.78 4.603 4.603c2.702 2.704 6.437 3.995 10.228 3.542 3.807-.453 7.137-2.59 9.135-5.863 23.354-38.235 33.445-83.984 28.418-128.819-5.108-45.55-25.763-88.477-58.158-120.872-60.051-60.05-151.847-76.338-228.968-40.803l-24.317-24.317c43.093-22.599 93.303-31.378 141.78-24.73 51.284 7.033 97.793 30.151 134.498 66.857 39.258 39.257 63.476 91.291 68.192 146.518 4.661 54.573-9.824 109.294-40.789 154.085-3.416 4.941-2.825 11.597 1.403 15.826l5.218 5.217z"/><path d="m121.203 256.001c0 16.962 13.8 30.762 30.762 30.762s30.761-13.8 30.761-30.762-13.799-30.762-30.761-30.762-30.762 13.8-30.762 30.762zm46.523 0c0 8.691-7.07 15.762-15.761 15.762s-15.762-7.071-15.762-15.762 7.07-15.762 15.762-15.762c8.69 0 15.761 7.071 15.761 15.762z"/><path d="m360.025 225.239c-16.962 0-30.761 13.8-30.761 30.762s13.799 30.762 30.761 30.762 30.762-13.8 30.762-30.762-13.8-30.762-30.762-30.762zm0 46.523c-8.69 0-15.761-7.071-15.761-15.762s7.07-15.762 15.761-15.762 15.762 7.071 15.762 15.762-7.07 15.762-15.762 15.762z"/><path d="m344.983 174.422c1.006-1.31 1.552-2.916 1.552-4.568v-41.018c0-7.698-6.264-13.961-13.962-13.961h-153.156c-7.698 0-13.962 6.263-13.962 13.961v41.018c0 1.652.546 3.258 1.552 4.568l57.098 74.34c3.274 4.262 3.274 10.215 0 14.478l-57.098 74.34c-1.006 1.31-1.552 2.916-1.552 4.568v41.018c0 7.698 6.264 13.961 13.962 13.961h153.156c7.698 0 13.962-6.263 13.962-13.961v-41.018c0-1.652-.546-3.258-1.552-4.568l-21.8-28.382c-2.523-3.285-7.232-3.904-10.517-1.379-3.285 2.523-3.902 7.231-1.38 10.516l12.531 16.314h-21.823l-11.913-15.512c-8.2-10.676-20.624-16.799-34.086-16.799s-25.886 6.123-34.086 16.799l-11.913 15.512h-21.824l47.829-62.271c.418-.545.806-1.105 1.177-1.673 8.895 6.195 14.313 9.97 14.498 10.099 1.294.912 2.806 1.367 4.317 1.367 1.506 0 3.013-.452 4.305-1.355.198-.138 5.619-3.915 14.515-10.111.371.568.758 1.128 1.176 1.672l13.967 18.185c2.524 3.284 7.23 3.903 10.517 1.38 3.285-2.523 3.902-7.231 1.38-10.517l-13.967-18.186c-3.274-4.262-3.274-10.215 0-14.478zm-111.177 153.851c5.338-6.95 13.426-10.936 22.189-10.936 8.764 0 16.852 3.986 22.189 10.936l4.896 6.375h-54.17zm97.729 21.376v32.479h-151.08v-32.479zm-143.362-172.296h75.823c4.143 0 7.5-3.358 7.5-7.5s-3.357-7.5-7.5-7.5h-83.54v-32.479h151.08v32.479h-32.54c-4.143 0-7.5 3.358-7.5 7.5s3.357 7.5 7.5 7.5h24.823l-19.906 25.917h-95.833zm87.816 62.271c-3.587 4.67-5.421 10.239-5.533 15.835-5.958 4.149-11.08 7.717-14.461 10.072-3.381-2.356-8.503-5.923-14.461-10.072-.112-5.596-1.946-11.165-5.533-15.835l-16.402-21.354h72.791z"/></g></g></svg>