<?xml version="1.0" encoding="iso-8859-1"?>
<!-- Generator: Adobe Illustrator 19.0.0, SVG Export Plug-In . SVG Version: 6.00 Build 0)  -->
<svg xmlns="http://www.w3.org/2000/svg" xmlns:xlink="http://www.w3.org/1999/xlink" version="1.1" id="Layer_1" x="0px" y="0px" viewBox="0 0 512 512" style="enable-background:new 0 0 512 512;" xml:space="preserve" width="512" height="512">
<g id="XMLID_1110_">
	<path id="XMLID_2627_" style="fill:#FF9357;" d="M306,10H146c-11.046,0-20,8.954-20,20v0c0,11.046,8.954,20,20,20h160   c11.046,0,20-8.954,20-20v0C326,18.954,317.046,10,306,10z"/>
	<path id="XMLID_2626_" style="fill:#FF9357;" d="M422,94H30c-11.046,0-20,8.954-20,20v288c0,11.046,8.954,20,20,20h392   c11.046,0,20-8.954,20-20V114C442,102.954,433.046,94,422,94z"/>
	<path id="XMLID_2625_" style="fill:#FFCAAF;" d="M39.552,233.916L166,250.127h120l126.448-16.211   c16.895-2.166,29.55-16.547,29.552-33.58V114c0-11.046-8.954-20-20-20H30c-11.046,0-20,8.954-20,20v86.333v0   C10,217.368,22.656,231.75,39.552,233.916z"/>
	<rect id="XMLID_2622_" x="166" y="230.127" style="fill:#FFFFFF;" width="120" height="40"/>
	<path id="XMLID_2621_" style="fill:#FFFFFF;" d="M266,270.127h-80v29c0,22.091,17.909,40,40,40h0c22.091,0,40-17.909,40-40V270.127   z"/>
	<polygon id="XMLID_1115_" style="fill:#FF6371;" points="502,286.69 415.816,304.034 434.547,322.765 374.643,382.67    332.147,340.173 199.002,473.318 227.685,502 332.147,397.539 374.643,440.036 463.231,351.449 484.655,372.873  "/>
	<g id="XMLID_432_">
		<path id="XMLID_435_" d="M509.071,279.618c-2.367-2.367-5.763-3.393-9.044-2.732L452,286.552V114c0-16.542-13.458-30-30-30h-47    V46.5c0-14.612-11.888-26.5-26.5-26.5h-14.22C330.152,8.361,319.036,0,306,0H146c-13.036,0-24.152,8.361-28.28,20H103.5    C88.888,20,77,31.888,77,46.5V84H30C13.458,84,0,97.458,0,114v288c0,16.542,13.458,30,30,30h34c5.522,0,10-4.477,10-10    s-4.478-10-10-10H30c-5.514,0-10-4.486-10-10V237.106c5.373,3.5,11.571,5.868,18.28,6.728L156,258.927v11.2    c0,5.523,4.478,10,10,10h10v19c0,27.57,22.43,50,50,50s50-22.43,50-50v-19h10c5.522,0,10-4.477,10-10v-11.2l117.72-15.092    c6.709-0.86,12.908-3.228,18.28-6.728v53.471l-18.156,3.654c-3.613,0.727-6.534,3.383-7.6,6.911    c-1.066,3.528-0.105,7.357,2.501,9.963l11.66,11.66l-45.762,45.762l-35.426-35.426c-1.876-1.875-4.419-2.929-7.071-2.929    s-5.195,1.054-7.071,2.929L246.177,412H144c-5.522,0-10,4.477-10,10s4.478,10,10,10h82.178l-17.761,17.761l-16.485,16.486    c-3.905,3.905-3.905,10.237,0,14.142l28.683,28.682c1.953,1.953,4.512,2.929,7.071,2.929s5.118-0.976,7.071-2.929l23.467-23.467    L311.827,432h40.638l15.107,15.107c3.906,3.905,10.236,3.905,14.143,0L396.822,432H422c16.542,0,30-13.458,30-30v-25.179    l11.23-11.231l14.354,14.354c2.607,2.606,6.435,3.567,9.964,2.501c3.527-1.066,6.184-3.986,6.911-7.6l17.345-86.184    C512.464,285.381,511.438,281.986,509.071,279.618z M146,20h160c5.514,0,10,4.486,10,10s-4.486,10-10,10H146    c-5.514,0-10-4.486-10-10S140.486,20,146,20z M97,46.5c0-3.584,2.916-6.5,6.5-6.5h14.22c4.128,11.639,15.243,20,28.28,20h160    c13.036,0,24.152-8.361,28.28-20h14.22c3.584,0,6.5,2.916,6.5,6.5V84H97V46.5z M256,299.127c0,16.542-13.458,30-30,30    s-30-13.458-30-30v-19h60V299.127z M276,260.127h-10h-80h-10v-20h100V260.127z M411.177,223.997L296,238.763v-8.636    c0-5.523-4.478-10-10-10H166c-5.522,0-10,4.477-10,10v8.636L40.823,223.997C28.952,222.475,20,212.302,20,200.334V144h70.5    c5.522,0,10-4.477,10-10s-4.478-10-10-10H20v-10c0-5.514,4.486-10,10-10h392c5.514,0,10,4.486,10,10v86.333    C432,212.302,423.048,222.475,411.177,223.997z M331.827,412l0.319-0.319l0.319,0.319H331.827z M432,402c0,5.514-4.486,10-10,10    h-5.178L432,396.822V402z M478.533,352.609l-8.231-8.231c-3.906-3.905-10.236-3.904-14.143,0l-81.516,81.516l-35.426-35.426    c-1.876-1.875-4.419-2.929-7.071-2.929s-5.195,1.054-7.071,2.929l-80.994,80.995l-16.396,16.396l-14.541-14.541l9.415-9.415    l109.587-109.588l35.426,35.426c1.876,1.875,4.419,2.929,7.071,2.929s5.195-1.054,7.071-2.929l59.903-59.904    c3.905-3.905,3.905-10.236,0-14.142l-5.538-5.538l7.891-1.588c0.028-0.006,0.056-0.011,0.083-0.017l45.176-9.092L478.533,352.609z    "/>
		<path id="XMLID_445_" d="M104,412c-2.63,0-5.21,1.07-7.07,2.93c-1.86,1.86-2.93,4.44-2.93,7.07c0,2.63,1.069,5.21,2.93,7.07    S101.37,432,104,432s5.21-1.07,7.069-2.93c1.86-1.86,2.931-4.44,2.931-7.07c0-2.63-1.07-5.21-2.931-7.07    C109.21,413.07,106.63,412,104,412z"/>
		<path id="XMLID_446_" d="M130.5,124c-2.63,0-5.21,1.07-7.07,2.93c-1.86,1.86-2.93,4.44-2.93,7.07c0,2.63,1.069,5.21,2.93,7.07    s4.43,2.93,7.07,2.93c2.63,0,5.21-1.07,7.069-2.93c1.86-1.86,2.931-4.44,2.931-7.07c0-2.63-1.07-5.21-2.931-7.07    C135.71,125.07,133.13,124,130.5,124z"/>
	</g>
</g>















</svg>
