<svg id="Capa_1" enable-background="new 0 0 512 512" height="512" viewBox="0 0 512 512" width="512" xmlns="http://www.w3.org/2000/svg"><g><g><path d="m309.24 124.68v62.01h-26.97c-14.51 0-26.27 11.76-26.27 26.26v43.04h-191.95c-5.5 0-9.96-4.46-9.96-9.96v-53.83c0-5.16-4.8-8.91-9.83-7.77-2.13.48-4.35.74-6.63.74-17.25 0-31.12-14.5-30.08-31.98.9-15.2 13.38-27.52 28.6-28.25 2.85-.14 5.61.12 8.24.73 4.98 1.15 9.7-2.79 9.7-7.9v-48.71c0-8.28 6.7-14.98 14.97-14.98h49.39c5.27 0 9.19 5.04 7.69 10.1-.8 2.71-1.23 5.58-1.23 8.56 0 17.27 14.54 31.16 32.07 30.07 15.21-.95 27.49-13.46 28.17-28.69.15-3.44-.27-6.76-1.19-9.88-1.49-5.08 2.38-10.16 7.68-10.16h49.39c1.363 0 2.671.175 3.99.54 6.33 1.75 10.98 7.54 10.98 14.44v29.36c0 4.51 1.426 9.056 3.588 12.985 4.635 8.423 13.045 13.275 22.682 13.275z" fill="#fef056"/></g><g><g><path d="m302.53 157c-.94 14.86-12.92 26.91-27.68 28.08.09.2-.92.27-.96.09l-17.89 1.6v69.22h-22.02v-43.04s0-38.31 0-38.37c0-3 1.72-5.84 4.39-7.22 4.04-2.07 8.74.34 12.96.39 7.68.08 17.67 1.88 23.62-4.4 3.97-4.21 4.54-11.07 2.02-16.16-2.41-4.89-6.52-6.71-11.62-7.99-6.91-1.73-14.62-1.66-21.56-.1-5.02 1.12-9.81-2.63-9.81-7.78v-62.26c0-8.28-6.7-14.98-14.98-14.98h22.03c.34 0 .68.01 1.01.04.34.02.68.06 1.01.1.66.1 1.31.24 1.94.41.01 0 .02-.01.03-.01 6.33 1.75 10.98 7.54 10.98 14.44v29.36c0 .39.01.78.03 1.17 0 .21.02.42.04.62.01.3.04.6.07.89.04.4.09.8.14 1.19.01.07.02.14.03.21.07.41.14.81.22 1.21.09.43.19.85.3 1.27.09.35.18.7.29 1.05.37 1.23.83 2.43 1.38 3.57.1.23.21.45.33.67.05.13.12.25.18.36.09.19.19.37.3.55.43.79.91 1.55 1.43 2.28.15.23.32.46.48.67 0 .01 0 .01.01.01.19.26.39.52.6.77.15.2.32.4.49.59.21.25.42.49.65.73.23.26.47.51.72.75.2.2.41.41.62.6.04.05.08.08.12.12.21.19.42.38.63.55.16.16.33.3.51.44.31.26.63.51.96.76.71.53 1.45 1.03 2.22 1.49.33.2.66.39 1 .57.37.2.75.4 1.13.58.35.17.71.33 1.07.49l.21.09c.36.15.72.29 1.08.42.23.09.47.17.71.25 0 0 .08.02.23.07l.12.03c.12.04.27.08.44.14.03.01.06.02.09.03 1.69.52 5.59 1.82 9.77 3.84 10.97 5.3 18.76 16.39 17.93 29.55z" fill="#fee903"/></g><g><path d="m442.953 255.992h-48.834c-5.155 0-8.903 4.797-7.768 9.825.482 2.134.738 4.355.738 6.635 0 17.226-14.453 31.085-31.914 30.081-15.213-.875-27.558-13.342-28.312-28.562-.141-2.851.118-5.619.724-8.255 1.148-4.995-2.799-9.724-7.924-9.724h-63.662v-63.71c0-5.1 4.708-9.026 9.677-7.881 2.623.604 5.377.866 8.214.734 15.188-.703 27.674-12.955 28.638-28.129 1.115-17.545-12.781-32.102-30.069-32.102-2.283 0-4.505.254-6.641.735-5.026 1.132-9.819-2.617-9.819-7.769v-48.815c0-8.271 6.705-14.975 14.975-14.975h48.687c5.125 0 9.072-4.729 7.924-9.724-.606-2.636-.865-5.404-.724-8.255.754-15.22 13.099-27.687 28.312-28.562 17.461-1.004 31.914 12.854 31.914 30.081 0 2.281-.255 4.501-.738 6.635-1.136 5.028 2.613 9.825 7.768 9.825h48.834c8.271 0 14.975 6.705 14.975 14.975v171.962c0 8.271-6.704 14.975-14.975 14.975z" fill="#fd8087"/></g><g><path d="m374.156 255.99h19.967c-5.162 0-8.906 4.802-7.767 9.824.479 2.137.729 4.363.729 6.639 0 17.222-14.446 31.089-31.908 30.081-2.845-.16-5.601-.739-8.187-1.657 11.731-4.113 20.127-15.295 20.127-28.423 0-2.276-.25-4.503-.729-6.639-1.138-5.023 2.606-9.825 7.768-9.825z" fill="#fe646f"/></g><g><path d="m394.123 54.082h-19.967c-5.162 0-8.906-4.802-7.767-9.824.479-2.137.729-4.353.729-6.639 0-13.128-8.396-24.3-20.127-28.423 2.586-.918 5.341-1.498 8.187-1.657 17.461-.998 31.908 12.859 31.908 30.081 0 2.286-.25 4.503-.729 6.639-1.14 5.02 2.604 9.823 7.766 9.823z" fill="#fe646f"/></g><g><path d="m457.928 69.057v171.957c0 8.276-6.709 14.975-14.975 14.975h-19.967c8.266 0 14.975-6.699 14.975-14.975v-171.957c0-8.276-6.709-14.975-14.975-14.975h19.967c8.266 0 14.975 6.699 14.975 14.975z" fill="#fe646f"/></g><g><path d="m209.451 358.902c.837 15.217 13.272 27.591 28.485 28.382 2.855.148 5.621-.094 8.258-.696 4.076-.927 7.963 1.539 9.25 5.257l-.141 51.375c-.023 8.276-6.74 14.957-15.016 14.934l-48.69-.134c-5.121-.014-9.078 4.707-7.944 9.702.602 2.637.854 5.403.706 8.248-.801 15.213-13.165 27.648-28.382 28.495-17.464.96-31.902-12.937-31.855-30.168.006-2.276.262-4.502.747-6.627 1.152-5.029-2.579-9.841-7.74-9.855l-48.82-.134c-8.266-.023-14.957-6.74-14.934-15.016l.136-49.389c.015-5.301 5.107-9.151 10.194-7.649 3.102.927 6.426 1.355 9.86 1.215 15.227-.627 27.79-12.852 28.79-28.065 1.146-17.538-12.701-32.122-29.982-32.17-2.985-.008-5.862.413-8.579 1.214-5.056 1.474-9.947-2.464-9.933-7.735v-54.4c.015-5.501 4.49-9.941 9.991-9.926l53.831.148c5.162.014 8.919-4.778 7.794-9.813-.473-2.128-.717-4.355-.711-6.631.047-17.232 14.562-31.049 32.02-29.993 15.212.93 27.508 13.434 28.225 28.651.132 2.846-.135 5.61-.751 8.244-1.162 4.989 2.769 9.732 7.89 9.746l63.665.175-.183 66.47c-1.318 3.68-5.278 5.996-9.379 5.066-2.135-.495-4.351-.751-6.637-.757-17.218-.046-31.115 14.372-30.165 31.836z" fill="#ade194"/></g><g><path d="m170.32 457.918h21.555c-5.121 0-9.065 4.732-7.917 9.724.609 2.636.868 5.401.729 8.246-.759 15.215-13.089 27.684-28.304 28.573-4.463.26-8.726-.459-12.599-1.957 10.842-4.183 18.749-14.536 19.348-26.616.14-2.845-.12-5.611-.729-8.246-1.148-4.992 2.796-9.724 7.917-9.724z" fill="#97da7b"/></g><g><path d="m143.784 211.423c3.874-1.498 8.137-2.216 12.599-1.957 15.215.889 27.545 13.358 28.304 28.573.14 2.845-.12 5.611-.729 8.246-1.148 4.992 2.795 9.724 7.917 9.724h-21.555c-5.121 0-9.065-4.732-7.917-9.724.609-2.636.869-5.401.729-8.246-.599-12.08-8.506-22.433-19.348-26.616z" fill="#97da7b"/></g><g><path d="m209.456 358.751c.879 15.215 13.348 27.555 28.563 28.303 2.855.14 5.621-.11 8.256-.719 4.073-.938 7.967 1.518 9.265 5.231v51.376c0 8.276-6.699 14.975-14.975 14.975h-21.555c8.276 0 14.975-6.699 14.975-14.975v-37.762c-1.298-3.714-5.191-6.17-9.265-5.231-9.319 2.147-18.098-1.597-24.396-8.489-21.686-23.731-13.278-72.159 21.449-77.956 3.864-.645 12.199-.522 12.212-6.24 0-.077 0-51.253 0-51.253h21.555v66.471c-1.308 3.684-5.261 6.01-9.365 5.092-2.136-.489-4.353-.739-6.639-.739-17.221-.002-31.078 14.455-30.08 31.916z" fill="#97da7b"/></g><g><path d="m442.953 256.007c8.271 0 14.975 6.705 14.975 14.975v48.676c0 5.126 4.728 9.075 9.724 7.93 2.639-.605 5.411-.862 8.267-.718 15.217.767 27.671 13.12 28.536 28.332.992 17.435-12.846 31.893-30.082 31.893-2.274 0-4.489-.254-6.617-.734-5.03-1.135-9.828 2.611-9.828 7.767v48.817c0 8.271-6.705 14.975-14.975 14.975h-49.392c-5.264 0-9.197-5.034-7.706-10.082.804-2.72 1.234-5.598 1.234-8.575.001-16.657-13.13-29.944-29.786-30.131-16.795-.189-30.478 13.363-30.478 30.13 0 2.97.431 5.843 1.234 8.557 1.496 5.055-2.427 10.1-7.699 10.1h-49.384c-8.271 0-14.975-6.705-14.975-14.975v-48.688c0-5.124-4.729-9.072-9.723-7.923-2.636.606-5.403.865-8.255.724-15.22-.753-27.687-13.097-28.563-28.31-1.005-17.462 12.854-31.916 30.08-31.916 2.281 0 4.501.255 6.635.738 5.028 1.136 9.825-2.613 9.825-7.767v-63.795z" fill="#99e6fc"/></g><g><path d="m474.371 387.094c-2.276 0-4.483-.25-6.619-.729-5.022-1.138-9.824 2.606-9.824 7.757v48.82c0 8.276-6.709 14.975-14.975 14.975h-20.336c8.266 0 14.975-6.699 14.975-14.975v-67.21c0-5.151 4.792-8.895 9.824-7.757 8.338 1.886 21.677 5.596 29.023-.649 7.848-6.673 7.207-20.04-3.769-23.285-8.458-2.5-17.071 1.639-25.354 3.523-5.001 1.138-9.724-2.805-9.724-7.937v-68.643c0-8.276-6.709-14.975-14.975-14.975h20.336c8.266 0 14.975 6.699 14.975 14.975v48.67c0 5.132 4.732 9.075 9.724 7.937 2.636-.609 5.411-.869 8.266-.719 15.215.769 27.674 13.118 28.533 28.333.999 17.433-12.838 31.889-30.08 31.889z" fill="#62dbfb"/></g><path d="m511.932 354.777c-1.075-18.889-16.728-34.432-35.634-35.384-3.483-.177-6.951.127-10.318.898-.054.012-.142.032-.3-.093-.099-.079-.263-.253-.263-.539v-48.676c0-5.758-2.18-11.015-5.755-14.995 3.569-3.976 5.755-9.218 5.755-14.971v-100.77c0-4.135-3.352-7.488-7.488-7.488s-7.488 3.353-7.488 7.488v100.77c0 4.128-3.359 7.488-7.488 7.488h-179.465v-56.222c0-.266.154-.428.246-.501.141-.112.218-.096.262-.084 3.337.769 6.785 1.078 10.242.918 18.86-.873 34.569-16.306 35.764-35.134.668-10.519-2.92-20.529-10.104-28.185-7.085-7.55-17.085-11.88-27.437-11.88-2.794 0-5.582.309-8.287.918-.075.016-.3.067-.516-.106-.17-.135-.17-.275-.17-.358v-48.816c0-4.129 3.359-7.488 7.488-7.488h48.688c4.795 0 9.26-2.154 12.25-5.91 2.937-3.689 4.019-8.419 2.97-12.981-.463-2.016-.646-4.105-.542-6.206.563-11.379 9.903-20.804 21.263-21.457 6.314-.369 12.319 1.815 16.894 6.134 4.581 4.324 7.103 10.174 7.103 16.47 0 1.682-.186 3.36-.553 4.985-1.052 4.656.047 9.455 3.016 13.168 2.943 3.682 7.338 5.794 12.055 5.794h48.834c4.129 0 7.488 3.359 7.488 7.488v36.189c0 4.135 3.352 7.488 7.488 7.488s7.488-3.352 7.488-7.488v-36.186c0-12.386-10.077-22.463-22.463-22.463h-48.834c-.108 0-.233-.013-.358-.169-.174-.217-.123-.444-.105-.52.61-2.708.92-5.495.92-8.284 0-10.309-4.3-20.281-11.797-27.359-7.602-7.177-17.544-10.794-28.035-10.197-18.892 1.087-34.424 16.754-35.361 35.669-.171 3.478.134 6.945.906 10.301.013.053.032.14-.092.296-.078.097-.25.262-.534.262h-48.688c-5.749 0-10.998 2.173-14.975 5.738-3.977-3.565-9.227-5.738-14.976-5.738h-49.384c-4.929 0-9.451 2.264-12.407 6.211-2.937 3.921-3.832 8.859-2.456 13.549.702 2.392 1.001 4.893.888 7.432-.509 11.377-9.801 20.844-21.156 21.552-6.329.393-12.367-1.768-16.968-6.091-4.605-4.328-7.142-10.19-7.142-16.508 0-2.195.311-4.36.924-6.437 1.375-4.651.488-9.559-2.433-13.467-2.921-3.909-7.574-6.242-12.447-6.242h-49.381c-12.386 0-22.463 10.077-22.463 22.463v48.712c0 .274-.159.441-.254.516-.146.118-.231.098-.276.087-3.354-.774-6.816-1.084-10.283-.914-18.904.912-34.593 16.414-35.714 35.293-.624 10.489 2.988 20.462 10.17 28.082 7.081 7.514 17.062 11.824 27.384 11.824 2.79 0 5.577-.31 8.285-.922.075-.017.3-.068.519.106.156.125.169.25.169.358v53.835c0 3.563 1.078 6.878 2.92 9.643-2.122 2.89-3.392 6.442-3.392 10.293v54.399c0 4.875 2.335 9.529 6.245 12.45 3.91 2.92 8.816 3.805 13.469 2.429 8.161-2.414 17.07-.053 22.961 6.221 4.323 4.604 6.484 10.634 6.084 16.979-.716 11.353-10.188 20.638-21.566 21.139-2.539.114-5.035-.188-7.427-.891-9.981-2.934-19.764 4.58-19.764 14.862v49.388c0 12.386 10.077 22.463 22.463 22.463h3.479c4.136 0 7.488-3.352 7.488-7.488s-3.352-7.488-7.488-7.488h-3.479c-4.129 0-7.488-3.359-7.488-7.488v-49.388c0-.072 0-.262.213-.421.17-.127.285-.094.356-.074 3.978 1.169 8.124 1.669 12.305 1.483 18.915-.831 34.664-16.274 35.855-35.157.663-10.516-2.929-20.521-10.112-28.172-7.085-7.546-17.083-11.873-27.431-11.873-3.638 0-7.236.519-10.697 1.543-.053.016-.119.035-.255-.067-.154-.115-.232-.267-.232-.452v-54.399c0-1.364 1.11-2.473 2.474-2.473h53.834c4.719 0 9.114-2.113 12.057-5.796 2.968-3.715 4.066-8.515 3.013-13.171-.368-1.623-.554-3.299-.554-4.98 0-6.294 2.524-12.143 7.107-16.468 4.582-4.324 10.588-6.495 16.917-6.136 11.356.659 20.69 10.087 21.251 21.463.103 2.099-.079 4.187-.543 6.204-1.049 4.559.032 9.289 2.968 12.977 2.989 3.755 7.454 5.909 12.248 5.909h56.18v56.784c-.104.012-.189-.004-.23-.014-2.707-.611-5.494-.921-8.284-.921-10.31 0-20.283 4.301-27.361 11.798-7.178 7.603-10.798 17.56-10.194 28.036 1.087 18.892 16.754 34.423 35.668 35.358 3.476.172 6.944-.132 10.302-.905.025-.005.058-.009.099-.004v49.318c0 4.129-3.359 7.488-7.488 7.488 0 0-48.673 0-48.692 0-9.811 0-17.451 9.167-15.215 18.886.464 2.017.646 4.104.543 6.203-.561 11.376-9.895 20.804-21.251 21.463-6.324.367-12.334-1.812-16.917-6.136-4.583-4.325-7.107-10.174-7.107-16.468 0-1.681.186-3.357.554-4.979 1.053-4.656-.045-9.457-3.013-13.172-2.943-3.683-7.338-5.796-12.057-5.796h-10.983c-4.136 0-7.488 3.353-7.488 7.488s3.352 7.488 7.488 7.488h10.983c.083 0 .222 0 .358.169.174.218.123.445.105.519-.612 2.706-.922 5.493-.922 8.284 0 10.308 4.302 20.28 11.805 27.359 7.062 6.664 16.147 10.261 25.795 10.261 19.623-.001 36.64-16.107 37.608-35.742.171-3.475-.135-6.94-.908-10.298-.012-.052-.031-.138.091-.292.078-.097.25-.26.531-.26h48.692c5.86 0 11.193-2.265 15.196-5.954 4.005 3.693 9.349 5.954 15.213 5.954h49.385c4.875 0 9.528-2.335 12.449-6.245 2.919-3.908 3.805-8.816 2.43-13.466-2.195-7.427.363-17.167 5.794-22.537 4.272-4.225 9.917-6.542 15.923-6.542.087 0 .175 0 .262.001 12.551.141 22.382 10.087 22.381 22.644 0 2.202-.312 4.372-.927 6.452-1.372 4.641-.486 9.542 2.431 13.445 2.923 3.911 7.58 6.247 12.455 6.247h49.392c12.386 0 22.463-10.077 22.463-22.463v-48.817c0-.107.013-.232.169-.356.218-.175.448-.124.521-.107 2.699.609 5.48.918 8.267.918 10.304 0 20.273-4.296 27.351-11.787 7.174-7.596 10.799-17.547 10.205-28.018zm-320.16-106.272c-.218-.035-.36-.161-.428-.245-.122-.154-.103-.241-.091-.292.773-3.359 1.078-6.824.908-10.299-.932-18.909-16.455-34.58-35.341-35.676-10.478-.61-20.451 3.012-28.062 10.195-7.502 7.079-11.805 17.051-11.805 27.359 0 2.791.31 5.578.922 8.285.018.074.068.301-.105.519-.08.099-.159.137-.229.154h-53.492c-1.364 0-2.473-1.109-2.473-2.473v-53.835c0-4.719-2.113-9.114-5.796-12.057-2.79-2.23-6.193-3.404-9.687-3.404-1.157 0-2.324.129-3.483.391-1.624.367-3.301.553-4.982.553-6.304 0-12.159-2.528-16.486-7.119-4.322-4.587-6.495-10.597-6.12-16.924.676-11.352 10.113-20.675 21.486-21.223 2.102-.098 4.182.084 6.195.548 4.554 1.051 9.281-.027 12.967-2.959 3.753-2.986 5.905-7.445 5.905-12.236v-48.712c0-4.129 3.359-7.488 7.488-7.488h49.382c.185 0 .336.078.451.231.102.138.083.205.067.259-1.021 3.454-1.539 7.048-1.539 10.68 0 10.343 4.324 20.338 11.862 27.421 7.646 7.183 17.651 10.778 28.155 10.123 18.884-1.177 34.338-16.915 35.183-35.83.187-4.194-.311-8.338-1.479-12.316-.02-.069-.054-.185.074-.356.159-.212.349-.212.42-.212h49.384c4.129 0 7.488 3.359 7.488 7.488v48.815c0 4.717 2.111 9.11 5.791 12.053 3.712 2.968 8.505 4.069 13.161 3.021 1.626-.367 3.307-.552 4.996-.552 6.323 0 12.189 2.54 16.518 7.152 4.323 4.607 6.482 10.64 6.078 16.988-.719 11.32-10.167 20.599-21.511 21.124-2.092.098-4.179-.088-6.187-.551-4.551-1.05-9.27.031-12.949 2.959-3.748 2.982-5.896 7.436-5.896 12.219v56.222zm299.065 124.007c-4.323 4.576-10.17 7.096-16.464 7.096-1.678 0-3.35-.185-4.969-.551-4.66-1.052-9.459.05-13.171 3.017-3.681 2.943-5.793 7.337-5.793 12.054v48.817c0 4.129-3.359 7.488-7.488 7.488h-49.392c-.234 0-.378-.128-.459-.235-.098-.131-.08-.19-.066-.235 1.023-3.459 1.542-7.058 1.542-10.698.001-20.861-16.334-37.385-37.189-37.619-.145-.001-.29-.002-.436-.002-9.971 0-19.349 3.85-26.447 10.869-7.201 7.121-11.167 16.621-11.167 26.75 0 3.631.519 7.225 1.542 10.682.016.053.035.119-.068.257-.114.154-.266.231-.451.231h-49.385c-4.129 0-7.488-3.359-7.488-7.488l.001-48.688c0-4.795-2.154-9.26-5.909-12.25-3.689-2.937-8.417-4.019-12.98-2.97-2.018.464-4.108.643-6.208.542-11.378-.563-20.803-9.902-21.457-21.262-.364-6.319 1.814-12.319 6.133-16.894 4.324-4.581 10.174-7.104 16.472-7.104 1.682 0 3.359.186 4.985.554 4.656 1.051 9.454-.047 13.168-3.016 3.682-2.943 5.794-7.337 5.794-12.056v-56.307h179.465c4.129 0 7.488 3.359 7.488 7.488v48.676c0 4.795 2.153 9.26 5.907 12.251 3.685 2.937 8.414 4.023 12.977 2.978 2.023-.465 4.114-.645 6.217-.539 11.375.573 20.791 9.92 21.438 21.279.36 6.316-1.821 12.312-6.142 16.885z"/></g></g></svg>