<svg id="Capa_1" enable-background="new 0 0 512 512" height="512" viewBox="0 0 512 512" width="512" xmlns="http://www.w3.org/2000/svg"><g><path d="m504.5 67.5-60 46 30-106h30z" fill="#c9139d"/><path d="m474.5 67.5-60 16 30-76h30z" fill="#ff0787"/><path d="m444.5 67.5-60 31 30-91h30z" fill="#ff336d"/><path d="m414.5 83.5h-287l-15-16v-60h302z" fill="#ff545a"/><path d="m504.5 504.5h-30l-60-218.5 60-218.5h30z" fill="#acd2f6"/><path d="m474.5 504.5h-30l-60-218.5 60-218.5h30z" fill="#95b0ed"/><path d="m112.5 399.5h332v105h-332z" fill="#acd2f6"/><path d="m324.5 269.5-212 130h-90c0 24.853 20.147 45 45 45h302z" fill="#c4f3ff"/><path d="m324.5 269.5v130c0 24.853 20.147 45 45 45h30v-175z" fill="#acd2f6"/><path d="m414.5 67.5-30 374.429c4.693 1.659 9.739 2.571 15 2.571 24.853 0 45-20.147 45-45v-332z" fill="#c4f3ff"/><path d="m112.5 67.5v332h242c0 19.592 12.524 36.25 30 42.429 17.476-6.179 30-22.837 30-42.429v-30l-45-136 45-136v-30z" fill="#fff"/><path d="m414.5 165.5-68-68h-68l-34 15-34-15h-68v204l68 68h68l34-15 34 15h68v-68l-15-34 15-34z" fill="#ffd06a"/><g fill="#ffe7b5"><path d="m278.5 301.5h68v68h-68z"/><path d="m142.5 301.5h68v68h-68z"/><path d="m210.5 97.5h68v68h-68z"/><path d="m346.5 97.5h68v68h-68z"/><path d="m210.5 233.5h68v68h-68z"/><path d="m346.5 233.5h68v68h-68z"/><path d="m142.5 165.5h68v68h-68z"/><path d="m278.5 165.5h68v68h-68z"/></g><path d="m112.5 128.833v210c57.99 0 105-47.01 105-105s-47.01-105-105-105z" fill="#c4f3ff"/><path d="m187.5 233.833c0-57.99-33.579-105-75-105-57.99 0-105 47.01-105 105s47.01 105 105 105c41.421 0 75-47.01 75-105z" fill="#fff"/><circle cx="112.5" cy="308.833" r="7.5"/><path d="m146.25 292.29c-3.587 2.071-4.816 6.658-2.745 10.245s6.658 4.816 10.245 2.745 4.816-6.658 2.745-10.245-6.658-4.816-10.245-2.745z"/><path d="m71.25 162.386c-3.587 2.071-4.816 6.658-2.745 10.245s6.658 4.816 10.245 2.745 4.816-6.658 2.745-10.245-6.658-4.816-10.245-2.745z"/><path d="m181.202 264.838c-3.587-2.071-8.174-.842-10.245 2.745s-.842 8.174 2.745 10.245 8.174.842 10.245-2.745.842-8.174-2.745-10.245z"/><path d="m51.298 189.838c-3.587-2.071-8.174-.842-10.245 2.745s-.842 8.174 2.745 10.245 8.174.842 10.245-2.745c2.072-3.587.842-8.174-2.745-10.245z"/><circle cx="37.5" cy="233.833" r="7.5"/><path d="m181.202 202.828c3.587-2.071 4.816-6.658 2.745-10.245s-6.658-4.816-10.245-2.745-4.816 6.658-2.745 10.245 6.658 4.817 10.245 2.745z"/><path d="m43.798 264.838c-3.587 2.071-4.816 6.658-2.745 10.245s6.658 4.816 10.245 2.745 4.816-6.658 2.745-10.245-6.658-4.816-10.245-2.745z"/><path d="m146.25 175.377c3.587 2.071 8.174.842 10.245-2.745s.842-8.174-2.745-10.245-8.174-.842-10.245 2.745-.842 8.174 2.745 10.245z"/><path d="m78.75 292.29c-3.587-2.071-8.174-.842-10.245 2.745s-.842 8.174 2.745 10.245 8.174.842 10.245-2.745.842-8.174-2.745-10.245z"/><path d="m504.5 0h-392c-4.143 0-7.5 3.357-7.5 7.5v114.089c-58.549 3.873-105 52.732-105 112.244s46.451 108.371 105 112.244v45.923h-82.5c-4.143 0-7.5 3.357-7.5 7.5 0 28.948 23.552 52.5 52.5 52.5h37.5v52.5c0 4.143 3.357 7.5 7.5 7.5h392c4.143 0 7.5-3.357 7.5-7.5v-497c0-4.143-3.357-7.5-7.5-7.5zm-7.5 60h-45v-45h45zm-60-45v45h-317v-45zm-422 218.833c0-53.762 43.738-97.5 97.5-97.5s97.5 43.738 97.5 97.5-43.738 97.5-97.5 97.5-97.5-43.738-97.5-97.5zm195.5-85.344c4.143 0 7.5-3.357 7.5-7.5v-35.989h53v53h-42.058c-4.143 0-7.5 3.357-7.5 7.5s3.357 7.5 7.5 7.5h42.058v53h-23.5c-4.143 0-7.5 3.357-7.5 7.5s3.357 7.5 7.5 7.5h23.5v53h-41.663c-4.143 0-7.5 3.357-7.5 7.5s3.357 7.5 7.5 7.5h41.663v53h-53v-35.323c0-4.143-3.357-7.5-7.5-7.5s-7.5 3.357-7.5 7.5v35.323h-53v-22.102c43.65-15.478 75-57.176 75-106.065s-31.35-90.587-75-106.065v-22.768h53v35.989c0 4.143 3.357 7.5 7.5 7.5zm128.5-43.489v53h-53v-53zm68 0v53h-53v-53zm-121 257v-53h53v53zm121-68h-53v-53h53zm0-68h-53v-53h53zm-68 0h-53v-53h53zm0 15v53h-53v-53zm15 68h53v53h-53zm-234 37.077c5.099-.337 10.107-1.009 15-2.006v25.429c0 4.143 3.357 7.5 7.5 7.5h272c4.143 0 7.5-3.357 7.5-7.5v-272c0-4.143-3.357-7.5-7.5-7.5h-272c-4.143 0-7.5 3.357-7.5 7.5v26.095c-4.893-.997-9.901-1.669-15-2.006v-46.589h317v324.5c0 20.678-16.822 37.5-37.5 37.5s-37.5-16.822-37.5-37.5c0-4.143-3.357-7.5-7.5-7.5h-234.5zm-89.247 60.923h316.781c1.677 11.673 7.208 22.118 15.259 30h-295.293c-18.109 0-33.262-12.904-36.747-30zm89.247 45h279.5c28.948 0 52.5-23.552 52.5-52.5v-324.5h15v422h-347zm362 45v-422h15v422z"/><path d="m112.5 241.333h75c4.143 0 7.5-3.357 7.5-7.5s-3.357-7.5-7.5-7.5h-67.5v-67.5c0-4.143-3.357-7.5-7.5-7.5s-7.5 3.357-7.5 7.5v75c0 4.143 3.357 7.5 7.5 7.5z"/></g></svg>