<?xml version="1.0" encoding="iso-8859-1"?>
<!-- Generator: Adobe Illustrator 19.0.0, SVG Export Plug-In . SVG Version: 6.00 Build 0)  -->
<svg version="1.1" id="Capa_1" xmlns="http://www.w3.org/2000/svg" xmlns:xlink="http://www.w3.org/1999/xlink" x="0px" y="0px"
	 viewBox="0 0 512.56 512.56" style="enable-background:new 0 0 512.56 512.56;" xml:space="preserve">
<g>
	<circle style="fill:#44C4A1;" cx="353.36" cy="104.28" r="52"/>
	<path style="fill:#44C4A1;" d="M353.36,309.88c48,0,91.2-22.4,118.4-57.6c-18.4-48-64-82.4-118.4-82.4s-100.8,34.4-118.4,82.4
		C262.16,287.48,304.56,309.88,353.36,309.88z"/>
</g>
<path style="fill:#193651;" d="M353.36,317.88c-88,0-159.2-71.2-159.2-159.2c0-87.2,71.2-158.4,159.2-158.4s159.2,71.2,159.2,159.2
	C511.76,246.68,440.56,317.88,353.36,317.88z M353.36,16.28c-79.2,0-143.2,64-143.2,143.2s64,143.2,143.2,143.2
	s143.2-64,143.2-143.2C495.76,80.28,431.76,16.28,353.36,16.28z"/>
<path style="fill:#FFFFFF;" d="M397.36,478.68l0.8,16l23.2,3.2l4-16c9.6-0.8,18.4-3.2,26.4-8l12,11.2l18.4-14.4l-8.8-14.4
	c5.6-7.2,10.4-15.2,12.8-24.8h16l2.4-24l-16-4c-0.8-9.6-4-19.2-8-27.2l11.2-12l-15.2-18.4l-13.6,8c-7.2-6.4-15.2-11.2-24.8-13.6
	l-0.8-16l-23.2-3.2l-4,16c-9.6,0.8-18.4,3.2-26.4,8l-12-11.2l-18.4,14.4l8.8,14.4c-5.6,7.2-10.4,15.2-12.8,24.8h-16l-2.4,24l16,4
	c0.8,9.6,4,19.2,8,27.2l-11.2,12l15.2,18.4l13.6-8C379.76,470.68,387.76,475.48,397.36,478.68z"/>
<path style="fill:#193651;" d="M427.76,506.68l-37.6-4.8l-0.8-17.6c-6.4-2.4-12-5.6-17.6-9.6l-15.2,8.8l-24-29.6l12-12.8
	c-2.4-6.4-4.8-12.8-5.6-19.2l-16.8-4.8l3.2-37.6h17.6c2.4-6.4,5.6-12,8.8-16.8l-9.6-15.2l28.8-23.2l12.8,12.8c5.6-2.4,12-4,18.4-5.6
	l4-17.6l37.6,4.8l0.8,17.6c6.4,2.4,12,5.6,17.6,9.6l15.2-8.8l24,29.6l-12,12.8c2.4,6.4,4.8,12.8,5.6,19.2l17.6,4.8l-3.2,37.6h-17.6
	c-2.4,6.4-5.6,12-8.8,16.8l9.6,15.2l-29.6,23.2l-12.8-12.8c-5.6,2.4-12,4-18.4,5.6L427.76,506.68z M405.36,487.48l9.6,0.8l3.2-14.4
	l5.6-0.8c8-0.8,16-3.2,23.2-6.4l4.8-2.4l11.2,10.4l7.2-5.6l-8-12.8l4-4c5.6-6.4,8.8-13.6,11.2-21.6l1.6-5.6h15.2l0.8-9.6l-14.4-4
	l0-6.4c-0.8-8.8-3.2-16.8-7.2-24l-2.4-4.8l10.4-11.2l-6.4-8l-12.8,8l-4-4c-6.4-5.6-13.6-9.6-22.4-12l-5.6-1.6l-0.8-15.2l-9.6-0.8
	l-3.2,13.6l-5.6,0.8c-8,0.8-16,3.2-23.2,6.4l-4.8,2.4l-11.2-10.4l-7.2,5.6l8,12.8l-4,5.6c-5.6,6.4-8.8,13.6-11.2,21.6l-1.6,5.6
	h-15.2l-0.8,9.6l14.4,4l0.8,5.6c0.8,8.8,3.2,16.8,7.2,24l2.4,4.8l-10.4,11.2l6.4,8l12.8-8l4,4c6.4,5.6,13.6,9.6,22.4,12l5.6,1.6
	L405.36,487.48z"/>
<circle style="fill:#27A2DE;" cx="417.36" cy="409.88" r="36"/>
<path style="fill:#F15F50;" d="M155.76,504.28c-40.8,0-80-16.8-107.2-46.4c-55.2-59.2-52.8-152.8,6.4-208c27.2-25.6,63.2-40,100-40
	c40.8,0,80,16.8,107.2,46.4c55.2,59.2,52.8,152.8-6.4,208C228.56,489.88,192.56,504.28,155.76,504.28z"/>
<path style="fill:#193651;" d="M155.76,512.28c-43.2,0-84-17.6-113.6-48.8c-58.4-62.4-56-160.8,6.4-219.2
	c28.8-27.2,66.4-41.6,105.6-41.6c42.4,0,84,17.6,113.6,48.8c58.4,62.4,56,160.8-6.4,219.2
	C232.56,497.08,194.96,512.28,155.76,512.28z M154.16,217.88c-35.2,0-68.8,13.6-94.4,37.6c-56,52.8-58.4,140.8-5.6,196.8
	c25.6,28,63.2,44,101.6,44c35.2,0,68.8-13.6,94.4-37.6c56-52.8,58.4-140.8,5.6-196.8C229.36,233.88,192.56,217.88,154.16,217.88z"/>
<g>
	<path style="fill:#FFFFFF;" d="M68.56,438.68c-44.8-48-43.2-124,4.8-168.8s123.2-42.4,168.8,5.6c44.8,48,43.2,124-4.8,168.8
		C188.56,489.08,113.36,486.68,68.56,438.68z"/>
	<path style="fill:#FFFFFF;" d="M154.96,341.08L154.96,341.08c-8.8,0-16.8,7.2-16.8,16.8l0,0c0,8.8,7.2,16.8,16.8,16.8l0,0
		c8.8,0,16.8-7.2,16.8-16.8l0,0C170.96,348.28,163.76,341.08,154.96,341.08z"/>
</g>
<path style="fill:#193651;" d="M154.96,381.88c-13.6,0-24.8-11.2-24.8-24.8s11.2-24.8,24.8-24.8s24.8,11.2,24.8,24.8
	S168.56,381.88,154.96,381.88z M154.96,349.08c-4.8,0-8.8,4-8.8,8.8s4,8.8,8.8,8.8s8.8-4,8.8-8.8S159.76,349.08,154.96,349.08z"/>
<rect x="147.76" y="442.68" style="fill:#193651;" width="14.4" height="16"/>
<rect x="147.76" y="255.48" style="fill:#193651;" width="14.4" height="16"/>
<rect x="53.36" y="349.88" style="fill:#193651;" width="16" height="14.4"/>
<rect x="240.56" y="349.88" style="fill:#193651;" width="16" height="14.4"/>
<rect x="146.96" y="288.28" style="fill:#193651;" width="16" height="52"/>
<rect x="170.96" y="349.08" style="fill:#193651;" width="36.8" height="16"/>
<g>
</g>
<g>
</g>
<g>
</g>
<g>
</g>
<g>
</g>
<g>
</g>
<g>
</g>
<g>
</g>
<g>
</g>
<g>
</g>
<g>
</g>
<g>
</g>
<g>
</g>
<g>
</g>
<g>
</g>
</svg>
