<svg id="Capa_1" enable-background="new 0 0 512 512" height="512" viewBox="0 0 512 512" width="512" xmlns="http://www.w3.org/2000/svg"><g><circle cx="256" cy="256" fill="#95b0ed" r="135"/><path d="m256 151v171.193h81.504c14.687-18.063 23.496-41.098 23.496-66.193 0-57.99-47.01-105-105-105z" fill="#c4f3ff"/><path d="m256 151c-57.99 0-105 47.01-105 105 0 25.095 8.809 48.13 23.496 66.193h139.721c10.491-18.063 16.783-41.098 16.783-66.193 0-57.99-33.579-105-75-105z" fill="#fff"/><circle cx="256" cy="226" fill="#666ddc" r="45"/><path d="m308.833 301h-30l30 45.729c10.976-6.405 20.696-14.729 28.671-24.536-3.786-12.238-15.233-21.193-28.671-21.193z" fill="#4e4cd3"/><path d="m203.167 301c-13.438 0-24.885 8.956-28.671 21.193 7.975 9.808 17.694 18.131 28.671 24.537l30-45.729h-30z" fill="#7d8fe5"/><path d="m278.833 301h-45.667c-16.5 0-30 13.5-30 30v15.746c15.52 9.057 33.568 14.254 52.834 14.254s37.314-5.196 52.833-14.254v-15.746c0-16.5-13.5-30-30-30z" fill="#666ddc"/><path d="m256 7.5-37.5 37.5h15v46h45v-46h15z" fill="#c4f3ff"/><path d="m256 504.5-37.5-37.5h15v-46h45v46h15z" fill="#ffd06a"/><path d="m131.75 40.792-13.726 51.226 12.99-7.5 23 39.838 38.971-22.5-23-39.838 12.991-7.5z" fill="#14cfff"/><path d="m380.25 471.207-51.226-13.726 12.99-7.5-23-39.837 38.971-22.5 23 39.837 12.991-7.5z" fill="#ff9733"/><path d="m40.793 131.75 13.726 51.226 7.5-12.991 39.837 23 22.5-38.971-39.837-23 7.5-12.99z" fill="#318de9"/><path d="m471.207 380.25-51.226 13.726 7.5-12.991-39.837-23 22.5-38.971 39.837 23 7.5-12.99z" fill="#ff545a"/><path d="m7.5 256 37.5 37.5v-15h46v-45h-46v-15z" fill="#14d7b6"/><path d="m504.5 256-37.5 37.5v-15h-46v-45h46v-15z" fill="#ff0787"/><path d="m40.793 380.25 51.226 13.726-7.5-12.991 39.837-23-22.5-38.971-39.837 23-7.5-12.99z" fill="#82ffbb"/><path d="m471.207 131.75-13.726 51.226-7.5-12.991-39.837 23-22.5-38.971 39.837-23-7.5-12.99z" fill="#666ddc"/><path d="m131.75 471.207 51.226-13.726-12.991-7.5 23-39.837-38.971-22.5-23 39.837-12.99-7.5z" fill="#ffe7b5"/><path d="m380.25 40.792 13.726 51.226-12.991-7.5-23 39.838-38.971-22.5 23-39.838-12.99-7.5z" fill="#95b0ed"/><path d="m256 278.5c28.949 0 52.5-23.551 52.5-52.5s-23.551-52.5-52.5-52.5-52.5 23.551-52.5 52.5 23.551 52.5 52.5 52.5zm0-90c20.678 0 37.5 16.822 37.5 37.5s-16.822 37.5-37.5 37.5-37.5-16.822-37.5-37.5 16.822-37.5 37.5-37.5z"/><path d="m256 368.5c62.033 0 112.5-50.467 112.5-112.5s-50.467-112.5-112.5-112.5-112.5 50.467-112.5 112.5 50.467 112.5 112.5 112.5zm0-15c-28.931 0-54.954-12.671-72.826-32.749 3.822-7.365 11.559-12.251 19.992-12.251h105.667c8.433 0 16.17 4.886 19.992 12.251-17.871 20.078-43.894 32.749-72.825 32.749zm-82.41-45.453c-9.552-15.07-15.09-32.923-15.09-52.047 0-53.762 43.738-97.5 97.5-97.5s97.5 43.738 97.5 97.5c0 19.124-5.539 36.977-15.09 52.047-6.999-8.935-17.89-14.547-29.576-14.547h-105.668c-11.685 0-22.577 5.612-29.576 14.547z"/><path d="m121.011 263.546c-4.117.458-7.083 4.166-6.625 8.283 3.607 32.446 17.733 61.816 40.852 84.934 26.914 26.914 62.699 41.737 100.762 41.737s73.848-14.823 100.763-41.737 41.737-62.7 41.737-100.763-14.823-73.848-41.737-100.763-62.7-41.737-100.763-41.737-73.848 14.823-100.763 41.737c-23.119 23.118-37.245 52.488-40.852 84.934-.458 4.117 2.509 7.825 6.625 8.283 4.121.457 7.825-2.509 8.283-6.625 3.227-29.025 15.865-55.3 36.55-75.985 24.082-24.082 56.1-37.344 90.156-37.344s66.075 13.262 90.156 37.344 37.345 56.099 37.345 90.156-13.262 66.075-37.344 90.156-56.099 37.344-90.156 37.344-66.075-13.262-90.156-37.344c-20.685-20.685-33.323-46.96-36.55-75.985-.457-4.117-4.173-7.082-8.283-6.625z"/><path d="m293.5 459.5h-7.5v-38.5c0-4.142-3.358-7.5-7.5-7.5h-45c-4.142 0-7.5 3.358-7.5 7.5v38.5h-7.5c-3.034 0-5.768 1.827-6.929 4.63s-.519 6.028 1.626 8.173l37.5 37.5c1.464 1.464 3.383 2.197 5.303 2.197s3.839-.732 5.303-2.197l37.5-37.5c2.145-2.145 2.787-5.371 1.626-8.173-1.161-2.803-3.895-4.63-6.929-4.63zm-37.5 34.393-19.868-19.868c2.844-1.066 4.868-3.809 4.868-7.025v-38.5h30v38.5c0 3.216 2.024 5.959 4.868 7.025z"/><path d="m218.5 52.5h7.5v38.5c0 4.142 3.358 7.5 7.5 7.5h45c4.142 0 7.5-3.358 7.5-7.5v-38.5h7.5c3.034 0 5.768-1.827 6.929-4.63s.519-6.028-1.626-8.173l-37.5-37.5c-2.929-2.929-7.678-2.929-10.606 0l-37.5 37.5c-2.145 2.145-2.787 5.371-1.626 8.173 1.161 2.803 3.895 4.63 6.929 4.63zm37.5-34.394 19.868 19.868c-2.844 1.066-4.868 3.809-4.868 7.026v38.5h-30v-38.5c0-3.216-2.024-5.959-4.868-7.025z"/><path d="m398.542 414.031c-2.407-1.847-5.689-2.062-8.316-.545l-6.495 3.75-19.25-33.342c-2.071-3.587-6.658-4.816-10.245-2.745l-38.971 22.5c-3.587 2.071-4.816 6.658-2.745 10.245l19.25 33.342-6.495 3.75c-2.627 1.517-4.082 4.466-3.686 7.474s2.565 5.48 5.495 6.265l51.226 13.726c2 .536 4.029.211 5.691-.749s2.958-2.554 3.494-4.554l13.726-51.226c.784-2.93-.273-6.044-2.679-7.891zm-23.595 47.991-27.14-7.272c1.93-2.345 2.311-5.733.703-8.518l-19.25-33.342 25.981-15 19.25 33.342c1.608 2.785 4.733 4.149 7.729 3.65z"/><path d="m113.458 97.969c2.407 1.847 5.689 2.062 8.316.545l6.495-3.75 19.25 33.342c2.071 3.587 6.658 4.816 10.245 2.745l38.971-22.5c3.587-2.071 4.816-6.658 2.745-10.245l-19.25-33.342 6.495-3.75c2.627-1.517 4.082-4.466 3.686-7.474s-2.565-5.48-5.495-6.265l-51.226-13.726c-4.001-1.072-8.113 1.303-9.185 5.303l-13.725 51.225c-.786 2.93.272 6.045 2.678 7.892zm23.595-47.991 27.14 7.272c-1.93 2.345-2.311 5.733-.703 8.518l19.25 33.342-25.981 15-19.25-33.342c-1.608-2.785-4.733-4.149-7.729-3.65z"/><path d="m464.725 327.083c-.785-2.93-3.258-5.099-6.265-5.495-3.008-.396-5.957 1.059-7.474 3.686l-3.75 6.495-33.342-19.25c-3.587-2.071-8.174-.842-10.245 2.745l-22.5 38.971c-2.071 3.587-.842 8.174 2.745 10.245l33.342 19.25-3.75 6.495c-1.517 2.627-1.302 5.909.545 8.316 1.847 2.406 4.961 3.464 7.891 2.679l51.226-13.726c2-.536 3.594-1.832 4.554-3.494s1.285-3.691.749-5.691zm-29.844 55.136c.499-2.996-.865-6.12-3.65-7.729l-33.342-19.25 15-25.981 33.342 19.25c2.785 1.608 6.173 1.227 8.518-.703l7.272 27.14z"/><path d="m47.274 184.917c.785 2.93 3.258 5.099 6.265 5.495 3.008.396 5.957-1.059 7.474-3.686l3.75-6.495 33.342 19.25c3.587 2.071 8.174.842 10.245-2.745l22.5-38.971c2.071-3.587.842-8.174-2.745-10.245l-33.342-19.25 3.75-6.495c1.517-2.627 1.302-5.909-.545-8.316s-4.961-3.464-7.891-2.679l-51.226 13.726c-4.001 1.072-6.375 5.185-5.303 9.185zm29.844-55.136c-.499 2.996.865 6.12 3.65 7.729l33.342 19.25-15 25.981-33.342-19.25c-2.785-1.608-6.173-1.227-8.518.703l-7.272-27.14z"/><path d="m509.803 250.697-37.5-37.5c-2.145-2.145-5.371-2.787-8.173-1.626-2.803 1.161-4.63 3.896-4.63 6.929v7.5h-38.5c-4.142 0-7.5 3.358-7.5 7.5v45c0 4.142 3.358 7.5 7.5 7.5h38.5v7.5c0 3.034 1.827 5.768 4.63 6.929s6.028.519 8.173-1.626l37.5-37.5c1.464-1.464 2.197-3.384 2.197-5.303s-.733-3.839-2.197-5.303zm-35.778 25.171c-1.066-2.844-3.809-4.868-7.025-4.868h-38.5v-30h38.5c3.216 0 5.959-2.024 7.025-4.868l19.868 19.868z"/><path d="m47.87 300.429c2.803-1.161 4.63-3.896 4.63-6.929v-7.5h38.5c4.142 0 7.5-3.358 7.5-7.5v-45c0-4.142-3.358-7.5-7.5-7.5h-38.5v-7.5c0-3.034-1.827-5.768-4.63-6.929s-6.028-.519-8.173 1.626l-37.5 37.5c-2.929 2.929-2.929 7.678 0 10.606l37.5 37.5c2.145 2.145 5.37 2.787 8.173 1.626zm-29.764-44.429 19.868-19.868c1.066 2.843 3.809 4.868 7.026 4.868h38.5v30h-38.5c-3.216 0-5.959 2.024-7.025 4.868z"/><path d="m417.236 128.269-33.342 19.25c-3.587 2.071-4.816 6.658-2.745 10.245l22.5 38.971c2.071 3.587 6.658 4.816 10.245 2.745l33.342-19.25 3.75 6.495c1.517 2.627 4.466 4.082 7.474 3.686s5.48-2.565 6.265-5.495l13.726-51.226c.536-2 .211-4.029-.749-5.691s-2.554-2.958-4.554-3.494l-51.226-13.726c-2.93-.785-6.044.272-7.891 2.679s-2.062 5.689-.545 8.316zm13.995 9.241c2.785-1.608 4.149-4.733 3.65-7.729l27.14 7.272-7.272 27.14c-2.345-1.93-5.733-2.311-8.518-.703l-33.342 19.25-15-25.981z"/><path d="m94.764 383.731 33.342-19.25c3.587-2.071 4.816-6.658 2.745-10.245l-22.5-38.971c-2.071-3.587-6.658-4.816-10.245-2.745l-33.342 19.25-3.75-6.495c-1.517-2.627-4.466-4.082-7.474-3.686s-5.48 2.565-6.265 5.495l-13.726 51.226c-1.072 4.001 1.302 8.113 5.303 9.185l51.226 13.726c2.93.785 6.044-.272 7.891-2.679s2.062-5.689.545-8.316zm-13.996-9.241c-2.785 1.608-4.149 4.733-3.65 7.729l-27.14-7.272 7.272-27.14c2.345 1.93 5.733 2.311 8.518.703l33.342-19.25 15 25.981z"/><path d="m315.264 108.351 38.971 22.5c3.587 2.071 8.174.842 10.245-2.745l19.25-33.342 6.495 3.75c2.627 1.517 5.909 1.302 8.316-.545s3.464-4.961 2.679-7.891l-13.726-51.226c-.536-2-1.832-3.594-3.494-4.554s-3.691-1.285-5.691-.749l-51.226 13.726c-2.93.785-5.099 3.258-5.495 6.265-.396 3.008 1.059 5.957 3.686 7.474l6.495 3.75-19.25 33.342c-2.071 3.587-.842 8.174 2.745 10.245zm33.245-42.582c1.608-2.785 1.227-6.173-.703-8.518l27.14-7.272 7.272 27.14c-2.996-.499-6.12.865-7.729 3.65l-19.25 33.342-25.981-15z"/><path d="m196.735 403.649-38.971-22.5c-3.587-2.071-8.174-.842-10.245 2.745l-19.25 33.342-6.495-3.75c-2.627-1.517-5.909-1.302-8.316.545-2.406 1.847-3.464 4.961-2.679 7.891l13.726 51.226c1.072 4.001 5.185 6.375 9.185 5.303l51.226-13.726c2.93-.785 5.099-3.258 5.495-6.265.396-3.008-1.059-5.957-3.686-7.474l-6.495-3.75 19.25-33.342c2.072-3.587.843-8.174-2.745-10.245zm-33.245 42.582c-1.608 2.785-1.227 6.173.703 8.518l-27.14 7.272-7.272-27.14c2.996.499 6.12-.865 7.729-3.65l19.25-33.342 25.981 15z"/></g></svg>