<?xml version="1.0" encoding="iso-8859-1"?>
<!-- Generator: Adobe Illustrator 19.0.0, SVG Export Plug-In . SVG Version: 6.00 Build 0)  -->
<svg xmlns="http://www.w3.org/2000/svg" xmlns:xlink="http://www.w3.org/1999/xlink" version="1.1" id="Layer_1" x="0px" y="0px" viewBox="0 0 512.05 512.05" style="enable-background:new 0 0 512.05 512.05;" xml:space="preserve" width="512" height="512">
<g id="XMLID_1836_">
	<g id="XMLID_920_">
		<path id="XMLID_1457_" style="fill:#FF765B;" d="M169.287,272.963h-68.855c-49.929,0-90.404,40.475-90.404,90.404v65.151h400    v-65.151c0-49.929-40.475-90.404-90.404-90.404h-68.855H169.287z"/>
		<g id="XMLID_1418_">
			<path id="XMLID_1411_" style="fill:#FFBD86;" d="M171.943,237.778v40.002c0,21.034,17.051,38.085,38.085,38.085h0     c21.034,0,38.085-17.051,38.085-38.085v-40.002H171.943z"/>
		</g>
		<path id="XMLID_1436_" style="fill:#FED2A4;" d="M299.195,117.006v40.673c0,31.438-16.891,60.451-44.23,75.973l0,0    c-27.665,15.707-61.547,15.726-89.23,0.05l-0.088-0.05c-27.334-15.478-44.23-44.463-44.23-75.875v-40.771h48.719    c26.252,0,51.976-7.37,74.246-21.27l0,0l0,0c11.7,13.509,28.691,21.27,46.562,21.27H299.195z"/>
		<path id="XMLID_1555_" style="fill:#FFBE52;" d="M299.195,117.006h-11.279c-17.014,0-33.078-7.848-43.534-21.27l0,0l11.941-12.124    l0,0c-21.042,21.365-49.775,33.395-79.762,33.395h-55.144l0.029-18.159c0-49.069,39.746-88.847,88.776-88.847    s88.776,39.778,88.776,88.847L299.195,117.006z"/>
		<g id="XMLID_2393_">
			<circle id="XMLID_2401_" style="fill:#93E7F8;" cx="384.083" cy="384.11" r="118"/>
		</g>
	</g>
	<g id="XMLID_433_">
		<g id="XMLID_434_">
			<g id="XMLID_435_">
				<path id="XMLID_1835_" d="M83.862,354.333c-5.523,0-10,4.478-10,10s4.477,10,10,10h52.832c5.523,0,10-4.478,10-10      s-4.477-10-10-10H83.862z"/>
				<path id="XMLID_1829_" d="M234.528,418.515c-2.63,0-5.21,1.07-7.07,2.93c-1.86,1.86-2.93,4.44-2.93,7.07      c0,2.64,1.07,5.21,2.93,7.07c1.86,1.869,4.44,2.93,7.07,2.93c2.63,0,5.21-1.061,7.07-2.93c1.86-1.86,2.93-4.44,2.93-7.07      s-1.07-5.21-2.93-7.07C239.738,419.585,237.158,418.515,234.528,418.515z"/>
				<path id="XMLID_441_" d="M474.592,293.6c-36.837-36.835-90.721-46.476-136.489-28.936c-6.053-1.128-12.269-1.701-18.48-1.701      h-61.511v-19.637c0.595-0.322,1.192-0.638,1.781-0.972c30.411-17.221,49.302-49.629,49.302-84.577V92.915      c0-1.242-0.237-2.427-0.651-3.525C303.771,39.306,261.501,0,210.223,0c-54.206,0-98.348,43.924-98.766,98.072      c-0.02,0.257-0.039,0.513-0.039,0.775v58.929c0,34.948,18.892,67.356,49.3,84.576l0.09,0.051      c0.376,0.213,0.757,0.411,1.135,0.618v19.942h-61.511c-55.363,0-100.404,45.041-100.404,100.404v65.15c0,5.522,4.477,10,10,10      h184.5c5.523,0,10-4.478,10-10s-4.477-10-10-10h-174.5v-55.15c0-44.335,36.069-80.404,80.404-80.404h61.795      c2.235,20.749,17.72,37.582,37.801,41.847v32.037c0,5.522,4.477,10,10,10s10-4.478,10-10v-32.037      c20.081-4.265,35.566-21.098,37.801-41.847h47.8c-4.185,3.251-8.214,6.794-12.056,10.637      c-49.907,49.907-49.907,131.113,0,181.021h0c24.954,24.953,57.731,37.43,90.509,37.43c32.778,0,65.556-12.477,90.51-37.43      C524.499,424.713,524.499,343.507,474.592,293.6z M210.223,20c43.437,0,78.776,35.371,78.776,78.847      c0,0.676,0.069,1.335,0.197,1.973v6.185h-1.279c-11.17,0-21.673-4.035-29.846-11.26c1.84-1.65,3.638-3.351,5.378-5.118      c3.875-3.935,3.828-10.266-0.107-14.142c-3.935-3.875-10.266-3.828-14.142,0.107c-19.036,19.327-45.511,30.412-72.638,30.412      h-45.144v-7.579c0.011-0.193,0.029-0.384,0.029-0.58C131.447,55.371,166.786,20,210.223,20z M131.418,157.776v-30.771h45.144      c23.158,0,45.917-6.758,65.33-19.03c12.154,12.173,28.525,19.03,46.025,19.03h1.279v30.771      c0,27.757-15.004,53.497-39.167,67.179c-24.47,13.893-54.88,13.91-79.363,0.046l-0.09-0.051      C146.422,211.273,131.418,185.533,131.418,157.776z M210.028,305.864c-15.486,0-28.084-12.599-28.084-28.084v-26.458      c9.241,2.699,18.803,4.051,28.366,4.051c9.37,0,18.737-1.306,27.803-3.897v26.304      C238.112,293.265,225.514,305.864,210.028,305.864z M460.451,460.478c-42.109,42.109-110.626,42.109-152.736,0h0      c-42.109-42.109-42.109-110.626,0-152.735c42.109-42.11,110.626-42.109,152.735,0S502.559,418.369,460.451,460.478z"/>
				<path id="XMLID_440_" d="M383.988,450.073c-5.523,0-10,4.478-10,10v7.207c0,5.522,4.477,10,10,10s10-4.478,10-10v-7.207      C393.988,454.55,389.511,450.073,383.988,450.073z"/>
				<path id="XMLID_439_" d="M383.988,318.148c5.523,0,10-4.478,10-10v-7.207c0-5.522-4.477-10-10-10s-10,4.478-10,10v7.207      C373.988,313.67,378.465,318.148,383.988,318.148z"/>
				<path id="XMLID_438_" d="M308.12,374.015h-7.207c-5.523,0-10,4.478-10,10s4.477,10,10,10h7.207c5.523,0,10-4.478,10-10      S313.643,374.015,308.12,374.015z"/>
				<path id="XMLID_437_" d="M467.252,374.206h-7.207c-5.523,0-10,4.478-10,10s4.477,10,10,10h7.207c5.523,0,10-4.478,10-10      S472.775,374.206,467.252,374.206z"/>
				<path id="XMLID_436_" d="M420.748,374l-36.835,0.109c-3.252,0.01-6.138,1.571-7.957,3.981l-52.822,52.661      c-3.912,3.899-3.921,10.231-0.022,14.143c1.954,1.959,4.518,2.939,7.082,2.939c2.554,0,5.109-0.973,7.06-2.918l50.975-50.819      L420.807,394c5.523-0.017,9.987-4.507,9.97-10.029C430.761,378.448,426.253,373.974,420.748,374z"/>
			</g>
		</g>
	</g>
</g>















</svg>
