<svg id="Capa_1" enable-background="new 0 0 511.999 511.999" height="512" viewBox="0 0 511.999 511.999" width="512" xmlns="http://www.w3.org/2000/svg"><g><g><g clip-rule="evenodd" fill-rule="evenodd"><circle cx="134.999" cy="361.43" fill="#53d8f6" r="97.5"/><path d="m232.499 279.267c18.719 22.19 30 50.859 30 82.163h30v-150h-60z" fill="#53d8f6"/><path d="m232.499 279.267c18.719 22.19 30 50.859 30 82.163h22.5c0-45.605-20.369-86.46-52.5-113.975z" fill="#2d93f4"/><path d="m329.998 166.43h60v194.999h-60z" fill="#fff08a"/><path d="m427.497 121.431h60v239.999h-60z" fill="#00e4be"/><path d="m7.5 361.43c0 70.416 57.084 127.5 127.5 127.5s127.5-57.084 127.5-127.5c0-70.294-56.962-127.5-127.5-127.5-70.417 0-127.5 57.083-127.5 127.5zm127.499 97.5c-53.857 0-97.5-43.643-97.5-97.5s43.643-97.5 97.5-97.5 97.5 43.643 97.5 97.5-43.642 97.5-97.5 97.5z" fill="#fff08a"/><path d="m37.499 361.43c0 58.477 50.941 103.491 108.75 96.85-48.555-5.577-86.25-46.799-86.25-96.85s37.695-91.274 86.25-96.85c-57.808-6.641-108.75 38.372-108.75 96.85z" fill="#2d93f4"/><path d="m329.998 166.43v194.999h60v-22.499h-37.5v-172.5z" fill="#ffc472"/><path d="m427.497 121.431v239.998h60v-22.499h-37.5v-217.499z" fill="#00ce86"/><path d="m7.5 361.43c0 75.009 64.272 133.514 138.75 127-65.146-5.697-116.25-60.376-116.25-127 0-66.626 51.106-121.305 116.253-127-74.481-6.508-138.753 51.983-138.753 127z" fill="#ffc472"/></g><g><path d="m464.997 188.931h-15v-15h15zm0-30h-15v-15h15z" fill="#fff"/></g></g><g><path d="m134.999 466.43c57.897 0 105-47.103 105-105s-47.103-105-105-105-105 47.103-105 105 47.103 105 105 105zm-7.5-194.685v14.685h15v-14.685c43.656 3.619 78.566 38.529 82.185 82.185h-14.684v15h14.684c-3.619 43.656-38.529 78.566-82.185 82.185v-14.685h-15v14.685c-43.656-3.619-78.566-38.529-82.185-82.185h14.685v-15h-14.685c3.619-43.656 38.529-78.566 82.185-82.185z"/><path d="m188.116 318.919-10.607-10.606-42.51 42.51-26.69-26.691-10.608 10.606 37.298 37.299z"/><path d="m155.967 168.799 267.656-117.571-7.948 20.399 13.976 5.445 17.245-44.259-44.26-17.244-5.446 13.977 20.401 7.948-267.657 117.572z"/><path d="m511.999 353.93h-17.002v-22.5h-15v22.5h-45v-224.999h45v157.499h15v-172.499h-75v239.999h-22.499v-195h-75v195h-22.498v-150h-75.001v56.97c-23.902-21.421-55.454-34.47-90-34.47-30.823 0-60.97 10.666-84.887 30.032l9.439 11.657c21.255-17.21 48.049-26.689 75.447-26.689 66.168 0 120 53.832 120 120s-53.832 120-120 120-119.998-53.832-119.998-120c0-31.384 12.043-61.069 33.912-83.587l-10.762-10.45c-24.601 25.333-38.15 58.729-38.15 94.037 0 74.439 60.561 135 134.999 135 71.922 0 130.883-56.536 134.788-127.5h242.212zm-226.999 0h-15.213c-1.605-29.162-12.509-55.882-29.788-77.249v-57.751h45.001zm97.498 0h-45v-180h45z"/><path d="m479.997 301.43h15v15h-15z"/></g></g></svg>