<svg id="Capa_1" enable-background="new 0 0 512 512" height="512" viewBox="0 0 512 512" width="512" xmlns="http://www.w3.org/2000/svg"><g><g><path d="m305.709 123.258-49.709-35.401-49.709 35.401c-6.52 4.643-10.391 12.153-10.391 20.157v54.673c0 10.884 8.823 19.707 19.707 19.707h80.787c10.884 0 19.707-8.823 19.707-19.707v-54.673c0-8.004-3.872-15.514-10.392-20.157z" fill="#fb5f7a"/><path d="m316.1 143.42v54.67c0 10.88-8.82 19.71-19.71 19.71h-30.13c10.89 0 19.71-8.83 19.71-19.71v-54.67c0-8.01-3.87-15.52-10.39-20.16l-34.64-24.67 15.06-10.73 49.71 35.4c6.52 4.64 10.39 12.15 10.39 20.16z" fill="#f74455"/><circle cx="256" cy="53.83" fill="#fb5f7a" r="46.33"/><path d="m302.33 53.83c0 25.59-20.74 46.33-46.33 46.33-5.27 0-10.34-.88-15.06-2.5 18.19-6.26 31.26-23.52 31.26-43.83s-13.07-37.57-31.26-43.83c4.72-1.62 9.79-2.5 15.06-2.5 25.59 0 46.33 20.74 46.33 46.33z" fill="#f74455"/><path d="m395.942 258.439-49.709-35.401-49.709 35.401c-6.52 4.643-10.391 12.153-10.391 20.158v54.673c0 10.884 8.823 19.707 19.707 19.707h80.787c10.884 0 19.707-8.823 19.707-19.707v-54.673c0-8.005-3.872-15.515-10.392-20.158z" fill="#99e6fc"/><path d="m406.333 278.601v54.67c0 10.88-8.82 19.71-19.71 19.71h-30.13c10.89 0 19.71-8.83 19.71-19.71v-54.67c0-8.01-3.87-15.52-10.39-20.16l-34.64-24.67 15.06-10.73 49.71 35.4c6.52 4.64 10.39 12.15 10.39 20.16z" fill="#62dbfb"/><circle cx="346.233" cy="189.011" fill="#99e6fc" r="46.33"/><path d="m392.563 189.011c0 25.59-20.74 46.33-46.33 46.33-5.27 0-10.34-.88-15.06-2.5 18.19-6.26 31.26-23.52 31.26-43.83s-13.07-37.57-31.26-43.83c4.72-1.62 9.79-2.5 15.06-2.5 25.59 0 46.33 20.74 46.33 46.33z" fill="#62dbfb"/><path d="m215.477 258.439-49.709-35.401-49.709 35.401c-6.52 4.643-10.391 12.153-10.391 20.158v54.673c0 10.884 8.823 19.707 19.707 19.707h80.787c10.884 0 19.707-8.823 19.707-19.707v-54.673c-.001-8.005-3.873-15.515-10.392-20.158z" fill="#99e6fc"/><path d="m225.867 278.601v54.67c0 10.88-8.82 19.71-19.71 19.71h-30.13c10.89 0 19.71-8.83 19.71-19.71v-54.67c0-8.01-3.87-15.52-10.39-20.16l-34.64-24.67 15.06-10.73 49.71 35.4c6.52 4.64 10.39 12.15 10.39 20.16z" fill="#62dbfb"/><circle cx="165.767" cy="189.011" fill="#99e6fc" r="46.33"/><path d="m212.097 189.011c0 25.59-20.74 46.33-46.33 46.33-5.27 0-10.34-.88-15.06-2.5 18.19-6.26 31.26-23.52 31.26-43.83s-13.07-37.57-31.26-43.83c4.72-1.62 9.79-2.5 15.06-2.5 25.59 0 46.33 20.74 46.33 46.33z" fill="#62dbfb"/><path d="m486.175 409.962-49.709-35.401-49.709 35.401c-6.52 4.643-10.391 12.153-10.391 20.158v54.673c0 10.884 8.823 19.707 19.707 19.707h80.787c10.884 0 19.707-8.823 19.707-19.707v-54.673c0-8.005-3.872-15.515-10.392-20.158z" fill="#ffe177"/><path d="m496.566 430.124v54.67c0 10.88-8.82 19.71-19.71 19.71h-30.13c10.89 0 19.71-8.83 19.71-19.71v-54.67c0-8.01-3.87-15.52-10.39-20.16l-34.64-24.67 15.06-10.73 49.71 35.4c6.52 4.64 10.39 12.15 10.39 20.16z" fill="#ffd15b"/><circle cx="436.466" cy="340.535" fill="#ffe177" r="46.33"/><path d="m482.796 340.534c0 25.59-20.74 46.33-46.33 46.33-5.27 0-10.34-.88-15.06-2.5 18.19-6.26 31.26-23.52 31.26-43.83s-13.07-37.57-31.26-43.83c4.72-1.62 9.79-2.5 15.06-2.5 25.59 0 46.33 20.74 46.33 46.33z" fill="#ffd15b"/><path d="m305.709 409.962-49.709-35.401-49.709 35.401c-6.52 4.643-10.391 12.153-10.391 20.158v54.673c0 10.884 8.823 19.707 19.707 19.707h80.787c10.884 0 19.707-8.823 19.707-19.707v-54.673c0-8.005-3.872-15.515-10.392-20.158z" fill="#ffe177"/><path d="m316.1 430.124v54.67c0 10.88-8.82 19.71-19.71 19.71h-30.13c10.89 0 19.71-8.83 19.71-19.71v-54.67c0-8.01-3.87-15.52-10.39-20.16l-34.64-24.67 15.06-10.73 49.71 35.4c6.52 4.64 10.39 12.15 10.39 20.16z" fill="#ffd15b"/><circle cx="256" cy="340.535" fill="#ffe177" r="46.33"/><path d="m302.33 340.534c0 25.59-20.74 46.33-46.33 46.33-5.27 0-10.34-.88-15.06-2.5 18.19-6.26 31.26-23.52 31.26-43.83s-13.07-37.57-31.26-43.83c4.72-1.62 9.79-2.5 15.06-2.5 25.59 0 46.33 20.74 46.33 46.33z" fill="#ffd15b"/><path d="m125.244 409.962-49.709-35.401-49.709 35.401c-6.52 4.643-10.391 12.153-10.391 20.158v54.673c0 10.884 8.823 19.707 19.707 19.707h80.787c10.884 0 19.707-8.823 19.707-19.707v-54.673c-.001-8.005-3.872-15.515-10.392-20.158z" fill="#ffe177"/><path d="m135.634 430.124v54.67c0 10.88-8.82 19.71-19.71 19.71h-30.13c10.89 0 19.71-8.83 19.71-19.71v-54.67c0-8.01-3.87-15.52-10.39-20.16l-34.64-24.67 15.06-10.73 49.71 35.4c6.52 4.64 10.39 12.15 10.39 20.16z" fill="#ffd15b"/><circle cx="75.534" cy="340.535" fill="#ffe177" r="46.33"/><path d="m121.864 340.534c0 25.59-20.74 46.33-46.33 46.33-5.27 0-10.34-.88-15.06-2.5 18.19-6.26 31.26-23.52 31.26-43.83s-13.07-37.57-31.26-43.83c4.72-1.62 9.79-2.5 15.06-2.5 25.59 0 46.33 20.74 46.33 46.33z" fill="#ffd15b"/></g><path d="m490.525 403.853-25.175-17.929c14.982-9.568 24.946-26.332 24.946-45.389 0-29.682-24.148-53.83-53.83-53.83-8.082 0-15.747 1.802-22.632 5.006v-13.115c0-10.408-5.062-20.228-13.541-26.267l-25.177-17.928c14.983-9.568 24.948-26.332 24.948-45.39 0-29.682-24.148-53.83-53.831-53.83-8.147 0-15.872 1.829-22.801 5.083-.909-9.214-5.756-17.692-13.372-23.115l-25.176-17.929c14.983-9.568 24.946-26.332 24.946-45.389 0-29.683-24.148-53.831-53.83-53.831s-53.83 24.148-53.83 53.831c0 19.059 9.965 35.824 24.95 45.392l-25.18 17.926c-7.616 5.424-12.463 13.902-13.372 23.115-6.928-3.254-14.653-5.083-22.801-5.083-5.992 0-11.881.979-17.501 2.911-3.917 1.346-6.002 5.613-4.655 9.53 1.345 3.917 5.615 6 9.53 4.655 4.049-1.391 8.296-2.097 12.626-2.097 21.411 0 38.83 17.419 38.83 38.83s-17.419 38.831-38.83 38.831-38.831-17.419-38.831-38.831c0-6.247 1.436-12.208 4.268-17.717 1.894-3.684.441-8.206-3.243-10.099-3.684-1.892-8.204-.442-10.099 3.243-3.877 7.544-5.926 16.041-5.926 24.574 0 19.059 9.965 35.824 24.95 45.392l-25.18 17.926c-8.479 6.039-13.541 15.858-13.541 26.267v13.115c-6.885-3.205-14.55-5.006-22.632-5.006-29.682 0-53.83 24.148-53.83 53.83 0 19.057 9.963 35.821 24.946 45.389l-25.175 17.929c-8.478 6.037-13.54 15.857-13.54 26.267v54.673c0 15.002 12.205 27.207 27.207 27.207h80.787c15.002 0 27.207-12.205 27.207-27.208v-11.664c0-4.142-3.357-7.5-7.5-7.5s-7.5 3.358-7.5 7.5v11.664c0 6.731-5.476 12.208-12.207 12.208h-80.787c-6.731 0-12.207-5.476-12.207-12.208v-54.672c0-5.567 2.707-10.819 7.242-14.048l32.632-23.239c6.901 1.642 16.289 2.274 25.454 0l32.631 23.24c4.535 3.229 7.242 8.481 7.242 14.048v7.251c0 4.142 3.357 7.5 7.5 7.5s7.5-3.358 7.5-7.5v-7.251c0-10.41-5.062-20.229-13.541-26.267l-25.175-17.929c9.444-6.032 16.886-14.922 21.1-25.447h80.468c4.215 10.526 11.656 19.416 21.101 25.447l-25.176 17.929c-8.479 6.038-13.54 15.857-13.54 26.267v54.673c0 15.002 12.205 27.208 27.207 27.208h80.787c15.002 0 27.207-12.205 27.207-27.208v-54.674c0-10.41-5.062-20.229-13.541-26.267l-25.175-17.929c14.982-9.568 24.946-26.332 24.946-45.389 0-15.033-6.201-28.639-16.171-38.414v-23.524c0-5.567 2.708-10.819 7.241-14.048l32.641-23.238c6.899 1.641 16.281 2.271 25.442-.001l32.635 23.238c4.534 3.23 7.242 8.482 7.242 14.049v23.498c-9.986 9.778-16.198 23.394-16.198 38.44 0 1.667.087 3.313.236 4.942h-44.226c-4.143 0-7.5 3.358-7.5 7.5s3.357 7.5 7.5 7.5h47.836c4.215 10.526 11.656 19.416 21.1 25.447l-25.175 17.929c-8.479 6.038-13.541 15.857-13.541 26.267v54.673c0 15.002 12.205 27.208 27.207 27.208h80.787c15.002 0 27.207-12.205 27.207-27.208v-54.673c0-10.41-5.062-20.23-13.541-26.267zm-273.355-350.022c0-21.412 17.419-38.831 38.83-38.831s38.83 17.419 38.83 38.831-17.419 38.83-38.83 38.83-38.83-17.419-38.83-38.83zm-13.771 96.74v-7.156c0-5.567 2.707-10.819 7.241-14.047l32.641-23.238c6.9 1.641 16.282 2.271 25.445-.002l32.632 23.24c4.535 3.229 7.242 8.48 7.242 14.048v7.156c-9.986 9.778-16.198 23.394-16.198 38.44 0 7.551 1.57 14.741 4.389 21.27-1.4.029-80.329.028-81.583 0 2.819-6.529 4.389-13.718 4.389-21.269.001-15.048-6.212-28.665-16.198-38.442zm-166.695 189.964c0-21.411 17.419-38.83 38.83-38.83s38.83 17.419 38.83 38.83-17.419 38.831-38.83 38.831-38.83-17.42-38.83-38.831zm92.424 4.942c1.766-14.97-5.012-33.199-15.962-43.382v-23.498c0-5.567 2.708-10.819 7.241-14.048l32.641-23.238c6.899 1.641 16.282 2.272 25.445-.002l32.632 23.239c4.534 3.23 7.242 8.482 7.242 14.049v23.471c-10.717 10.473-17.63 26.704-15.99 43.409zm172.203 70.594c4.535 3.229 7.242 8.481 7.242 14.048v54.673c0 6.731-5.476 12.208-12.207 12.208h-80.787c-6.731 0-12.207-5.476-12.207-12.208v-54.672c0-5.567 2.707-10.819 7.241-14.048l32.633-23.239c6.9 1.642 16.288 2.274 25.453 0zm-6.528-75.536c0 21.411-17.419 38.831-38.83 38.831-21.31-.228-38.682-17.17-38.831-38.831 0-21.411 17.42-38.83 38.831-38.83s38.83 17.419 38.83 38.83zm-2.63-88.205c-8.479 6.039-13.541 15.858-13.541 26.267v13.127c-6.892-3.213-14.567-5.019-22.659-5.019-8.071 0-15.726 1.797-22.604 4.994v-13.102c0-10.408-5.062-20.228-13.541-26.267l-25.175-17.929c4.556-2.91 8.646-6.482 12.134-10.586 2.817.966 5.786 1.481 8.82 1.481h80.787c3.033 0 6.002-.516 8.82-1.482 3.489 4.106 7.581 7.679 12.139 10.589zm15.229-63.319c0-21.411 17.419-38.83 38.83-38.83s38.831 17.419 38.831 38.83-17.42 38.831-38.831 38.831-38.83-17.42-38.83-38.831zm129.064 112.694c21.411 0 38.83 17.419 38.83 38.83s-17.419 38.831-38.83 38.831-38.83-17.419-38.83-38.831 17.419-38.83 38.83-38.83zm52.6 183.087c0 6.731-5.476 12.208-12.207 12.208h-80.787c-6.731 0-12.207-5.476-12.207-12.208v-54.672c0-5.567 2.707-10.819 7.242-14.048l32.632-23.239c6.901 1.642 16.288 2.274 25.453 0l32.631 23.24c4.535 3.229 7.242 8.481 7.242 14.048v54.671z"/></g></svg>