<svg id="Capa_1" enable-background="new 0 0 512 512" height="512" viewBox="0 0 512 512" width="512" xmlns="http://www.w3.org/2000/svg"><g><g><path d="m492.159 99.037v383.224c0 12.283-9.956 22.239-22.239 22.239h-383.224c-12.283 0-22.239-9.956-22.239-22.239v-383.224c0-12.283 9.956-22.239 22.239-22.239h383.224c12.283.001 22.239 9.957 22.239 22.239z" fill="#ffc344"/><path d="m492.159 99.037v383.224c0 12.283-9.956 22.239-22.239 22.239h-26.368c12.283 0 22.239-9.956 22.239-22.239v-383.224c0-12.283-9.956-22.239-22.239-22.239h26.368c12.283.001 22.239 9.957 22.239 22.239z" fill="#feb137"/><path d="m411.367 89.839v266.705h-318.769v-279.745h315.931c1.856 4.055 2.838 8.494 2.838 13.04z" fill="#feb137"/><path d="m437.693 89.839v266.705h-318.77v-327.328c0-11.994 9.721-21.716 21.716-21.716h214.715c4.546 0 8.985.982 13.04 2.839 3.404 1.537 6.531 3.682 9.22 6.381l50.859 50.859c2.689 2.7 4.834 5.816 6.382 9.22 1.856 4.055 2.838 8.494 2.838 13.04z" fill="#eaf6ff"/><path d="m437.693 220.732v135.812h-318.77v-82.488h105.239c8.43 0 16.348-4.044 21.278-10.885l22.751-31.544c4.93-6.84 12.848-10.895 21.289-10.895z" fill="#c8effe"/><path d="m437.693 89.839v266.705h-26.326v-266.705c0-4.546-.982-8.985-2.839-13.04-1.547-3.404-3.692-6.52-6.381-9.22l-50.858-50.859c-2.689-2.7-5.816-4.845-9.22-6.381-4.055-1.857-8.495-2.839-13.04-2.839h26.326c4.546 0 8.985.982 13.04 2.839 3.404 1.537 6.531 3.682 9.22 6.381l50.859 50.859c2.689 2.7 4.834 5.816 6.382 9.22 1.855 4.055 2.837 8.494 2.837 13.04z" fill="#c8effe"/><path d="m434.855 76.799h-45.758c-11.429 0-20.702-9.273-20.702-20.702v-45.758c3.404 1.537 6.531 3.682 9.22 6.381l50.859 50.859c2.688 2.7 4.833 5.816 6.381 9.22z" fill="#99e6fc"/><path d="m434.855 76.799h-26.326c-1.547-3.404-3.692-6.52-6.381-9.22l-33.753-33.753v-23.487c3.404 1.537 6.531 3.682 9.22 6.381l50.859 50.859c2.688 2.7 4.833 5.816 6.381 9.22z" fill="#62dbfb"/><path d="m364.499 191.962c-6.723 22.922-22.345 42.034-42.866 53.345l-43.325-78.689z" fill="#99e6fc"/><path d="m364.499 191.962c-6.723 22.922-22.345 42.034-42.866 53.345l-13.531-24.576-29.794-54.114 56.387 16.583z" fill="#99e6fc"/><path d="m368.128 166.618c0 8.804-1.27 17.309-3.628 25.344l-86.191-25.344v-89.819c49.609 0 89.819 40.209 89.819 89.819z" fill="#6ed5a1"/><path d="m368.128 166.618c0 8.804-1.27 17.309-3.628 25.344l-29.805-8.761c1.003-5.378 1.526-10.917 1.526-16.583 0-38.374-24.053-71.123-57.912-83.972v-5.848c49.609.001 89.819 40.21 89.819 89.82z" fill="#46cc8d"/><path d="m364.499 191.962c-6.723 22.922-22.345 42.034-42.866 53.345l-13.531-24.576h9.999c8.206-10.853 14.001-23.626 16.594-37.53z" fill="#62dbfb"/><path d="m321.633 245.308c-12.848 7.096-27.617 11.13-43.325 11.13-8.814 0-17.341-1.27-25.387-3.639-12.56-3.692-23.978-10.052-33.593-18.429l58.98-67.751 29.794 54.114z" fill="#fb5f7a"/><path d="m321.633 245.308c-12.848 7.096-27.617 11.13-43.325 11.13-8.814 0-17.341-1.27-25.387-3.639l15.27-21.172c4.93-6.84 12.848-10.895 21.289-10.895h18.621z" fill="#f74455"/><path d="m278.308 166.618-58.98 67.751c-18.899-16.466-30.84-40.711-30.84-67.751 0-8.484 1.174-16.69 3.372-24.469z" fill="#ffe177"/><path d="m251.939 38.252v89.819l-86.447-24.469c10.661-37.723 45.321-65.35 86.447-65.35z" fill="#cb97e7"/><path d="m251.94 38.254v89.819l-28.343-8.025v-77.226c8.91-2.967 18.44-4.568 28.343-4.568z" fill="#b289c9"/><path d="m492.159 220.732v261.53c0 12.283-9.956 22.239-22.239 22.239h-383.224c-12.283 0-22.239-9.956-22.239-22.239v-208.206h186.073c8.43 0 16.348-4.044 21.278-10.885l22.751-31.544c4.93-6.84 12.848-10.895 21.289-10.895z" fill="#ffe177"/><path d="m492.159 220.732v261.53c0 12.283-9.956 22.239-22.239 22.239h-26.368c12.283 0 22.239-9.956 22.239-22.239v-261.53z" fill="#ffd15b"/><path d="m356.765 458.789h-318.106c-10.393 0-18.818-8.425-18.818-18.818v-94.656c0-10.393 8.425-18.818 18.818-18.818h318.106c10.393 0 18.818 8.425 18.818 18.818v94.656c0 10.393-8.425 18.818-18.818 18.818z" fill="#fb5f7a"/><path d="m375.587 345.318v94.653c0 10.394-8.43 18.813-18.824 18.813h-32.216c10.394 0 18.813-8.42 18.813-18.813v-94.653c0-10.394-8.42-18.824-18.813-18.824h32.216c10.393 0 18.824 8.43 18.824 18.824z" fill="#f74455"/></g><g><path d="m492.159 419.927c4.143 0 7.5-3.358 7.5-7.5v-313.389c0-16.398-13.341-29.739-29.739-29.739h-30.59c-1.568-2.532-3.423-4.884-5.554-7.023l-50.849-50.848c-6.366-6.55-15.844-11.428-22.461-11.428h-219.826c-16.109 0-29.216 13.106-29.216 29.216v40.083h-24.728c-16.397 0-29.738 13.341-29.738 29.739v219.959h-18.299c-14.512 0-26.318 11.806-26.318 26.318v94.656c0 14.512 11.807 26.318 26.318 26.318h18.299v15.973c0 16.398 13.341 29.739 29.738 29.739h383.224c16.398 0 29.739-13.341 29.739-29.739v-32.577c0-4.142-3.357-7.5-7.5-7.5s-7.5 3.358-7.5 7.5v32.577c0 8.127-6.612 14.739-14.739 14.739h-383.224c-8.127 0-14.738-6.612-14.738-14.739v-15.973h284.807c14.512 0 26.318-11.806 26.318-26.318v-94.656c0-14.512-11.807-26.318-26.318-26.318h-112.482c-4.143 0-7.5 3.358-7.5 7.5s3.357 7.5 7.5 7.5h112.481c6.241 0 11.318 5.077 11.318 11.318v94.656c0 6.241-5.077 11.318-11.318 11.318h-318.105c-6.241 0-11.318-5.077-11.318-11.318v-94.656c0-6.241 5.077-11.318 11.318-11.318h167.466c4.143 0 7.5-3.358 7.5-7.5s-3.357-7.5-7.5-7.5h-134.167v-37.441h178.573c10.814 0 21.044-5.233 27.361-13.998l22.753-31.546c3.511-4.872 9.194-7.78 15.204-7.78h168.81v184.195c0 4.142 3.358 7.5 7.5 7.5zm-116.264-394.32 43.691 43.691h-30.489c-7.279 0-13.202-5.922-13.202-13.202zm-87.417 201.633-15.524 21.524c-15.579-.996-30.316-6.342-42.811-15.394l46.773-53.73 21.259 38.616c-3.748 2.303-7.066 5.332-9.697 8.984zm-69.641-3.729c-14.734-15.391-22.85-35.542-22.85-56.893 0-5.093.475-10.15 1.395-15.113l67.504 19.109zm127.328-10.279h-30.315c-1.082 0-2.156.067-3.223.17l-18.968-34.454 61.211 17.997c-2.262 5.697-5.166 11.154-8.705 16.287zm12.926-30.681-73.282-21.546v-76.351c41.889 3.803 74.821 39.102 74.821 81.964 0 5.411-.526 10.737-1.539 15.933zm71.102 30.681h-66.44c7.793-14.213 11.876-30.084 11.876-46.614 0-53.663-43.658-97.321-97.321-97.321-4.143 0-7.5 3.358-7.5 7.5v79.903l-76.904-21.769c-2.54-.964-8.35.677-9.262 5.18-2.426 8.587-3.655 17.506-3.655 26.507-.832 45.793 35.022 88.896 81.062 95.971-3.255 2.533-7.304 3.967-11.518 3.967h-124.107v-52.301c0-4.142-3.357-7.5-7.5-7.5s-7.5 3.358-7.5 7.5v52.301h-39.466v-167.518c0-8.127 6.611-14.739 14.738-14.739h24.728v91.128c0 4.142 3.357 7.5 7.5 7.5s7.5-3.358 7.5-7.5v-146.211c0-7.838 6.377-14.216 14.216-14.216h220.255v41.097c0 15.551 12.651 28.202 28.202 28.202h40.442.655v128.933zm15 0v-128.933h24.727c8.127 0 14.739 6.612 14.739 14.739v114.194z"/><path d="m251.939 30.751c-43.366 0-81.883 29.119-93.665 70.811-1.126 3.985 1.19 8.128 5.175 9.256l86.447 24.469c.673.19 1.359.284 2.043.284 2.567.096 7.228-2.331 7.5-7.5v-89.82c0-4.142-3.357-7.5-7.5-7.5zm-7.5 87.402-69.359-19.632c11.203-29.095 38.281-49.563 69.359-52.426z"/><path d="m189.711 351.826c-1.437-3.489-4.801-5.742-8.573-5.742-.003 0-.006 0-.01 0-3.776.004-7.14 2.265-8.57 5.76-.023.057-.046.114-.067.171l-29.332 77.017c-1.475 3.871.469 8.204 4.34 9.678.878.335 1.78.493 2.668.493 3.021 0 5.87-1.84 7.01-4.833l5.465-14.351h36.776l5.408 14.329c1.462 3.876 5.791 5.832 9.665 4.369 3.875-1.462 5.831-5.79 4.368-9.665l-29.066-77.021c-.026-.068-.054-.136-.082-.205zm-21.357 53.194 12.759-33.502 12.643 33.502z"/><path d="m260.14 433.039c1.312 3.693 4.813 6.162 8.729 6.162h.062c3.94-.027 7.438-2.551 8.707-6.281.022-.065.044-.131.064-.197l16.605-53.647 16.531 53.66c.031.102.065.203.101.303 1.312 3.693 4.814 6.162 8.729 6.162h.063c3.939-.027 7.438-2.551 8.707-6.281.105-.311.191-.628.255-.951l15.28-76.778c.809-4.062-1.829-8.011-5.892-8.82-4.06-.809-8.011 1.83-8.819 5.892l-10.801 54.268-16.991-55.156c-1.22-3.958-5.417-6.177-9.376-4.959-2.732.841-4.634 3.101-5.151 5.721l-16.837 54.396-10.762-54.405c-.805-4.062-4.749-6.706-8.812-5.902s-6.706 4.75-5.902 8.813l15.221 76.944c.07.359.167.712.289 1.056z"/><path d="m108.541 373.886c0-15.33-12.987-27.802-28.951-27.802h-20.758c-.004 0-.009.001-.013.001s-.008-.001-.013-.001c-4.143 0-7.5 3.358-7.5 7.5v78.117c0 4.142 3.357 7.5 7.5 7.5s7.5-3.358 7.5-7.5v-28.113l29.104 33.068c1.482 1.685 3.553 2.545 5.633 2.545 1.76 0 3.527-.616 4.952-1.87 3.109-2.736 3.411-7.476.675-10.585l-22.382-25.43c13.737-2.163 24.253-13.637 24.253-27.43zm-28.951 12.802c-3.031 0-8.575.025-13.157.048-.023-4.501-.063-20.949-.077-25.652h13.234c7.562 0 13.951 5.862 13.951 12.802s-6.389 12.802-13.951 12.802z"/><path d="m329.028 248.938c-4.143 0-7.5 3.358-7.5 7.5s3.357 7.5 7.5 7.5h119.866c4.143 0 7.5-3.358 7.5-7.5s-3.357-7.5-7.5-7.5z"/></g></g></svg>