<svg id="Capa_1" enable-background="new 0 0 511.93 511.93" height="512" viewBox="0 0 511.93 511.93" width="512" xmlns="http://www.w3.org/2000/svg"><g><g><g><path d="m504.42 256.003-291.676 43.294 43.293-291.757c137.18.04 248.383 111.273 248.383 248.463z" fill="#9dc6fb"/><path d="m256.037 256.003 23.676 95.931-23.686 152.531h-.07c-137.219 0-248.463-111.243-248.463-248.462l146.873-54.041z" fill="#ffe07d"/><path d="m256.037 7.54v248.463h-248.542c0-137.22 111.243-248.463 248.462-248.463z" fill="#b3e59f"/><path d="m504.42 256.003c0 137.199-111.203 248.422-248.392 248.462l.01-248.462z" fill="#e28086"/><path d="m256.702 501.061-.52 3.33h-.07c-137.219-.001-248.462-111.244-248.462-248.463l41.814-15.388c-.31 5.089-.47 10.218-.47 15.378 0 123.351 89.876 225.695 207.708 245.143z" fill="#ffd064"/><path d="m256.193 7.465v3.399c-117.583 19.658-207.199 121.892-207.199 245.054v.01h-41.344c0-137.22 111.243-248.463 248.463-248.463z" fill="#95d6a4"/><circle cx="255.962" cy="255.928" fill="#f9f6f9" r="104.578"/><path d="m279.166 357.912c-7.459 1.7-15.228 2.589-23.206 2.589-57.761 0-104.574-46.813-104.574-104.574s46.813-104.574 104.574-104.574c7.979 0 15.748.89 23.206 2.59-46.593 10.538-81.378 52.192-81.378 101.985s34.785 91.446 81.378 101.984z" fill="#ddeafb"/><path d="m256.495 179.051c-7.8 0-14.124 6.324-14.124 14.124v62.107h28.248v-62.107c0-7.8-6.324-14.124-14.124-14.124z" fill="#665e66"/><path d="m311.286 226.419c-3.718-6.857-12.291-9.402-19.149-5.684l-43.426 23.546 13.465 24.832 43.426-23.546c6.857-3.718 9.402-12.291 5.684-19.148z" fill="#665e66"/><circle cx="255.961" cy="255.926" fill="#756e78" r="17.803"/></g><g><path d="m367.808 79.445h24.846c9.464 0 16.147 9.272 13.154 18.251l-12.112 36.336h14.954c8.216 0 13.435 8.795 9.499 16.007l-30.295 55.504c-3.839 7.033-14.562 3.714-13.756-4.258l5.298-52.447h-14.258c-9.059 0-16.132-7.831-15.213-16.844l4.088-40.09c.722-7.076 6.681-12.459 13.795-12.459z" fill="#ffe07d"/></g><g><g><path d="m113.207 411.579c-14.712-14.712-14.712-38.564 0-53.275l26.638-26.638 26.638 26.638c14.712 14.712 14.712 38.564 0 53.275-14.713 14.712-38.565 14.712-53.276 0z" fill="#e28086"/><path d="m139.842 422.613c-9.638 0-19.276-3.674-26.635-11.033-14.713-14.713-14.713-38.564 0-53.276l26.635-26.635-6.732 26.635c-3.722 14.713-3.722 38.564 0 53.276 1.858 7.36 4.295 11.033 6.732 11.033z" fill="#dd636e"/></g></g><g><path d="m178.388 135.087-15.617 15.617-32.2-13.663-13.663-32.2 15.617-15.617c12.662-12.662 33.2-12.662 45.863 0 6.333 6.333 9.5 14.632 9.5 22.936 0 8.294-3.171 16.598-9.5 22.927z" fill="#e28086"/><path d="m135.252 123.185 8.195 19.324-12.878-5.465-13.66-32.202 15.617-15.617c12.662-12.662 33.2-12.662 45.863 0 3.262 3.262 5.681 7.046 7.262 11.081-11.638-4.562-25.381-2.138-34.781 7.262z" fill="#dd636e"/><path d="m162.771 150.704-15.613 15.613c-12.662 12.662-33.196 12.667-45.863 0-12.662-12.662-12.662-33.2 0-45.863l15.613-15.613z" fill="#9dc6fb"/><path d="m112.38 173.576c-4.035-1.581-7.819-4-11.081-7.262-12.662-12.662-12.662-33.2 0-45.863l15.613-15.613 18.343 18.343-15.613 15.613c-9.401 9.401-11.824 23.143-7.262 34.782z" fill="#80b4fb"/></g></g><g><path d="m436.956 74.969c-48.348-48.344-112.626-74.969-180.996-74.969-68.369 0-132.647 26.625-180.991 74.969-48.344 48.345-74.969 112.622-74.969 180.991 0 68.37 26.625 132.648 74.969 180.996 48.345 48.348 112.623 74.975 180.991 74.975 83.531 0 162.008-40.928 209.927-109.483 2.373-3.395 1.545-8.071-1.85-10.444-3.396-2.374-8.071-1.545-10.444 1.85-43.663 62.466-114.271 100.566-190.055 102.955v-129.031c55.801-3.743 100.539-48.505 104.246-104.316h129.029c-1.153 36.885-10.784 73.25-28.031 105.621-1.948 3.655-.563 8.198 3.092 10.146 3.656 1.948 8.199.563 10.146-3.093 19.568-36.728 29.911-78.284 29.911-120.176-.001-68.369-26.627-132.646-74.975-180.991zm59.847 173.493h-129.02c-3.706-55.811-48.445-100.573-104.246-104.316v-129.016c61.523 1.888 119.089 26.725 162.812 70.446 43.743 43.74 68.585 101.335 70.454 162.886zm-481.676 14.998h44.963c4.142 0 7.5-3.358 7.5-7.5s-3.358-7.5-7.5-7.5h-44.963c1.87-61.551 26.71-119.145 70.448-162.884 43.758-43.757 101.382-68.6 162.962-70.451v129.012c-55.87 3.673-100.685 48.464-104.396 104.323h-54.391c-4.142 0-7.5 3.358-7.5 7.5s3.358 7.5 7.5 7.5h54.391c3.708 55.862 48.525 100.655 104.396 104.328v129.018c-61.58-1.851-119.204-26.696-162.962-70.456-43.738-43.742-68.578-101.338-70.448-162.89zm240.835 89.58c-53.529 0-97.078-43.549-97.078-97.078s43.549-97.078 97.078-97.078 97.078 43.549 97.078 97.078-43.549 97.078-97.078 97.078z"/><path d="m288.561 214.176-10.442 5.663v-26.627c0-11.925-9.702-21.627-21.627-21.627-11.921 0-21.62 9.702-21.62 21.627v48.778c-.283.427-.558.862-.817 1.312-3.38 5.853-4.278 12.671-2.53 19.2 1.749 6.529 5.935 11.985 11.788 15.365 3.976 2.296 8.321 3.387 12.612 3.387 8.436 0 16.65-4.228 21.424-11.796l31.823-17.262c5.078-2.751 8.781-7.316 10.427-12.854 1.647-5.54 1.037-11.385-1.716-16.459-5.687-10.479-18.839-14.385-29.322-8.707zm-32.069-27.59c3.654 0 6.627 2.973 6.627 6.627v38.478c-4.38-1.291-8.953-1.339-13.247-.272v-38.206c0-3.654 2.969-6.627 6.62-6.627zm-5.679 78.293c-2.383-1.376-4.087-3.598-4.799-6.256s-.346-5.435 1.03-7.818c1.907-3.301 5.376-5.148 8.939-5.148 1.747 0 3.517.444 5.135 1.379 4.919 2.841 6.61 9.155 3.77 14.074-2.842 4.919-9.155 6.61-14.075 3.769zm54.407-29.81c-.505 1.698-1.639 3.097-3.198 3.941l-21.342 11.577c-.519-2.384-1.38-4.69-2.56-6.84v-6.843l17.591-9.54c3.213-1.739 7.244-.54 8.987 2.674.84 1.549 1.026 3.336.522 5.031z"/><path d="m365.139 156.373h5.962l-4.464 44.193c-.719 7.115 3.55 13.56 10.382 15.674 1.492.461 2.999.684 4.479.684 5.301 0 10.263-2.848 12.94-7.753l30.295-55.504c3.129-5.734 3.007-12.511-.327-18.128s-9.224-8.971-15.756-8.971h-4.548l8.822-26.464c2.198-6.595 1.127-13.611-2.937-19.25s-10.382-8.873-17.333-8.873h-24.846c-11.001 0-20.14 8.253-21.256 19.199l-4.088 40.09c-.653 6.402 1.447 12.813 5.76 17.589 4.314 4.774 10.479 7.514 16.915 7.514zm-7.752-23.583 4.088-40.09c.333-3.261 3.055-5.72 6.333-5.72h24.846c2.071 0 3.954.963 5.165 2.644s1.53 3.771.875 5.736l-12.112 36.335c-.762 2.287-.379 4.801 1.031 6.757s3.674 3.115 6.084 3.115h14.954c1.646 0 2.497 1.019 2.857 1.626.361.608.848 1.843.06 3.287l-29.93 54.834 5.222-51.688c.213-2.109-.477-4.211-1.898-5.784s-3.443-2.47-5.563-2.47h-14.258c-2.232 0-4.286-.913-5.783-2.569s-2.198-3.792-1.971-6.013z"/><path d="m171.785 353.036-26.638-26.638c-2.929-2.929-7.678-2.929-10.606 0l-26.638 26.638c-17.612 17.612-17.612 46.269 0 63.882 8.806 8.806 20.374 13.209 31.941 13.209s23.135-4.403 31.941-13.209c17.612-17.613 17.612-46.271 0-63.882zm-10.606 53.275c-11.764 11.764-30.905 11.764-42.669 0s-11.764-30.905 0-42.669l21.334-21.334 21.334 21.334c11.764 11.764 11.764 30.905.001 42.669z"/><path d="m369.567 398.155c1.298 2.461 3.852 4.002 6.635 4.002h41.74c4.142 0 7.5-3.358 7.5-7.5s-3.358-7.5-7.5-7.5h-27.512l33.699-49.198c1.573-2.296 1.745-5.274.447-7.736-1.298-2.461-3.852-4.002-6.635-4.002h-39.448c-4.142 0-7.5 3.358-7.5 7.5s3.358 7.5 7.5 7.5h25.22l-33.699 49.198c-1.573 2.296-1.744 5.274-.447 7.736z"/><path d="m324.327 421.911c1.298 2.461 3.852 4.002 6.635 4.002h26.093c4.142 0 7.5-3.358 7.5-7.5s-3.358-7.5-7.5-7.5h-11.865l18.053-26.356c1.573-2.296 1.745-5.274.447-7.736-1.298-2.461-3.852-4.002-6.635-4.002h-24.661c-4.142 0-7.5 3.358-7.5 7.5s3.358 7.5 7.5 7.5h10.433l-18.053 26.356c-1.572 2.296-1.744 5.274-.447 7.736z"/><path d="m124.231 183.331c10.226 0 20.451-3.892 28.235-11.677l31.227-31.227c15.569-15.569 15.569-40.902 0-56.471-15.569-15.57-40.902-15.569-56.471 0l-31.227 31.227c-15.569 15.569-15.569 40.902 0 56.471 7.785 7.784 18.01 11.677 28.236 11.677zm31.227-96.059c6.383 0 12.769 2.431 17.629 7.29 9.721 9.721 9.721 25.538 0 35.258l-10.31 10.31-35.258-35.258 10.31-10.31c4.86-4.861 11.244-7.29 17.629-7.29zm-48.856 38.517 10.31-10.31 35.258 35.258-10.311 10.311c-9.721 9.721-25.537 9.721-35.258 0-9.72-9.722-9.72-25.538.001-35.259z"/></g></g></svg>