<svg height="512pt" viewBox="0 -13 512 512" width="512pt" xmlns="http://www.w3.org/2000/svg"><path d="m504.398438 335.773438-.097657 19.5c-4.101562 0-7.5 3.402343-7.5 7.5l-.101562 38.601562-11.699219 6.800781v-109.601562l12-7-.101562 36.699219c0 4.101562 3.300781 7.5 7.5 7.5zm0 0" fill="#ff6a3d"/><path d="m489.5 278.574219-108.800781 63.199219-109.597657-63.199219 108.898438-63.300781zm0 0" fill="#ffc5b0"/><path d="m485 298.574219v109.601562l-97.101562 56.398438.300781-109.800781zm0 0" fill="#ff966e"/><path d="m373.199219 354.773438-.300781 109.902343-11.5-6.601562v-110.097657zm0 0" fill="#ed462f"/><path d="m372.800781 92.476562-.300781 109.796876-11.5 6.703124v-109.703124zm0 0" fill="#00abef"/><path d="m365.398438 79.375-58.5 34c-3.597657 2.101562-4.796876 6.699219-2.699219 10.199219l-17.5 10.199219c-2.097657-3.597657-6.699219-4.796876-10.300781-2.699219l-19.796876 11.5-109.601562-63.199219 108.800781-63.199219zm0 0" fill="#9de7fc"/><path d="m361.398438 347.976562v110.097657l-98-56.699219.203124-109.898438zm0 0" fill="#ff6a3d"/><path d="m361 99.273438v109.601562l-97.199219 56.5.300781-109.800781 19.898438-11.5c3.601562-2.097657 4.800781-6.699219 2.699219-10.300781l17.5-10.199219c2.101562 3.601562 6.699219 4.800781 10.300781 2.699219zm0 0" fill="#00c2f8"/><path d="m249.101562 155.675781-.300781 109.898438-11.5-6.699219v-110zm0 0" fill="#0057a1"/><path d="m248.601562 291.574219-.203124 109.800781-11.398438 6.601562v-109.601562zm0 0" fill="#7da2b0"/><path d="m241.199219 278.574219-108.800781 63.199219-109.597657-63.296876 108.800781-63.203124zm0 0" fill="#d6f1f2"/><path d="m237.300781 148.875v110l-98.101562-56.601562.300781-109.898438zm0 0" fill="#1475cc"/><path d="m237 298.375v109.601562l-19.601562 11.398438c-3.597657 2.101562-4.796876 6.699219-2.699219 10.300781l-18.898438 11c-2.101562-3.601562-6.699219-4.800781-10.300781-2.699219l-46 26.699219.300781-109.800781zm0 0" fill="#90bac4"/><path d="m124.898438 354.773438-.296876 109.902343-11.5-6.601562v-110.097657zm0 0" fill="#557983"/><path d="m508.300781 272.074219-120.699219-69.699219.296876-122.898438c0-2.601562-1.5-5.203124-3.796876-6.5l-124.601562-72c-2.300781-1.300781-5.199219-1.300781-7.5 0l-123.699219 71.898438c-2.300781 1.199219-3.800781 4-3.800781 6.5l-.300781 122.800781-120.097657 69.898438c-2.300781 1.199219-3.800781 4-3.800781 6.5l-.300781 127.101562c0 2.699219 1.398438 5.199219 3.800781 6.5l124.597657 71.898438c2.101562 1.5 5.402343 1.199219 7.5 0l57.300781-33.300781c3.601562-2.097657 4.800781-6.699219 2.699219-10.296876-2.097657-3.601562-6.699219-4.800781-10.296876-2.703124l-46 26.703124.296876-109.800781 97.101562-56.402343 11.601562-6.796876-.300781 109.796876-11.300781 6.601562-19.601562 11.398438c-3.597657 2.101562-4.796876 6.703124-2.699219 10.300781 2.101562 3.601562 6.699219 4.800781 10.300781 2.699219l30.898438-17.898438 120.800781 69.800781c2.101562 1.5 5.402343 1.199219 7.5 0l123.800781-72c2.300781-1.300781 3.699219-3.800781 3.699219-6.5l.101562-42.902343c0-4.097657-3.300781-7.5-7.5-7.5-4.101562 0-7.5 3.402343-7.5 7.5l-.101562 38.601562-11.699219 6.800781-97.101562 56.398438.300781-109.800781 96.800781-56.199219 12-7-.101562 36.699219c0 4.101562 3.300781 7.5 7.5 7.5 4.101562 0 7.5-3.296876 7.5-7.5l.101562-49.699219c0-2.699219-1.5-5.199219-3.699219-6.5zm-135.402343 192.601562-11.5-6.601562-98.097657-56.597657.300781-109.902343 97.796876 56.5 11.800781 6.800781zm-248.296876 0-11.5-6.601562-98.101562-56.699219.300781-109.898438 97.800781 56.5 11.796876 6.796876zm7.796876-122.902343-109.597657-63.296876 108.800781-63.203124 109.597657 63.300781zm233-262.398438-58.5 34c-3.597657 2.101562-4.796876 6.699219-2.699219 10.300781 2.101562 3.597657 6.699219 4.800781 10.300781 2.699219l46.699219-27.101562 11.800781-6.898438-.300781 109.800781-11.5 6.699219-97.199219 56.5.300781-109.800781 19.898438-11.5c3.601562-2.097657 4.800781-6.699219 2.699219-10.300781-2.097657-3.597657-6.699219-4.796876-10.296876-2.699219l-19.800781 11.5-109.800781-63.199219 108.800781-63.199219zm-225.898438 13 97.800781 56.5 11.800781 6.800781-.300781 109.898438-11.5-6.597657-98.101562-56.601562zm241.199219 249.398438-109.5-63.199219 108.800781-63.300781 109.5 63.300781zm0 0"/><path d="m113.101562 347.976562v110.097657l-98.101562-56.699219.300781-109.898438zm0 0" fill="#688d97"/></svg>