<svg id="Capa_1" enable-background="new 0 0 512 512" height="512" viewBox="0 0 512 512" width="512" xmlns="http://www.w3.org/2000/svg"><g><g><path d="m318.406 412.849c-23.927 0-43.323-19.396-43.323-43.323v-11.941h-222.428c-24.939 0-45.155-20.217-45.155-45.155v-112.86c0-24.938 20.217-45.155 45.155-45.155h222.428v-11.953c0-23.882 19.435-43.311 43.325-43.311 9.724 0 19.287 3.344 26.923 9.416l142.813 113.538c10.393 8.262 16.354 20.615 16.355 33.893 0 13.277-5.96 25.632-16.352 33.896l-142.816 113.54c-7.639 6.072-17.2 9.415-26.923 9.415z" fill="#f5f5f5"/></g><g><path d="m464.287 252.114-142.813-113.538c-3.253-2.586-8.053-.27-8.053 3.886v45.327c0 2.742-2.223 4.964-4.964 4.964h-248.834c-7.613 0-13.784 6.171-13.784 13.784v98.925c0 7.613 6.171 13.784 13.784 13.784h248.834c2.742 0 4.964 2.223 4.964 4.964v45.327c0 4.155 4.801 6.472 8.053 3.886l142.813-113.538c2.5-1.987 2.5-5.783 0-7.771z" fill="#fddf7c"/></g><g><path d="m488.145 222.104-142.813-113.537c-7.636-6.072-17.199-9.416-26.923-9.416-5.288 0-10.355.955-15.044 2.697 4.295 1.587 8.349 3.842 11.967 6.719l142.813 113.538c10.393 8.262 16.354 20.615 16.355 33.893 0 13.277-5.96 25.632-16.352 33.896l-142.816 113.54c-3.622 2.88-7.681 5.137-11.98 6.724 4.69 1.738 9.761 2.692 15.055 2.692h.002c9.723 0 19.285-3.343 26.923-9.416l142.816-113.54c10.393-8.264 16.352-20.619 16.352-33.896-.001-13.278-5.963-25.632-16.355-33.894z" fill="#ebe5ed"/></g><g><path d="m464.287 252.114-142.813-113.538c-3.253-2.586-8.053-.27-8.053 3.886v13.562l120.866 96.09c2.5 1.987 2.5 5.784 0 7.771l-120.866 96.09v13.562c0 4.155 4.8 6.471 8.053 3.886l142.813-113.538c2.5-1.987 2.5-5.783 0-7.771z" fill="#fcce63"/></g><g><path d="m318.408 420.349c-28.025 0-50.825-22.799-50.825-50.823v-4.441h-59.532c-4.143 0-7.5-3.358-7.5-7.5s3.357-7.5 7.5-7.5h67.032c4.143 0 7.5 3.358 7.5 7.5v11.941c0 19.753 16.07 35.823 35.823 35.823 8.037 0 15.942-2.765 22.259-7.787l142.815-113.54c8.592-6.832 13.52-17.047 13.52-28.025-.001-10.977-4.93-21.191-13.522-28.023l-142.813-113.537c-6.316-5.021-14.22-7.787-22.257-7.787-19.754 0-35.825 16.065-35.825 35.811v11.953c0 4.142-3.357 7.5-7.5 7.5h-222.428c-20.763.001-37.655 16.893-37.655 37.656v112.859c0 20.763 16.892 37.655 37.655 37.655h125.395c4.143 0 7.5 3.358 7.5 7.5s-3.357 7.5-7.5 7.5h-125.395c-29.034.001-52.655-23.62-52.655-52.655v-112.859c0-29.034 23.621-52.655 52.655-52.655h214.928v-4.453c0-28.017 22.8-50.811 50.825-50.811 11.413 0 22.633 3.923 31.592 11.045l142.811 113.538c12.193 9.693 19.188 24.187 19.189 39.764 0 15.578-6.992 30.072-19.185 39.766l-142.816 113.54c-8.959 7.123-20.179 11.045-31.591 11.045z"/></g><g><path d="m318.407 382.018c-1.841 0-3.695-.414-5.438-1.254-4.348-2.098-7.049-6.399-7.049-11.226v-42.792h-246.298c-11.736 0-21.284-9.548-21.284-21.284v-98.925c0-11.736 9.548-21.284 21.284-21.284h51.675c4.143 0 7.5 3.358 7.5 7.5s-3.357 7.5-7.5 7.5h-51.675c-3.465 0-6.284 2.819-6.284 6.284v98.925c0 3.465 2.819 6.284 6.284 6.284h248.835c6.873 0 12.464 5.591 12.464 12.464v40.071l136.202-108.281-136.202-108.282v40.071c0 6.872-5.591 12.464-12.464 12.464h-167.16c-4.143 0-7.5-3.358-7.5-7.5s3.357-7.5 7.5-7.5h164.624v-42.791c0-4.827 2.701-9.129 7.048-11.226 4.348-2.098 9.395-1.534 13.173 1.47l142.813 113.537c2.992 2.38 4.707 5.936 4.707 9.757s-1.715 7.377-4.706 9.755l-142.815 113.539c-2.263 1.8-4.983 2.723-7.734 2.724z"/></g></g></svg>