<svg id="Capa_1" enable-background="new 0 0 512.037 512.037" height="512" viewBox="0 0 512.037 512.037" width="512" xmlns="http://www.w3.org/2000/svg"><g><g><g><path d="m310.362 442.392h-46.609v-148.656c0-3.866 3.134-7 7-7h32.609c3.866 0 7 3.134 7 7z" fill="#d3effd"/><path d="m290.753 286.736h-20c-3.866 0-7 3.134-7 7v148.656h20v-148.656c0-3.866 3.134-7 7-7z" fill="#a0dbf2"/><path d="m155.05 442.392h-46.609v-297.312c0-3.866 3.134-7 7-7h32.609c3.866 0 7 3.134 7 7z" fill="#b0efa5"/><path d="m135.441 138.08h-20c-3.866 0-7 3.134-7 7v297.312h20v-297.312c0-3.866 3.134-7 7-7z" fill="#8be1a4"/><path d="m77.399 442.392h-46.609v-235.187c0-3.866 3.134-7 7-7h32.609c3.866 0 7 3.134 7 7z" fill="#ff7d92"/><path d="m57.79 200.205h-20c-3.866 0-7 3.134-7 7v235.188h20v-235.188c0-3.866 3.134-7 7-7z" fill="#e15f78"/><path d="m232.702 442.392h-46.609v-235.187c0-3.866 3.134-7 7-7h32.609c3.866 0 7 3.134 7 7z" fill="#ffa95f"/><path d="m213.093 200.205h-20c-3.866 0-7 3.134-7 7v235.188h20v-235.188c0-3.866 3.134-7 7-7z" fill="#ff9161"/><path d="m35.242 457.923c0-8.578 6.953-15.531 15.531-15.531h-27.742c-8.578 0-15.531 6.954-15.531 15.531 0 8.578 6.953 15.531 15.531 15.531h27.742c-8.577 0-15.531-6.953-15.531-15.531z" fill="#6f6571"/><g><circle cx="422.561" cy="391.479" fill="#fee07d" r="81.975"/><path d="m360.586 391.479c0-41.889 31.418-76.439 71.975-81.371-3.278-.399-6.615-.604-10-.604-45.274 0-81.975 36.702-81.975 81.975s36.702 81.975 81.975 81.975c3.385 0 6.722-.205 10-.604-40.557-4.932-71.975-39.482-71.975-81.371z" fill="#ffcf64"/><path d="m358.309 442.392h-335.278c-8.578 0-15.531 6.954-15.531 15.531 0 8.578 6.953 15.531 15.531 15.531h396.052c.355 0 .707-.012 1.055-.036-25.048-.726-47.28-12.69-61.829-31.026z" fill="#857e87"/></g><g fill="#e15f78"><circle cx="131.754" cy="54.114" r="15.531"/><circle cx="209.405" cy="115.309" r="15.531"/><circle cx="54.102" cy="100.707" r="15.531"/><circle cx="287.065" cy="193.894" r="15.531"/></g></g></g><g><path d="m54.102 123.739c12.7 0 23.032-10.332 23.032-23.032 0-2.412-.373-4.738-1.064-6.924l38.928-23.882c4.203 4.458 10.16 7.245 16.756 7.245 6.315 0 12.044-2.555 16.209-6.685 41.91 38.065 39.39 35.856 40.045 36.329-1.053 2.636-1.633 5.511-1.633 8.519 0 12.7 10.332 23.031 23.031 23.031 3.992 0 7.749-1.021 11.026-2.815l47.01 46.323c-2.161 3.507-3.408 7.633-3.408 12.046 0 12.7 10.332 23.032 23.031 23.032 12.7 0 23.032-10.332 23.032-23.032s-10.332-23.031-23.032-23.031c-2.797 0-5.479.501-7.961 1.419l-48.554-47.844c1.214-2.8 1.887-5.887 1.887-9.129 0-12.7-10.332-23.032-23.031-23.032-4.251 0-8.237 1.158-11.659 3.175-.099-.101-.201-.199-.307-.295l-42.757-38.859c.068-.719.103-1.448.103-2.184 0-12.7-10.332-23.032-23.031-23.032-12.7 0-23.032 10.332-23.032 23.032 0 .669.029 1.332.085 1.986l-41.72 25.595c-3.7-2.535-8.173-4.019-12.986-4.019-12.699 0-23.031 10.332-23.031 23.031s10.331 23.032 23.031 23.032zm232.962 62.124c4.429 0 8.032 3.603 8.032 8.031 0 4.429-3.604 8.032-8.032 8.032s-8.031-3.603-8.031-8.032c0-4.428 3.603-8.031 8.031-8.031zm-77.659-78.586c4.429 0 8.031 3.603 8.031 8.032 0 4.428-3.603 8.031-8.031 8.031s-8.031-3.603-8.031-8.031c0-4.429 3.603-8.032 8.031-8.032zm-77.651-61.194c4.429 0 8.031 3.603 8.031 8.032 0 4.428-3.603 8.031-8.031 8.031-4.437 0-8.032-3.613-8.032-8.031 0-4.429 3.603-8.032 8.032-8.032zm-77.652 46.593c4.436 0 8.032 3.611 8.032 8.031 0 4.429-3.604 8.032-8.032 8.032s-8.031-3.603-8.031-8.032c-.001-4.428 3.602-8.031 8.031-8.031z"/><path d="m390.628 372.311c0 14.705 11.964 26.668 26.669 26.668h10.529c6.434 0 11.668 5.234 11.668 11.668s-5.234 11.668-11.668 11.668h-11.876c-4.369 0-8.148-2.812-9.404-6.998-1.189-3.967-5.376-6.217-9.339-5.028-3.968 1.19-6.219 5.372-5.028 9.339 3.089 10.294 12.218 17.3 22.883 17.67v12.729c0 4.142 3.357 7.5 7.5 7.5s7.5-3.358 7.5-7.5v-12.807c13.663-1.139 24.433-12.623 24.433-26.575 0-14.705-11.963-26.668-26.668-26.668h-10.529c-6.435 0-11.669-5.234-11.669-11.668s5.234-11.668 11.669-11.668h9.407c4.369 0 8.148 2.812 9.404 6.998 1.19 3.968 5.375 6.219 9.339 5.028 3.968-1.19 6.219-5.372 5.028-9.339-2.848-9.49-10.829-16.186-20.414-17.464v-12.935c0-4.142-3.357-7.5-7.5-7.5s-7.5 3.358-7.5 7.5v12.807c-13.664 1.139-24.434 12.622-24.434 26.575z"/><path d="m440.393 303.782c-4.059-.822-8.017 1.804-8.838 5.864-.822 4.06 1.804 8.017 5.863 8.838 34.546 6.989 59.619 37.688 59.619 72.995 0 41.066-33.409 74.476-74.476 74.476s-74.476-33.41-74.476-74.476c0-35.227 25.006-65.912 59.458-72.962 4.058-.83 6.674-4.793 5.844-8.851-.831-4.059-4.79-6.679-8.852-5.844-41.4 8.472-71.45 45.337-71.45 87.657 0 15.743 4.087 30.549 11.255 43.413h-26.48v-141.156c0-7.995-6.505-14.5-14.5-14.5h-32.608c-7.995 0-14.5 6.505-14.5 14.5v141.156h-16.051v-227.687c0-7.995-6.505-14.5-14.5-14.5h-32.609c-7.995 0-14.5 6.505-14.5 14.5v227.688h-16.042v-162.532c0-4.142-3.357-7.5-7.5-7.5s-7.5 3.358-7.5 7.5v162.531h-31.609v-289.312h31.609v94.095c0 4.142 3.357 7.5 7.5 7.5s7.5-3.358 7.5-7.5v-94.595c0-7.995-6.505-14.5-14.5-14.5h-32.609c-7.995 0-14.5 6.505-14.5 14.5v289.812h-16.043v-227.687c0-7.995-6.505-14.5-14.5-14.5h-32.608c-7.995 0-14.5 6.505-14.5 14.5v227.688h-.259c-12.699-.001-23.031 10.331-23.031 23.03s10.332 23.031 23.031 23.031h201.925c4.143 0 7.5-3.358 7.5-7.5s-3.357-7.5-7.5-7.5h-201.925c-4.429 0-8.031-3.603-8.031-8.031s3.603-8.031 8.031-8.031h331.806c5.3 6.136 11.417 11.548 18.182 16.063h-116.188c-4.143 0-7.5 3.358-7.5 7.5s3.357 7.5 7.5 7.5h165.73c49.337 0 89.476-40.139 89.476-89.476 0-42.416-30.131-79.298-71.644-87.697zm-370.495 131.11h-31.608v-227.187h31.608zm155.304 0h-31.609v-227.187h31.609zm77.659 0h-31.608v-140.656h31.608z"/></g></g></svg>