<svg height="512pt" viewBox="0 -84 512 512" width="512pt" xmlns="http://www.w3.org/2000/svg"><path d="m293.1875 97.945312h-285.6875v148.050782h285.6875v82.824218l206.414062-156.851562-206.414062-156.851562zm0 0" fill="#e2fc85"/><g fill="#6ad34d"><path d="m323.183594 37.914062-29.996094-22.796874v82.828124h29.996094zm0 0"/><path d="m323.183594 245.996094h-29.996094v82.824218l29.996094-22.792968zm0 0"/><path d="m7.5 97.945312h30v148.050782h-30zm0 0"/></g><path d="m408.890625 250.316406-9.074219-11.941406 87.390625-66.40625-186.519531-141.730469v75.210938h-207.75v-15h192.75v-90.449219l226.3125 171.96875zm0 0"/><path d="m285.6875 343.945312v-90.449218h-285.6875v-163.046875h72.9375v15h-57.9375v133.046875h285.6875v75.210937l83.210938-63.234375 9.074218 11.945313zm0 0"/><path d="m300.683594 190.960938h-14.996094v-15h14.996094zm0-25h-14.996094v-15h14.996094zm0 0" fill="#fff"/></svg>