<svg id="Layer_1" enable-background="new 0 0 510.991 510.991" height="512" viewBox="0 0 510.991 510.991" width="512" xmlns="http://www.w3.org/2000/svg"><path d="m501.994 217.745v225.48c0 33-64.02 59.76-143 59.76s-143-26.76-143-59.76v-20.55c-92.013 19.311-207-7.824-207-53.45v-301.48c0-33 64.02-59.76 143-59.76s143 26.76 143 59.76v96.55c92.193-19.338 207 7.941 207 53.45z" fill="#8ab2ff"/><path d="m358.994 157.985c78.98 0 143 26.76 143 59.76 0 33.01-64.02 59.77-143 59.77-101.72 0-172.436-43.765-131.32-83.46 28.72-27.753 91.193-36.07 131.32-36.07z" fill="#a6c4ff"/><path d="m294.994 67.745v.24c-.31 32.9-64.21 59.53-143 59.53s-142.69-26.63-143-59.53c0-.08 0-.16 0-.24 0-33 64.02-59.76 143-59.76s143 26.76 143 59.76z" fill="#a6c4ff"/><path d="m294.994 67.985v96.31c-29.408 6.158-79 23.459-79 53.45v204.93c-54.205 11.376-126.661 7.796-172.56-14.55 81.875-70.64 127.59-172.985 124.99-281.01 71.06-3.389 126.28-28.55 126.57-59.13z" fill="#7da7fa"/><path d="m501.994 217.745v225.48c0 46.544-120.515 74.218-213.9 51.91 63.944-57.005 103.168-132.862 99.68-218.83 65.18-5.57 114.22-29.67 114.22-58.56z" fill="#7da7fa"/><g fill="#2c2c3d"><path d="m55.198 31.761c5.758 0 10.015-5.541 7.958-11.002-1.557-4.134-6.17-6.222-10.306-4.668-9.281 3.548-6.191 15.67 2.348 15.67z"/><path d="m311.262 282.189c5.25.764 8.889-2.664 9.481-6.692.643-4.371-2.38-8.437-6.751-9.079-5.287-.759-8.886 2.688-9.477 6.689-.644 4.371 2.376 8.437 6.747 9.082z"/><path d="m509.967 216.748c-.563-19.002-17.115-36.244-46.772-48.639-91.631-38.294-253.343-13.125-255.174 48.639-.042.633-.027 26.344-.027 124.046-90.939 16.742-191-11.777-191-46.867v-44.128c37.69 33.807 118.841 40.02 169.596 34.879 4.396-.444 7.599-4.369 7.154-8.765-.446-4.396-4.377-7.609-8.765-7.153-86.129 8.719-167.984-18.621-167.984-50.127v-44.129c37.665 33.788 118.812 40.023 169.596 34.88 4.396-.444 7.599-4.369 7.154-8.765-.446-4.396-4.377-7.607-8.765-7.153-86.13 8.716-167.984-18.629-167.984-50.128v-44.422c54.113 48.539 215.454 48.927 270 0v32.599c0 4.418 3.582 8 8 8s8-3.582 8-8c0-3.194.002-63.039-.004-63.611.26-55.014-126.788-82.269-221.912-60.283-4.305.995-6.988 5.292-5.993 9.597s5.291 6.985 9.596 5.993c127.531-29.485 272.022 34.831 165.342 79.418-53.926 22.536-142.146 22.533-196.063 0-31.264-13.067-50.924-33.718-24.71-55.523 3.397-2.825 3.86-7.869 1.035-11.267-2.826-3.396-7.87-3.859-11.267-1.034-10.282 8.554-18.026 19.7-18.026 33.18v301.235c0 52.884 115.826 78.932 207 63.113v10.887c0 62.527 163.225 88.08 255.201 49.642 30.179-12.613 46.799-30.243 46.799-49.642 0-4.718.015-225.84-.027-226.472zm-249.004-33.877c53.926-22.536 142.146-22.533 196.063 0 90.668 37.894.286 90.927-111.71 86.367-4.409-.191-8.139 3.253-8.318 7.668-.18 4.414 3.253 8.139 7.668 8.318 46.726 1.902 115.714-6.157 149.329-36.309v43.717c0 12.347-13.475 25.06-36.969 34.879-26.055 10.889-60.869 16.886-98.031 16.886-77.886 0-135-26.321-135-51.765v-43.68c11.378 10.2 28.544 18.923 50.639 25.41 4.24 1.241 8.685-1.184 9.93-5.422 1.245-4.239-1.183-8.686-5.422-9.93-60.58-17.785-77.548-51.326-18.179-76.139zm-243.969 186.35v-44.128c38.927 34.917 128.24 42.836 191 31.948v59.048c-90.939 16.74-191-11.778-191-46.868zm440.032 108.879c-53.926 22.536-142.146 22.533-196.063 0-23.494-9.819-36.969-22.532-36.969-34.879 0-5.271 0-44.004 0-44.128 47.564 42.665 178.938 48.609 247.798 14.569 3.96-1.958 5.584-6.757 3.626-10.717-1.958-3.962-6.757-5.584-10.717-3.627-26.191 12.948-64.72 20.374-105.708 20.374-77.886 0-135-26.321-135-51.765 0-5.271 0-44.004 0-44.128 54.237 48.65 215.763 48.65 270 0v119.422c.001 12.346-13.473 25.059-36.967 34.879z"/></g></svg>