<svg id="Layer_1" enable-background="new 0 0 512.003 512.003" height="512" viewBox="0 0 512.003 512.003" width="512" xmlns="http://www.w3.org/2000/svg"><g><g><path d="m256.01 168.194c-55.734 0-100.916-14.116-100.916-31.529v60.736c14.165 13.169 53.993 22.656 100.916 22.656s86.752-9.487 100.916-22.656v-60.736c0 17.413-45.182 31.529-100.916 31.529z" fill="#80b4fb"/><path d="m209.369 164.63c-32.255-5.262-54.275-15.809-54.275-27.965v60.736c9.114 8.474 28.856 15.422 54.275 19.3z" fill="#5490f9"/><path d="m256.01 63.911c-55.734 0-100.916-6.668-100.916-24.081v50.136c0 17.413 45.182 31.529 100.916 31.529s100.916-14.116 100.916-31.529v-50.136c0 17.413-45.182 24.081-100.916 24.081z" fill="#80b4fb"/><path d="m209.369 61.974c-32.255-3.07-54.275-9.988-54.275-22.144v50.136c0 12.155 22.021 22.703 54.275 27.965z" fill="#5490f9"/><path d="m256.01 218.33c-55.734 0-100.916-14.116-100.916-31.529v48.991c0 17.413 45.182 31.529 100.916 31.529s100.916-14.116 100.916-31.529v-48.991c0 17.413-45.182 31.529-100.916 31.529z" fill="#9dc6fb"/><path d="m209.369 214.766c-32.255-5.262-54.275-15.809-54.275-27.965v48.99c0 12.156 22.021 22.703 54.275 27.965z" fill="#80b4fb"/><path d="m256.01 120.35c-55.734 0-100.916-14.116-100.916-31.529v48.99c0 17.413 45.182 31.529 100.916 31.529s100.916-14.116 100.916-31.529v-48.991c0 17.413-45.182 31.53-100.916 31.53z" fill="#9dc6fb"/><path d="m209.369 116.785c-32.255-5.262-54.275-15.809-54.275-27.965v48.99c0 12.156 22.021 22.703 54.275 27.965z" fill="#80b4fb"/><ellipse cx="256.01" cy="39.83" fill="#b1d7fb" rx="100.916" ry="31.529"/><path d="m201.309 39.83c0-11.989 10.799-22.797 28.092-30.419-42.823 3.648-74.308 15.884-74.308 30.419 0 14.536 31.485 26.771 74.308 30.419-17.293-7.622-28.092-18.43-28.092-30.419z" fill="#9dc6fb"/><path d="m124.176 376.529h-102.794c-4.467 0-8.122 3.655-8.122 8.122v22.231c1.071-.436 2.241-.681 3.469-.681h30.221c3.855 0 7.303 2.398 8.645 6.011l3.453 9.298c1.342 3.613 4.79 6.011 8.645 6.011h55.384c5.093 0 9.222 4.129 9.222 9.222v-52.093c-.001-4.467-3.656-8.121-8.123-8.121z" fill="#fec458"/><g><path d="m47.932 384.65c0-4.467 3.655-8.122 8.122-8.122h-34.672c-4.467 0-8.122 3.654-8.122 8.122v22.231c1.072-.436 2.241-.681 3.469-.681h30.221c.332 0 .656.041.981.076v-21.626z" fill="#f9ab49"/></g><path d="m123.076 425.22h-55.383c-3.855 0-7.303-2.398-8.645-6.011l-3.453-9.298c-1.342-3.613-4.79-6.011-8.645-6.011h-30.221c-5.093 0-9.222 4.129-9.222 9.221v81.39c0 5.093 4.129 9.221 9.222 9.221h106.347c5.093 0 9.222-4.129 9.222-9.221v-60.07c0-5.092-4.129-9.221-9.222-9.221z" fill="#ffe181"/><path d="m42.179 494.511v-81.39c0-4.311 2.963-7.922 6.962-8.931-.709-.174-1.438-.291-2.19-.291h-30.222c-5.093 0-9.222 4.129-9.222 9.221v81.39c0 5.093 4.129 9.222 9.222 9.222h34.671c-5.092 0-9.221-4.129-9.221-9.221z" fill="#fec458"/><path d="m310.283 376.529h-102.794c-4.467 0-8.122 3.655-8.122 8.122v22.231c1.071-.436 2.241-.681 3.469-.681h30.221c3.855 0 7.303 2.398 8.645 6.011l3.453 9.298c1.342 3.613 4.79 6.011 8.645 6.011h55.384c5.093 0 9.222 4.129 9.222 9.222v-52.093c-.001-4.467-3.656-8.121-8.123-8.121z" fill="#fec458"/><g><path d="m234.039 384.65c0-4.467 3.655-8.122 8.122-8.122h-34.671c-4.467 0-8.122 3.654-8.122 8.122v22.231c1.072-.436 2.241-.681 3.469-.681h30.221c.332 0 .656.041.981.076z" fill="#f9ab49"/></g><path d="m309.183 425.22h-55.383c-3.855 0-7.303-2.398-8.645-6.011l-3.453-9.298c-1.342-3.613-4.79-6.011-8.645-6.011h-30.221c-5.093 0-9.222 4.129-9.222 9.221v81.39c0 5.093 4.129 9.221 9.222 9.221h106.347c5.093 0 9.222-4.129 9.222-9.221v-60.07c0-5.092-4.129-9.221-9.222-9.221z" fill="#ffe181"/><path d="m228.286 494.511v-81.39c0-4.311 2.963-7.922 6.962-8.931-.709-.174-1.438-.291-2.19-.291h-30.221c-5.093 0-9.222 4.129-9.222 9.221v81.39c0 5.093 4.129 9.222 9.222 9.222h34.671c-5.093 0-9.222-4.129-9.222-9.221z" fill="#fec458"/><path d="m496.39 376.529h-102.794c-4.467 0-8.122 3.655-8.122 8.122v22.231c1.071-.436 2.241-.681 3.469-.681h30.221c3.855 0 7.303 2.398 8.645 6.011l3.453 9.298c1.342 3.613 4.79 6.011 8.645 6.011h55.384c5.093 0 9.222 4.129 9.222 9.222v-52.093c-.001-4.467-3.656-8.121-8.123-8.121z" fill="#fec458"/><g><path d="m420.146 384.65c0-4.467 3.655-8.122 8.122-8.122h-34.671c-4.467 0-8.122 3.654-8.122 8.122v22.231c1.072-.436 2.241-.681 3.469-.681h30.221c.332 0 .656.041.981.076z" fill="#f9ab49"/></g><path d="m495.29 425.22h-55.384c-3.855 0-7.303-2.398-8.645-6.011l-3.453-9.298c-1.342-3.613-4.79-6.011-8.645-6.011h-30.221c-5.093 0-9.222 4.129-9.222 9.221v81.39c0 5.093 4.129 9.221 9.222 9.221h106.348c5.093 0 9.222-4.129 9.222-9.221v-60.07c0-5.092-4.129-9.221-9.222-9.221z" fill="#ffe181"/><path d="m414.393 494.511v-81.39c0-4.311 2.963-7.922 6.962-8.931-.709-.174-1.438-.291-2.19-.291h-30.221c-5.093 0-9.222 4.129-9.222 9.221v81.39c0 5.093 4.129 9.222 9.222 9.222h34.671c-5.093 0-9.222-4.129-9.222-9.221z" fill="#fec458"/></g><path d="m496.382 369.018h-42.743v-34.381c0-11.216-9.125-20.341-20.341-20.341h-169.796v-39.58c24.885-.557 48.126-3.868 66.095-9.482 28.78-8.992 34.821-20.98 34.821-29.454 0-3.883 0-186.015 0-195.961 0-8.474-6.041-20.462-34.821-29.454-40.902-12.778-106.289-12.778-147.189 0-28.78 8.992-34.821 20.98-34.821 29.454v195.961c0 8.474 6.041 20.462 34.821 29.454 17.969 5.614 41.21 8.925 66.095 9.482v39.58h-164.045c-11.216 0-20.341 9.125-20.341 20.341v34.381h-42.742c-8.614 0-15.622 7.008-15.622 15.621v15.88c-3.517 3.068-5.753 7.568-5.753 12.59v81.39c0 9.221 7.501 16.722 16.722 16.722h106.347c9.221 0 16.722-7.501 16.722-16.722 0-51.201 0-61.951 0-109.86 0-8.613-7.008-15.621-15.622-15.621h-45.052v-34.381c0-2.945 2.396-5.341 5.341-5.341h164.044v39.722h-41.021c-8.614 0-15.622 7.008-15.622 15.621v15.88c-3.517 3.068-5.753 7.568-5.753 12.59v81.39c0 9.221 7.501 16.722 16.722 16.722h38.55c4.143 0 7.5-3.357 7.5-7.5s-3.357-7.5-7.5-7.5h-38.55c-.949 0-1.722-.772-1.722-1.722v-81.39c0-.71.432-1.32 1.047-1.583.012-.005.024-.007.036-.012.102-.041.203-.071.306-.092.108-.021.219-.034.333-.034h30.221c.716 0 1.364.451 1.613 1.122l3.453 9.298c2.422 6.52 8.721 10.899 15.676 10.899h55.384c.949 0 1.722.772 1.722 1.722v60.069c0 .949-.772 1.722-1.722 1.722h-32.797c-4.143 0-7.5 3.357-7.5 7.5s3.357 7.5 7.5 7.5h32.797c9.221 0 16.722-7.501 16.722-16.722 0-51.201 0-61.951 0-109.86 0-8.613-7.008-15.621-15.622-15.621h-46.772v-39.722h169.796c2.945 0 5.341 2.396 5.341 5.341v34.381h-45.051c-8.614 0-15.622 7.008-15.622 15.621v15.88c-3.517 3.068-5.753 7.568-5.753 12.59v81.39c0 9.221 7.501 16.722 16.722 16.722h106.347c9.221 0 16.722-7.501 16.722-16.722v-11.007c0-4.143-3.357-7.5-7.5-7.5s-7.5 3.357-7.5 7.5v11.007c0 .949-.772 1.722-1.722 1.722h-106.348c-.949 0-1.722-.772-1.722-1.722v-81.39c0-.71.432-1.32 1.047-1.583.012-.005.024-.007.036-.012.102-.041.203-.071.306-.092.108-.021.219-.034.333-.034h30.221c.717 0 1.365.451 1.614 1.121l3.453 9.3c2.423 6.519 8.722 10.898 15.676 10.898h55.383c.949 0 1.722.772 1.722 1.722v14.063c0 4.143 3.357 7.5 7.5 7.5s7.5-3.357 7.5-7.5v-14.061-49.791c-.001-8.614-7.009-15.621-15.622-15.621zm-371.592 125.481c0 .949-.772 1.722-1.722 1.722h-106.346c-.949 0-1.722-.772-1.722-1.722v-81.39c0-.71.432-1.32 1.047-1.583.012-.005.024-.007.036-.012.102-.041.203-.071.306-.092.108-.021.219-.034.333-.034h30.221c.716 0 1.364.451 1.613 1.122l3.453 9.298c2.422 6.52 8.721 10.899 15.676 10.899h55.384c.949 0 1.722.772 1.722 1.722v60.07zm-.622-110.481c.325 0 .622.296.622.621v33.157c-.002 0-.005 0-.008 0-.563-.058-1.135-.088-1.714-.088h-55.383c-.716 0-1.364-.451-1.613-1.122l-3.453-9.298c-.151-.407-.318-.807-.499-1.197-2.713-5.853-8.656-9.704-15.177-9.704h-26.19v-11.749c0-.325.297-.621.622-.621h102.793zm62.712-359.335c38.014-11.876 100.258-11.868 138.244 0 19.217 6.004 24.294 12.526 24.294 15.136s-5.077 9.132-24.294 15.136c-38.014 11.876-100.258 11.868-138.244 0-19.217-6.004-24.294-12.526-24.294-15.136s5.077-9.132 24.294-15.136zm-24.294 36.102c5.962 3.593 13.202 6.419 19.821 8.487 40.902 12.778 106.289 12.778 147.189 0 6.643-2.076 13.799-4.859 19.821-8.487v28.025c0 2.61-5.077 9.132-24.294 15.136-38.004 11.874-100.248 11.872-138.244 0-19.217-6.004-24.294-12.526-24.294-15.136v-28.025zm0 48.99c4.943 2.977 11.41 5.86 19.821 8.487 40.9 12.779 106.289 12.779 147.189 0 8.411-2.627 14.878-5.51 19.821-8.487v28.025c0 2.61-5.077 9.132-24.294 15.136-38.017 11.877-100.257 11.868-138.244 0-19.217-6.004-24.294-12.526-24.294-15.136v-28.025zm0 48.983c4.945 2.979 11.405 5.866 19.821 8.495 40.9 12.779 106.289 12.779 147.189 0 8.417-2.63 14.876-5.516 19.821-8.495v28.032c0 2.61-5.077 9.132-24.294 15.136-38.004 11.874-100.248 11.872-138.244 0-19.217-6.004-24.294-12.526-24.294-15.136v-28.032zm147.688 225.26c.325 0 .622.296.622.621v33.157c-.002 0-.005 0-.008 0-.563-.058-1.135-.088-1.714-.088h-55.384c-.716 0-1.364-.451-1.613-1.122l-3.453-9.298c-.151-.407-.318-.807-.499-1.197-2.713-5.853-8.656-9.704-15.177-9.704h-26.189v-11.749c0-.325.297-.621.622-.621h102.793zm-123.394-133.102c-19.217-6.003-24.294-12.525-24.294-15.136v-28.024c4.943 2.978 11.41 5.859 19.821 8.487 40.893 12.778 106.289 12.78 147.189 0 8.411-2.628 14.878-5.51 19.821-8.487v28.024c0 2.61-5.077 9.133-24.294 15.136-38.003 11.874-100.247 11.872-138.243 0zm310.123 166.88c-.002 0-.005 0-.008 0-.563-.058-1.135-.088-1.714-.088h-55.383c-.717 0-1.365-.451-1.614-1.121l-3.452-9.299c-2.422-6.52-8.722-10.9-15.677-10.9h-26.189v-11.749c0-.325.297-.621.622-.621h102.794c.325 0 .621.296.621.621z"/></g></svg>