<svg height="511pt" viewBox="0 1 511 511.99929" width="511pt" xmlns="http://www.w3.org/2000/svg"><g fill-rule="evenodd"><path d="m130.496094 502h332c22.09375 0 40-17.910156 40-40v-20h-332v20c0 22.089844-17.90625 40-40 40zm0 0" fill="#e8e7e9"/><path d="m170.496094 442h252.003906v-392c0-22.046875-18.019531-40.15625-40.121094-40h-331.726562c22.019531.082031 39.847656 17.960938 39.847656 40v412c0 22.089844 17.90625 40 39.996094 40 22.09375 0 40-17.910156 40-40zm0 0" fill="#f9f9f9"/><path d="m10.5 70h80v-20c0-22.039062-17.828125-39.917969-39.847656-40h-.152344c-22.09375 0-40 17.90625-40 40zm0 0" fill="#e8e7e9"/><path d="m234.714844 170v-67.46875l-44.214844-32.53125-44.214844 32.53125v67.46875zm0 0" fill="#ffc059"/><path d="m352.894531 219.996094-91.019531 91.019531 31.820312 31.820313 183.203126-183.203126-31.820313-31.820312zm0 0" fill="#5fa4ff"/><path d="m293.695312 342.835938-31.820312-31.820313-8.980469 8.980469-5.160156 5.164062-13.019531 44.835938 44.835937-13.019532zm0 0" fill="#efc9b4"/></g><path d="m502.496094 432h-69.996094v-213.824219l51.46875-51.472656c3.90625-3.902344 3.90625-10.234375 0-14.140625l-31.820312-31.820312c-1.875-1.875-4.417969-2.929688-7.070313-2.929688s-5.195313 1.054688-7.070313 2.929688l-5.507812 5.507812v-76.25c0-13.414062-5.265625-26.027344-14.820312-35.515625-9.5-9.433594-22.054688-14.578125-35.300782-14.484375h-211.882812c-5.519532 0-10 4.476562-10 10s4.480468 10 10 10h211.953125.210937c7.859375 0 15.289063 3.078125 20.925782 8.675781 5.746093 5.707031 8.914062 13.28125 8.914062 21.324219v96.25l-63.75 63.75h-114.035156c-5.523438 0-10 4.476562-10 9.996094 0 5.523437 4.476562 10 10 10h94.035156l-30 30h-152.464844c-5.523437 0-10 4.480468-10 10 0 5.523437 4.476563 10 10 10h132.46875l-30 30h-102.46875c-5.523437 0-10 4.476562-10 10 0 5.523437 4.476563 10 10 10h89.628906l-8.707031 30h-80.921875c-5.523437 0-10 4.476562-10 10 0 5.523437 4.476563 10 10 10h88.429688.003906c.429688 0 .851562-.035156 1.265625-.089844.101563-.011719.199219-.027344.300781-.042969.375-.058593.742188-.136719 1.101563-.238281.039062-.011719.078125-.015625.117187-.023438l.148438-.042968c.015625-.007813.035156-.011719.054687-.015625l44.632813-12.960938c1.617187-.46875 3.09375-1.339843 4.285156-2.53125l34.050781-34.054687h61.820313c5.523437 0 10-4.476563 10-10 0-5.523438-4.476563-10-10-10h-41.820313l71.824219-71.820313v193.824219h-10.003906c-5.519532 0-10 4.480469-10 10 0 5.523438 4.480468 10 10 10h90v10c0 16.542969-13.457032 30-30 30h-292.023438c6.289063-8.359375 10.023438-18.753906 10.023438-30v-10h142c5.523437 0 10-4.476562 10-10 0-5.519531-4.476563-10-10-10h-152c-5.519532 0-10 4.480469-10 10v20c0 16.542969-13.457032 30-30 30-16.539063 0-29.996094-13.457031-29.996094-30v-411.996094c0-11.25-3.734375-21.640625-10.027344-30h.027344c5.519531 0 10-4.480468 10-10 0-5.523437-4.480469-9.99999975-10-9.99999975h-40c-27.570312 0-50 22.42968775-50 49.99999975v19.996094c0 5.523438 4.476562 10 10 10h70v382c0 27.570312 22.429688 50 49.996094 50h332c27.570312 0 50-22.429688 50-50v-20c0-5.523438-4.476563-10-10-10zm-57.417969-290.046875 17.679687 17.679687-47.328124 47.324219c0 .003907-.003907.003907-.003907.007813l-105.964843 105.960937-15.765626 15.765625-17.675781-17.675781zm-195.6875 213.367187 7.230469-24.90625 5.253906-5.257812 17.679688 17.679688-5.257813 5.253906zm-168.890625-295.320312h-60v-10c0-16.542969 13.457031-30 30-30s30 13.457031 30 30zm0 0"/><path d="m130.5 20c5.523438 0 10-4.476562 10-10s-4.476562-10-10-10h-.003906c-5.523438 0-9.996094 4.476562-9.996094 10s4.480469 10 10 10zm0 0"/><path d="m372.5 442c0-5.523438-4.476562-10-10-10h-.007812c-5.519532 0-9.996094 4.476562-9.996094 10s4.484375 10 10.003906 10c5.523438 0 10-4.476562 10-10zm0 0"/><path d="m146.285156 180h88.429688c5.523437 0 10-4.480469 10-10v-47.707031c1.753906 1.246093 3.773437 1.851562 5.777344 1.851562 3.070312 0 6.101562-1.410156 8.0625-4.074219 3.273437-4.449218 2.320312-10.707031-2.128907-13.980468l-60-44.144532c-3.523437-2.59375-8.328125-2.59375-11.851562 0l-60 44.144532c-4.449219 3.273437-5.402344 9.53125-2.128907 13.980468 3.238282 4.402344 9.398438 5.375 13.839844 2.222657v47.707031c0 5.519531 4.476563 10 10 10zm44.214844-97.585938 34.214844 25.175782v52.410156h-68.429688v-52.410156zm0 0"/><path d="m290.5 80h91.996094c5.523437 0 10-4.476562 10-10s-4.476563-10-10-10h-91.996094c-5.523438 0-10 4.476562-10 10s4.476562 10 10 10zm0 0"/><path d="m290.5 130h91.996094c5.523437 0 10-4.476562 10-10s-4.476563-10-10-10h-91.996094c-5.523438 0-10 4.476562-10 10s4.476562 10 10 10zm0 0"/><path d="m290.5 180h46c5.519531 0 10-4.480469 10-10 0-5.523438-4.480469-10-10-10h-46c-5.523438 0-10 4.476562-10 10 0 5.519531 4.476562 10 10 10zm0 0"/></svg>