<?xml version="1.0" encoding="UTF-8"?>
<svg xmlns="http://www.w3.org/2000/svg" xmlns:xlink="http://www.w3.org/1999/xlink" xmlns:svgjs="http://svgjs.com/svgjs" version="1.1" width="512" height="512" x="0" y="0" viewBox="0 0 511.969 511.969" style="enable-background:new 0 0 512 512" xml:space="preserve" class="">
  <g transform="matrix(-1,0,0,1,511.9700012207031,0)">
<g xmlns="http://www.w3.org/2000/svg">
	<g>
		<path style="" d="M504.269,63.419c0,25.243-70.366,48.83-157.166,48.83s-157.166-23.587-157.166-48.83    s70.366-45.707,157.166-45.707S504.269,38.176,504.269,63.419z" fill="#a6c4ff" data-original="#616377" class=""/>
		<path style="" d="M209.937,63.419c0-24.266,65.027-44.112,147.166-45.612c-3.308-0.06-6.64-0.095-10-0.095    c-86.8,0-157.166,20.464-157.166,45.707s70.366,48.83,157.166,48.83c3.36,0,6.692-0.039,10-0.109    C274.964,110.416,209.937,87.685,209.937,63.419z" fill="#a6c4ff" data-original="#525468" class=""/>
		<path style="" d="M347.103,294.386c-86.801,0-157.166-20.464-157.166-45.707v92.63    c0,25.243,70.365,45.707,157.166,45.707s157.166-20.464,157.166-45.707v-92.63C504.269,273.922,433.904,294.386,347.103,294.386z" fill="#7da7fa" data-original="#3e4151" class=""/>
		<path style="" d="M341.78,294.357c-84.335-0.817-151.843-20.954-151.843-45.678v92.63    c0,24.724,67.508,44.861,151.843,45.678V294.357z" fill="#7da7fa" data-original="#353744" class=""/>
		<path style="" d="M347.103,109.126c-86.801,0-157.166-20.463-157.166-45.707v92.63    c0,25.244,70.365,45.707,157.166,45.707s157.166-20.463,157.166-45.707v-92.63C504.269,88.663,433.904,109.126,347.103,109.126z" fill="#7da7fa" data-original="#3e4151" class=""/>
		<path style="" d="M281.332,119.149c-18.022-5.241-39.334-9.128-62.491-11.494c-5.065-0.517-8.904-4.81-8.904-9.902    V85.742c-12.731-6.602-20-14.215-20-22.323v42.119v50.511c0,12.88,19.362,22.014,17.683,21.076    c25.431,14.204,75.757,24.036,134.16,24.602v-31.054C341.78,148.149,321.442,130.814,281.332,119.149z" fill="#7da7fa" data-original="#353744" class=""/>
		<path style="" d="M347.103,198.633c-86.801,0-157.166-20.463-157.166-45.707v98.876    c0,25.243,70.365,45.707,157.166,45.707s157.166-20.464,157.166-45.707v-98.876C504.269,178.17,433.904,198.633,347.103,198.633z" fill="#a6c4ff" data-original="#525468" class=""/>
		<path style="" d="M341.78,198.604c-84.335-0.817-151.843-20.953-151.843-45.678v98.876    c0,24.724,67.508,44.861,151.843,45.678V198.604z" fill="#7da7fa" data-original="#3e4151" class=""/>
		<path style="" d="M321.78,170.673c0,25.243-70.366,48.83-157.166,48.83S7.448,195.916,7.448,170.673    s70.366-45.707,157.166-45.707S321.78,145.43,321.78,170.673z" fill="#a6c4ff" data-original="#616377" class=""/>
		<path style="" d="M27.448,170.673c0-24.266,65.027-44.112,147.166-45.612c-3.308-0.06-6.64-0.095-10-0.095    c-86.8,0-157.166,20.464-157.166,45.707s70.366,48.83,157.166,48.83c3.36,0,6.692-0.039,10-0.109    C92.475,217.67,27.448,194.939,27.448,170.673z" fill="#a6c4ff" data-original="#525468" class=""/>
		<path style="" d="M164.614,401.64c-86.801,0-157.166-20.464-157.166-45.707v92.63    c0,25.243,70.365,45.707,157.166,45.707s157.166-20.464,157.166-45.707v-92.63C321.78,381.176,251.415,401.64,164.614,401.64z" fill="#7da7fa" data-original="#3e4151" class=""/>
		<path style="" d="M27.448,378.256c-12.731-6.602-20-14.215-20-22.323v92.63c0,8.107,7.269,15.72,20,22.323V378.256z" fill="#7da7fa" data-original="#353744" class=""/>
		<path style="" d="M164.614,216.38c-86.801,0-157.166-20.463-157.166-45.707v92.63    c0,25.244,70.365,45.707,157.166,45.707s157.166-20.463,157.166-45.707v-92.63C321.78,195.917,251.415,216.38,164.614,216.38z" fill="#7da7fa" data-original="#3e4151" class=""/>
		<path style="" d="M27.448,192.996c-12.731-6.602-20-14.215-20-22.323v92.63c0,8.108,7.269,15.721,20,22.323V192.996z    " fill="#7da7fa" data-original="#353744" class=""/>
		<path style="" d="M164.614,305.887c-86.801,0-157.166-20.463-157.166-45.707v98.876    c0,25.243,70.365,45.707,157.166,45.707s157.166-20.464,157.166-45.707V260.18C321.78,285.424,251.415,305.887,164.614,305.887z" fill="#a6c4ff" data-original="#525468" class=""/>
		<path style="" d="M27.448,282.503c-12.731-6.602-20-14.215-20-22.323v98.876c0,8.108,7.269,15.721,20,22.323V282.503    z" fill="#7da7fa" data-original="#3e4151" class=""/>
	</g>
	<g>
		<path d="M466.4,25.956c-26.489-8.548-62.484-13.946-101.356-15.198c-4.177-0.149-7.604,3.116-7.737,7.255    c-0.134,4.14,3.114,7.604,7.255,7.737c85.256,2.747,132.407,24.169,132.407,37.927c0,15.686-57.444,38.207-149.666,38.207    c-85.684,0-144.356-19.746-149.378-36.377c-0.194-0.643-0.288-1.255-0.288-1.83c0-13.758,47.151-35.18,132.407-37.927    c4.141-0.134,7.389-3.598,7.255-7.737c-0.134-4.141-3.559-7.408-7.737-7.255c-38.872,1.252-74.867,6.65-101.356,15.198    c-29.811,9.621-45.568,22.664-45.568,37.721v53.742C96.759,114.628,0.006,132.737,0,170.328v0.002c0,8.1,0,177.099,0,185.261    v92.63c0,70.382,329.332,70.939,329.332,0v-53.747c77.647,2.571,149.77-11.479,173.508-34.116    c6.058-5.777,9.129-12.1,9.129-18.791v-92.631v-11.917c0-4.143-3.357-7.5-7.5-7.5s-7.5,3.357-7.5,7.5v11.917    c0,2.427-1.508,5.096-4.48,7.932c-17.258,16.458-66.384,24.641-90.226,27.319c-23.853,2.684-49.037,3.483-72.93,2.654    c0-2.145,0-73.956,0-77.62c47.163,1.557,130.791-3.55,167.637-29.362v22.161c0,4.143,3.357,7.5,7.5,7.5s7.5-3.357,7.5-7.5    c0-7.789,0-132.381,0-138.343C511.969,48.62,496.211,35.577,466.4,25.956z M197.637,87.193c55.949,39.531,243.44,39.49,299.332,0    v69.113c0,2.43-1.508,5.1-4.482,7.937c-12.183,11.619-41.72,19.128-58.212,22.404c-33.254,6.641-70.771,8.738-104.943,7.564    v-23.88c0-38.16-93.725-49.899-131.695-52.213V87.193z M314.332,193.847c0,7.985,0,62.026,0,69.114    c0,6.137-10.64,16.397-40.627,25.118c-60.097,17.477-158.018,17.466-218.078,0C25.64,279.359,15,269.098,15,262.961v-69.114    C71.289,233.621,259.271,232.753,314.332,193.847z M15,286.477c56.166,39.704,243.79,39.262,299.332,0c0,7.985,0,62.026,0,69.114    c0,6.137-10.64,16.396-40.627,25.118c-60.097,17.477-158.018,17.466-218.078,0C25.64,371.988,15,361.728,15,355.591V286.477z     M55.627,145.213c60.268-17.527,158.253-17.399,218.078,0c29.987,8.72,40.626,18.981,40.627,25.118    c-0.001,15.686-57.444,38.207-149.666,38.207c-92.803,0-149.664-22.716-149.666-38.207C15,164.194,25.641,153.934,55.627,145.213z     M314.332,448.221c0,6.137-10.64,16.396-40.627,25.118c-60.097,17.477-158.018,17.466-218.078,0    C25.64,464.618,15,454.358,15,448.221v-69.114c54.832,38.744,242.524,40.14,299.332,0    C314.332,387.092,314.332,441.133,314.332,448.221z M496.969,341.567c0,2.43-1.508,5.1-4.481,7.936    c-18.003,17.17-83.375,32.693-163.155,29.97c0-2.144,0-73.957,0-77.622c71.294,2.362,139.062-9.345,167.637-29.363V341.567z" fill="#000000" data-original="#000000" style="" class=""/>
	</g>
</g>















</g>
</svg>
